SplineFontDB: 3.2
FontName: pixelmix
FullName: pixelmix Regular
FamilyName: pixelmix
Weight: Book
Copyright: Copyright Andrew Tyler 2012\nfont@andrewtyler.net
Version: 1.0
ItalicAngle: 0
UnderlinePosition: 25
UnderlineWidth: 51
Ascent: 1024
Descent: 0
InvalidEm: 0
sfntRevision: 0x00010000
woffMajor: 1
woffMinor: 0
LayerCount: 2
Layer: 0 1 "Back" 1
Layer: 1 1 "Fore" 0
XUID: [1021 883 582632316 2850105]
StyleMap: 0x0040
FSType: 4
OS2Version: 2
OS2_WeightWidthSlopeOnly: 0
OS2_UseTypoMetrics: 0
CreationTime: 1268433997
ModificationTime: 1616675009
PfmFamily: 81
TTFWeight: 400
TTFWidth: 5
LineGap: 0
VLineGap: 0
Panose: 0 0 4 0 0 0 0 0 0 0
OS2TypoAscent: 1024
OS2TypoAOffset: 0
OS2TypoDescent: 0
OS2TypoDOffset: 0
OS2TypoLinegap: 0
OS2WinAscent: 1024
OS2WinAOffset: 0
OS2WinDescent: 0
OS2WinDOffset: 0
HheadAscent: 1024
HheadAOffset: 0
HheadDescent: 0
HheadDOffset: 0
OS2SubXSize: 512
OS2SubYSize: 512
OS2SubXOff: 0
OS2SubYOff: 0
OS2SupXSize: 512
OS2SupYSize: 512
OS2SupXOff: 0
OS2SupYOff: 512
OS2StrikeYSize: 51
OS2StrikeYPos: 204
OS2CapHeight: 896
OS2XHeight: 640
OS2Vendor: 'FSTR'
OS2CodePages: 000001fb.00000000
OS2UnicodeRanges: 8000000f.4000000a.00000000.00000000
MarkAttachClasses: 1
DEI: 91125
ShortTable: maxp 16
  1
  0
  419
  36
  9
  0
  0
  2
  0
  0
  0
  0
  0
  0
  0
  0
EndShort
LangName: 1033 "" "" "Regular" "FontForge 2.0 : pixelmix Regular : 1-2-2012" "" "Version 1.0" "" "" "Andrew Tyler" "Andrew Tyler" "" "http://www.andrewtyler.net" "http://www.andrewtyler.net" "Creative Commons Attribution BY NC ND" "http://creativecommons.org/licenses/by-nc-nd/3.0/us/" "" "" "" "" "Five big quacking zephyrs jolt my wax bed"
GaspTable: 1 65535 2 0
Encoding: UnicodeBmp
UnicodeInterp: none
NameList: AGL For New Fonts
DisplaySize: -48
AntiAlias: 1
FitToEm: 0
WinInfo: 0 38 14
BeginChars: 65537 572

StartChar: .notdef
Encoding: 65536 -1 0
Width: 1024
Flags: W
LayerCount: 2
Fore
SplineSet
0 0 m 1,0,-1
 0 1024 l 1,1,-1
 1024 1024 l 1,2,-1
 1024 0 l 1,3,-1
 0 0 l 1,0,-1
EndSplineSet
Validated: 1
EndChar

StartChar: exclam
Encoding: 33 33 4
Width: 768
GlyphClass: 2
Flags: W
LayerCount: 2
Fore
SplineSet
256 0 m 5,0,-1
 256 128 l 5,1,-1
 384 128 l 5,2,-1
 384 0 l 5,3,-1
 256 0 l 5,0,-1
256 256 m 5,4,-1
 256 896 l 5,5,-1
 384 896 l 5,6,-1
 384 256 l 5,7,-1
 256 256 l 5,4,-1
EndSplineSet
Validated: 1
EndChar

StartChar: quotedbl
Encoding: 34 34 5
Width: 768
GlyphClass: 2
Flags: W
LayerCount: 2
Fore
SplineSet
128 640 m 5,0,-1
 128 896 l 5,1,-1
 256 896 l 5,2,-1
 256 640 l 5,3,-1
 128 640 l 5,0,-1
384 640 m 5,4,-1
 384 896 l 5,5,-1
 512 896 l 5,6,-1
 512 640 l 5,7,-1
 384 640 l 5,4,-1
EndSplineSet
Validated: 1
EndChar

StartChar: numbersign
Encoding: 35 35 6
Width: 768
GlyphClass: 2
Flags: W
LayerCount: 2
Fore
SplineSet
384 256 m 1,0,-1
 384 640 l 1,1,-1
 256 640 l 1,2,-1
 256 256 l 1,3,-1
 384 256 l 1,0,-1
128 0 m 1,4,-1
 128 128 l 1,5,-1
 0 128 l 1,6,-1
 0 256 l 1,7,-1
 128 256 l 1,8,-1
 128 640 l 1,9,-1
 0 640 l 1,10,-1
 0 768 l 1,11,-1
 128 768 l 1,12,-1
 128 896 l 1,13,-1
 256 896 l 1,14,-1
 256 768 l 1,15,-1
 384 768 l 1,16,-1
 384 896 l 1,17,-1
 512 896 l 1,18,-1
 512 768 l 1,19,-1
 640 768 l 1,20,-1
 640 640 l 1,21,-1
 512 640 l 1,22,-1
 512 256 l 1,23,-1
 640 256 l 1,24,-1
 640 128 l 1,25,-1
 512 128 l 1,26,-1
 512 0 l 1,27,-1
 384 0 l 1,28,-1
 384 128 l 1,29,-1
 256 128 l 1,30,-1
 256 0 l 1,31,-1
 128 0 l 1,4,-1
EndSplineSet
Validated: 1
EndChar

StartChar: dollar
Encoding: 36 36 7
Width: 768
GlyphClass: 2
Flags: W
LayerCount: 2
Fore
SplineSet
0 128 m 1,0,-1
 0 256 l 1,1,-1
 128 256 l 1,2,-1
 128 128 l 1,3,-1
 0 128 l 1,0,-1
512 128 m 1,4,-1
 512 384 l 1,5,-1
 640 384 l 1,6,-1
 640 128 l 1,7,-1
 512 128 l 1,4,-1
0 512 m 1,8,-1
 0 768 l 1,9,-1
 128 768 l 1,10,-1
 128 512 l 1,11,-1
 0 512 l 1,8,-1
512 640 m 1,12,-1
 512 768 l 1,13,-1
 640 768 l 1,14,-1
 640 640 l 1,15,-1
 512 640 l 1,12,-1
128 0 m 1,16,-1
 128 128 l 1,17,-1
 256 128 l 1,18,-1
 256 384 l 1,19,-1
 128 384 l 1,20,-1
 128 512 l 1,21,-1
 256 512 l 1,22,-1
 256 768 l 1,23,-1
 128 768 l 1,24,-1
 128 896 l 1,25,-1
 512 896 l 1,26,-1
 512 768 l 1,27,-1
 384 768 l 1,28,-1
 384 512 l 1,29,-1
 512 512 l 1,30,-1
 512 384 l 1,31,-1
 384 384 l 1,32,-1
 384 128 l 1,33,-1
 512 128 l 1,34,-1
 512 0 l 1,35,-1
 128 0 l 1,16,-1
EndSplineSet
Validated: 5
EndChar

StartChar: percent
Encoding: 37 37 8
Width: 768
GlyphClass: 2
Flags: W
LayerCount: 2
Fore
SplineSet
0 0 m 1,0,-1
 0 128 l 1,1,-1
 128 128 l 1,2,-1
 128 0 l 1,3,-1
 0 0 l 1,0,-1
384 0 m 1,4,-1
 384 256 l 1,5,-1
 640 256 l 1,6,-1
 640 0 l 1,7,-1
 384 0 l 1,4,-1
128 128 m 1,8,-1
 128 384 l 1,9,-1
 256 384 l 1,10,-1
 256 128 l 1,11,-1
 128 128 l 1,8,-1
256 384 m 1,12,-1
 256 512 l 1,13,-1
 384 512 l 1,14,-1
 384 384 l 1,15,-1
 256 384 l 1,12,-1
384 512 m 1,16,-1
 384 768 l 1,17,-1
 512 768 l 1,18,-1
 512 512 l 1,19,-1
 384 512 l 1,16,-1
0 640 m 1,20,-1
 0 896 l 1,21,-1
 256 896 l 1,22,-1
 256 640 l 1,23,-1
 0 640 l 1,20,-1
512 768 m 1,24,-1
 512 896 l 1,25,-1
 640 896 l 1,26,-1
 640 768 l 1,27,-1
 512 768 l 1,24,-1
EndSplineSet
Validated: 5
EndChar

StartChar: ampersand
Encoding: 38 38 9
Width: 768
GlyphClass: 2
Flags: W
LayerCount: 2
Fore
SplineSet
128 0 m 1,0,-1
 128 128 l 1,1,-1
 384 128 l 5,2,-1
 384 0 l 5,3,-1
 128 0 l 1,0,-1
512 0 m 5,4,-1
 512 128 l 5,5,-1
 640 128 l 5,6,-1
 640 0 l 5,7,-1
 512 0 l 5,4,-1
384 128 m 5,8,-1
 384 256 l 5,9,-1
 512 256 l 5,10,-1
 512 128 l 5,11,-1
 384 128 l 5,8,-1
0 128 m 1,12,-1
 0 384 l 1,13,-1
 128 384 l 1,14,-1
 128 128 l 1,15,-1
 0 128 l 1,12,-1
256 256 m 1,16,-1
 256 384 l 1,17,-1
 384 384 l 5,18,-1
 384 256 l 5,19,-1
 256 256 l 1,16,-1
512 256 m 5,20,-1
 512 384 l 5,21,-1
 640 384 l 5,22,-1
 640 256 l 5,23,-1
 512 256 l 5,20,-1
128 384 m 1,24,-1
 128 512 l 1,25,-1
 256 512 l 1,26,-1
 256 384 l 1,27,-1
 128 384 l 1,24,-1
0 512 m 1,28,-1
 0 896 l 1,29,-1
 384 896 l 1,30,-1
 384 512 l 1,31,-1
 256 512 l 1,32,-1
 256 768 l 1,33,-1
 128 768 l 1,34,-1
 128 512 l 1,35,-1
 0 512 l 1,28,-1
EndSplineSet
Validated: 5
EndChar

StartChar: quotesingle
Encoding: 39 39 10
Width: 768
GlyphClass: 2
Flags: W
LayerCount: 2
Fore
SplineSet
256 640 m 5,0,-1
 256 896 l 5,1,-1
 384 896 l 5,2,-1
 384 640 l 5,3,-1
 256 640 l 5,0,-1
EndSplineSet
Validated: 1
EndChar

StartChar: parenleft
Encoding: 40 40 11
Width: 768
GlyphClass: 2
Flags: W
LayerCount: 2
Fore
SplineSet
384 0 m 5,0,-1
 384 128 l 5,1,-1
 512 128 l 5,2,-1
 512 0 l 5,3,-1
 384 0 l 5,0,-1
256 128 m 5,4,-1
 256 256 l 5,5,-1
 384 256 l 5,6,-1
 384 128 l 5,7,-1
 256 128 l 5,4,-1
128 256 m 5,8,-1
 128 640 l 5,9,-1
 256 640 l 5,10,-1
 256 256 l 5,11,-1
 128 256 l 5,8,-1
256 640 m 5,12,-1
 256 768 l 5,13,-1
 384 768 l 5,14,-1
 384 640 l 5,15,-1
 256 640 l 5,12,-1
384 768 m 5,16,-1
 384 896 l 5,17,-1
 512 896 l 5,18,-1
 512 768 l 5,19,-1
 384 768 l 5,16,-1
EndSplineSet
Validated: 5
EndChar

StartChar: parenright
Encoding: 41 41 12
Width: 768
GlyphClass: 2
Flags: W
LayerCount: 2
Fore
SplineSet
128 0 m 5,0,-1
 128 128 l 5,1,-1
 256 128 l 5,2,-1
 256 0 l 5,3,-1
 128 0 l 5,0,-1
256 128 m 5,4,-1
 256 256 l 5,5,-1
 384 256 l 5,6,-1
 384 128 l 5,7,-1
 256 128 l 5,4,-1
384 256 m 5,8,-1
 384 640 l 5,9,-1
 512 640 l 5,10,-1
 512 256 l 5,11,-1
 384 256 l 5,8,-1
256 640 m 5,12,-1
 256 768 l 5,13,-1
 384 768 l 5,14,-1
 384 640 l 5,15,-1
 256 640 l 5,12,-1
128 768 m 5,16,-1
 128 896 l 5,17,-1
 256 896 l 5,18,-1
 256 768 l 5,19,-1
 128 768 l 5,16,-1
EndSplineSet
Validated: 5
EndChar

StartChar: asterisk
Encoding: 42 42 13
Width: 768
GlyphClass: 2
Flags: W
LayerCount: 2
Fore
SplineSet
256 512 m 5,0,-1
 256 640 l 5,1,-1
 128 640 l 5,2,-1
 128 768 l 5,3,-1
 256 768 l 5,4,-1
 256 896 l 5,5,-1
 384 896 l 5,6,-1
 384 768 l 5,7,-1
 512 768 l 5,8,-1
 512 640 l 5,9,-1
 384 640 l 5,10,-1
 384 512 l 5,11,-1
 256 512 l 5,0,-1
EndSplineSet
Validated: 1
EndChar

StartChar: plus
Encoding: 43 43 14
Width: 768
GlyphClass: 2
Flags: W
LayerCount: 2
Fore
SplineSet
256 128 m 1,0,-1
 256 384 l 1,1,-1
 0 384 l 1,2,-1
 0 512 l 1,3,-1
 256 512 l 1,4,-1
 256 768 l 1,5,-1
 384 768 l 1,6,-1
 384 512 l 1,7,-1
 640 512 l 1,8,-1
 640 384 l 1,9,-1
 384 384 l 1,10,-1
 384 128 l 1,11,-1
 256 128 l 1,0,-1
EndSplineSet
Validated: 1
EndChar

StartChar: comma
Encoding: 44 44 15
Width: 768
GlyphClass: 2
Flags: W
LayerCount: 2
Fore
SplineSet
256 0 m 5,0,-1
 256 128 l 5,1,-1
 128 128 l 5,2,-1
 128 256 l 5,3,-1
 384 256 l 5,4,-1
 384 0 l 5,5,-1
 256 0 l 5,0,-1
EndSplineSet
Validated: 1
EndChar

StartChar: hyphen
Encoding: 45 45 16
Width: 768
GlyphClass: 2
Flags: W
LayerCount: 2
Fore
SplineSet
0 384 m 1,0,-1
 0 512 l 1,1,-1
 640 512 l 1,2,-1
 640 384 l 1,3,-1
 0 384 l 1,0,-1
EndSplineSet
Validated: 1
EndChar

StartChar: period
Encoding: 46 46 17
Width: 768
GlyphClass: 2
Flags: W
LayerCount: 2
Fore
SplineSet
128 0 m 5,0,-1
 128 256 l 5,1,-1
 384 256 l 5,2,-1
 384 0 l 5,3,-1
 128 0 l 5,0,-1
EndSplineSet
Validated: 1
EndChar

StartChar: slash
Encoding: 47 47 18
Width: 768
GlyphClass: 2
Flags: W
LayerCount: 2
Fore
SplineSet
128 0 m 5,0,-1
 128 256 l 5,1,-1
 256 256 l 5,2,-1
 256 0 l 5,3,-1
 128 0 l 5,0,-1
256 256 m 5,4,-1
 256 640 l 5,5,-1
 384 640 l 5,6,-1
 384 256 l 5,7,-1
 256 256 l 5,4,-1
384 640 m 5,8,-1
 384 896 l 5,9,-1
 512 896 l 5,10,-1
 512 640 l 5,11,-1
 384 640 l 5,8,-1
EndSplineSet
Validated: 5
EndChar

StartChar: zero
Encoding: 48 48 19
Width: 768
GlyphClass: 2
Flags: W
LayerCount: 2
Fore
SplineSet
128 0 m 1,0,-1
 128 128 l 1,1,-1
 512 128 l 1,2,-1
 512 0 l 1,3,-1
 128 0 l 1,0,-1
256 384 m 1,4,-1
 256 512 l 1,5,-1
 384 512 l 1,6,-1
 384 384 l 1,7,-1
 256 384 l 1,4,-1
0 128 m 1,8,-1
 0 768 l 1,9,-1
 128 768 l 1,10,-1
 128 384 l 1,11,-1
 256 384 l 1,12,-1
 256 256 l 1,13,-1
 128 256 l 1,14,-1
 128 128 l 1,15,-1
 0 128 l 1,8,-1
512 128 m 1,16,-1
 512 512 l 1,17,-1
 384 512 l 1,18,-1
 384 640 l 1,19,-1
 512 640 l 1,20,-1
 512 768 l 1,21,-1
 640 768 l 1,22,-1
 640 128 l 1,23,-1
 512 128 l 1,16,-1
128 768 m 1,24,-1
 128 896 l 1,25,-1
 512 896 l 1,26,-1
 512 768 l 1,27,-1
 128 768 l 1,24,-1
EndSplineSet
Validated: 5
EndChar

StartChar: one
Encoding: 49 49 20
Width: 768
GlyphClass: 2
Flags: W
LayerCount: 2
Fore
SplineSet
128 0 m 5,0,-1
 128 128 l 5,1,-1
 256 128 l 5,2,-1
 256 640 l 5,3,-1
 128 640 l 5,4,-1
 128 768 l 5,5,-1
 256 768 l 5,6,-1
 256 896 l 5,7,-1
 384 896 l 5,8,-1
 384 128 l 5,9,-1
 512 128 l 5,10,-1
 512 0 l 5,11,-1
 128 0 l 5,0,-1
EndSplineSet
Validated: 1
EndChar

StartChar: two
Encoding: 50 50 21
Width: 768
GlyphClass: 2
Flags: W
LayerCount: 2
Fore
SplineSet
0 0 m 1,0,-1
 0 128 l 1,1,-1
 128 128 l 1,2,-1
 128 256 l 1,3,-1
 256 256 l 1,4,-1
 256 128 l 1,5,-1
 640 128 l 1,6,-1
 640 0 l 1,7,-1
 0 0 l 1,0,-1
256 256 m 1,8,-1
 256 384 l 1,9,-1
 384 384 l 1,10,-1
 384 256 l 1,11,-1
 256 256 l 1,8,-1
384 384 m 1,12,-1
 384 512 l 1,13,-1
 512 512 l 1,14,-1
 512 384 l 1,15,-1
 384 384 l 1,12,-1
0 640 m 1,16,-1
 0 768 l 1,17,-1
 128 768 l 1,18,-1
 128 640 l 1,19,-1
 0 640 l 1,16,-1
512 512 m 1,20,-1
 512 768 l 1,21,-1
 640 768 l 1,22,-1
 640 512 l 1,23,-1
 512 512 l 1,20,-1
128 768 m 1,24,-1
 128 896 l 1,25,-1
 512 896 l 1,26,-1
 512 768 l 1,27,-1
 128 768 l 1,24,-1
EndSplineSet
Validated: 5
EndChar

StartChar: three
Encoding: 51 51 22
Width: 768
GlyphClass: 2
Flags: W
LayerCount: 2
Fore
SplineSet
128 0 m 1,0,-1
 128 128 l 1,1,-1
 512 128 l 1,2,-1
 512 0 l 1,3,-1
 128 0 l 1,0,-1
0 128 m 1,4,-1
 0 256 l 1,5,-1
 128 256 l 1,6,-1
 128 128 l 1,7,-1
 0 128 l 1,4,-1
512 128 m 1,8,-1
 512 384 l 1,9,-1
 640 384 l 1,10,-1
 640 128 l 1,11,-1
 512 128 l 1,8,-1
384 384 m 1,12,-1
 384 512 l 1,13,-1
 512 512 l 1,14,-1
 512 384 l 1,15,-1
 384 384 l 1,12,-1
256 512 m 1,16,-1
 256 640 l 1,17,-1
 384 640 l 1,18,-1
 384 512 l 1,19,-1
 256 512 l 1,16,-1
384 640 m 1,20,-1
 384 768 l 1,21,-1
 0 768 l 1,22,-1
 0 896 l 1,23,-1
 640 896 l 1,24,-1
 640 768 l 1,25,-1
 512 768 l 1,26,-1
 512 640 l 1,27,-1
 384 640 l 1,20,-1
EndSplineSet
Validated: 5
EndChar

StartChar: four
Encoding: 52 52 23
Width: 768
GlyphClass: 2
Flags: W
LayerCount: 2
Fore
SplineSet
128 512 m 1,0,-1
 128 640 l 1,1,-1
 256 640 l 1,2,-1
 256 512 l 1,3,-1
 128 512 l 1,0,-1
384 0 m 1,4,-1
 384 256 l 1,5,-1
 0 256 l 1,6,-1
 0 512 l 1,7,-1
 128 512 l 1,8,-1
 128 384 l 1,9,-1
 384 384 l 1,10,-1
 384 640 l 1,11,-1
 256 640 l 1,12,-1
 256 768 l 1,13,-1
 384 768 l 1,14,-1
 384 896 l 1,15,-1
 512 896 l 1,16,-1
 512 384 l 1,17,-1
 640 384 l 1,18,-1
 640 256 l 1,19,-1
 512 256 l 1,20,-1
 512 0 l 1,21,-1
 384 0 l 1,4,-1
EndSplineSet
Validated: 5
EndChar

StartChar: five
Encoding: 53 53 24
Width: 768
GlyphClass: 2
Flags: W
LayerCount: 2
Fore
SplineSet
128 0 m 1,0,-1
 128 128 l 1,1,-1
 512 128 l 1,2,-1
 512 0 l 1,3,-1
 128 0 l 1,0,-1
0 128 m 1,4,-1
 0 256 l 1,5,-1
 128 256 l 1,6,-1
 128 128 l 1,7,-1
 0 128 l 1,4,-1
512 128 m 1,8,-1
 512 512 l 1,9,-1
 640 512 l 1,10,-1
 640 128 l 1,11,-1
 512 128 l 1,8,-1
0 512 m 1,12,-1
 0 896 l 1,13,-1
 640 896 l 1,14,-1
 640 768 l 1,15,-1
 128 768 l 1,16,-1
 128 640 l 1,17,-1
 512 640 l 1,18,-1
 512 512 l 1,19,-1
 0 512 l 1,12,-1
EndSplineSet
Validated: 5
EndChar

StartChar: six
Encoding: 54 54 25
Width: 768
GlyphClass: 2
Flags: W
LayerCount: 2
Fore
SplineSet
128 0 m 1,0,-1
 128 128 l 1,1,-1
 512 128 l 1,2,-1
 512 0 l 1,3,-1
 128 0 l 1,0,-1
512 128 m 1,4,-1
 512 384 l 1,5,-1
 640 384 l 1,6,-1
 640 128 l 1,7,-1
 512 128 l 1,4,-1
0 128 m 1,8,-1
 0 640 l 1,9,-1
 128 640 l 1,10,-1
 128 512 l 1,11,-1
 512 512 l 1,12,-1
 512 384 l 1,13,-1
 128 384 l 1,14,-1
 128 128 l 1,15,-1
 0 128 l 1,8,-1
128 640 m 1,16,-1
 128 768 l 1,17,-1
 256 768 l 1,18,-1
 256 640 l 1,19,-1
 128 640 l 1,16,-1
256 768 m 1,20,-1
 256 896 l 1,21,-1
 512 896 l 1,22,-1
 512 768 l 1,23,-1
 256 768 l 1,20,-1
EndSplineSet
Validated: 5
EndChar

StartChar: seven
Encoding: 55 55 26
Width: 768
GlyphClass: 2
Flags: W
LayerCount: 2
Fore
SplineSet
128 0 m 1,0,-1
 128 384 l 1,1,-1
 256 384 l 1,2,-1
 256 0 l 1,3,-1
 128 0 l 1,0,-1
256 384 m 1,4,-1
 256 512 l 1,5,-1
 384 512 l 1,6,-1
 384 384 l 1,7,-1
 256 384 l 1,4,-1
384 512 m 1,8,-1
 384 640 l 1,9,-1
 512 640 l 1,10,-1
 512 512 l 1,11,-1
 384 512 l 1,8,-1
512 640 m 1,12,-1
 512 768 l 1,13,-1
 0 768 l 1,14,-1
 0 896 l 1,15,-1
 640 896 l 1,16,-1
 640 640 l 1,17,-1
 512 640 l 1,12,-1
EndSplineSet
Validated: 5
EndChar

StartChar: eight
Encoding: 56 56 27
Width: 768
GlyphClass: 2
Flags: W
LayerCount: 2
Fore
SplineSet
128 0 m 1,0,-1
 128 128 l 1,1,-1
 512 128 l 1,2,-1
 512 0 l 1,3,-1
 128 0 l 1,0,-1
0 128 m 1,4,-1
 0 384 l 1,5,-1
 128 384 l 1,6,-1
 128 128 l 1,7,-1
 0 128 l 1,4,-1
512 128 m 1,8,-1
 512 384 l 1,9,-1
 640 384 l 1,10,-1
 640 128 l 1,11,-1
 512 128 l 1,8,-1
128 384 m 1,12,-1
 128 512 l 1,13,-1
 512 512 l 1,14,-1
 512 384 l 1,15,-1
 128 384 l 1,12,-1
0 512 m 1,16,-1
 0 768 l 1,17,-1
 128 768 l 1,18,-1
 128 512 l 1,19,-1
 0 512 l 1,16,-1
512 512 m 1,20,-1
 512 768 l 1,21,-1
 640 768 l 1,22,-1
 640 512 l 1,23,-1
 512 512 l 1,20,-1
128 768 m 1,24,-1
 128 896 l 1,25,-1
 512 896 l 1,26,-1
 512 768 l 1,27,-1
 128 768 l 1,24,-1
EndSplineSet
Validated: 5
EndChar

StartChar: nine
Encoding: 57 57 28
Width: 768
GlyphClass: 2
Flags: W
LayerCount: 2
Fore
SplineSet
128 0 m 1,0,-1
 128 128 l 1,1,-1
 384 128 l 1,2,-1
 384 0 l 1,3,-1
 128 0 l 1,0,-1
384 128 m 1,4,-1
 384 256 l 1,5,-1
 512 256 l 1,6,-1
 512 128 l 1,7,-1
 384 128 l 1,4,-1
0 512 m 1,8,-1
 0 768 l 1,9,-1
 128 768 l 1,10,-1
 128 512 l 1,11,-1
 0 512 l 1,8,-1
512 256 m 1,12,-1
 512 384 l 1,13,-1
 128 384 l 1,14,-1
 128 512 l 1,15,-1
 512 512 l 1,16,-1
 512 768 l 1,17,-1
 640 768 l 1,18,-1
 640 256 l 1,19,-1
 512 256 l 1,12,-1
128 768 m 1,20,-1
 128 896 l 1,21,-1
 512 896 l 1,22,-1
 512 768 l 1,23,-1
 128 768 l 1,20,-1
EndSplineSet
Validated: 5
EndChar

StartChar: colon
Encoding: 58 58 29
Width: 768
GlyphClass: 2
Flags: W
LayerCount: 2
Fore
SplineSet
256 128 m 5,0,-1
 256 256 l 5,1,-1
 384 256 l 5,2,-1
 384 128 l 5,3,-1
 256 128 l 5,0,-1
256 640 m 5,4,-1
 256 768 l 5,5,-1
 384 768 l 5,6,-1
 384 640 l 5,7,-1
 256 640 l 5,4,-1
EndSplineSet
Validated: 1
EndChar

StartChar: semicolon
Encoding: 59 59 30
Width: 768
GlyphClass: 2
Flags: W
LayerCount: 2
Fore
SplineSet
256 0 m 5,0,-1
 256 128 l 5,1,-1
 128 128 l 5,2,-1
 128 256 l 5,3,-1
 384 256 l 5,4,-1
 384 0 l 5,5,-1
 256 0 l 5,0,-1
256 640 m 5,6,-1
 256 768 l 5,7,-1
 384 768 l 5,8,-1
 384 640 l 5,9,-1
 256 640 l 5,6,-1
EndSplineSet
Validated: 1
EndChar

StartChar: less
Encoding: 60 60 31
Width: 768
GlyphClass: 2
Flags: W
LayerCount: 2
Fore
SplineSet
384 0 m 1,0,-1
 384 128 l 1,1,-1
 512 128 l 1,2,-1
 512 0 l 1,3,-1
 384 0 l 1,0,-1
256 128 m 1,4,-1
 256 256 l 1,5,-1
 384 256 l 1,6,-1
 384 128 l 1,7,-1
 256 128 l 1,4,-1
128 256 m 1,8,-1
 128 384 l 1,9,-1
 256 384 l 1,10,-1
 256 256 l 1,11,-1
 128 256 l 1,8,-1
0 384 m 1,12,-1
 0 512 l 1,13,-1
 128 512 l 1,14,-1
 128 384 l 1,15,-1
 0 384 l 1,12,-1
128 512 m 1,16,-1
 128 640 l 1,17,-1
 256 640 l 1,18,-1
 256 512 l 1,19,-1
 128 512 l 1,16,-1
256 640 m 1,20,-1
 256 768 l 1,21,-1
 384 768 l 1,22,-1
 384 640 l 1,23,-1
 256 640 l 1,20,-1
384 768 m 1,24,-1
 384 896 l 1,25,-1
 512 896 l 1,26,-1
 512 768 l 1,27,-1
 384 768 l 1,24,-1
EndSplineSet
Validated: 5
EndChar

StartChar: equal
Encoding: 61 61 32
Width: 768
GlyphClass: 2
Flags: W
LayerCount: 2
Fore
SplineSet
0 256 m 1,0,-1
 0 384 l 1,1,-1
 640 384 l 1,2,-1
 640 256 l 1,3,-1
 0 256 l 1,0,-1
0 512 m 1,4,-1
 0 640 l 1,5,-1
 640 640 l 1,6,-1
 640 512 l 1,7,-1
 0 512 l 1,4,-1
EndSplineSet
Validated: 1
EndChar

StartChar: greater
Encoding: 62 62 33
Width: 768
GlyphClass: 2
Flags: W
LayerCount: 2
Fore
SplineSet
0 0 m 1,0,-1
 0 128 l 1,1,-1
 128 128 l 1,2,-1
 128 0 l 1,3,-1
 0 0 l 1,0,-1
128 128 m 1,4,-1
 128 256 l 1,5,-1
 256 256 l 1,6,-1
 256 128 l 1,7,-1
 128 128 l 1,4,-1
256 256 m 1,8,-1
 256 384 l 1,9,-1
 384 384 l 1,10,-1
 384 256 l 1,11,-1
 256 256 l 1,8,-1
384 384 m 1,12,-1
 384 512 l 1,13,-1
 512 512 l 1,14,-1
 512 384 l 1,15,-1
 384 384 l 1,12,-1
256 512 m 1,16,-1
 256 640 l 1,17,-1
 384 640 l 1,18,-1
 384 512 l 1,19,-1
 256 512 l 1,16,-1
128 640 m 1,20,-1
 128 768 l 1,21,-1
 256 768 l 1,22,-1
 256 640 l 1,23,-1
 128 640 l 1,20,-1
0 768 m 1,24,-1
 0 896 l 1,25,-1
 128 896 l 1,26,-1
 128 768 l 1,27,-1
 0 768 l 1,24,-1
EndSplineSet
Validated: 5
EndChar

StartChar: question
Encoding: 63 63 34
Width: 768
GlyphClass: 2
Flags: W
LayerCount: 2
Fore
SplineSet
128 0 m 1,0,-1
 128 128 l 1,1,-1
 256 128 l 1,2,-1
 256 0 l 1,3,-1
 128 0 l 1,0,-1
128 256 m 1,4,-1
 128 384 l 1,5,-1
 256 384 l 1,6,-1
 256 256 l 1,7,-1
 128 256 l 1,4,-1
256 384 m 1,8,-1
 256 512 l 1,9,-1
 384 512 l 1,10,-1
 384 384 l 1,11,-1
 256 384 l 1,8,-1
0 640 m 1,12,-1
 0 768 l 1,13,-1
 128 768 l 1,14,-1
 128 640 l 1,15,-1
 0 640 l 1,12,-1
384 512 m 1,16,-1
 384 768 l 1,17,-1
 512 768 l 1,18,-1
 512 512 l 1,19,-1
 384 512 l 1,16,-1
128 768 m 1,20,-1
 128 896 l 1,21,-1
 384 896 l 1,22,-1
 384 768 l 1,23,-1
 128 768 l 1,20,-1
EndSplineSet
Validated: 5
EndChar

StartChar: at
Encoding: 64 64 35
Width: 768
GlyphClass: 2
Flags: W
LayerCount: 2
Fore
SplineSet
128 0 m 1,0,-1
 128 128 l 1,1,-1
 768 128 l 1,2,-1
 768 0 l 1,3,-1
 128 0 l 1,0,-1
512 384 m 1,4,-1
 512 512 l 1,5,-1
 384 512 l 1,6,-1
 384 384 l 1,7,-1
 512 384 l 1,4,-1
0 128 m 1,8,-1
 0 768 l 1,9,-1
 128 768 l 1,10,-1
 128 128 l 1,11,-1
 0 128 l 1,8,-1
256 256 m 1,12,-1
 256 640 l 1,13,-1
 640 640 l 1,14,-1
 640 384 l 1,15,-1
 768 384 l 1,16,-1
 768 768 l 1,17,-1
 896 768 l 1,18,-1
 896 256 l 1,19,-1
 256 256 l 1,12,-1
128 768 m 1,20,-1
 128 896 l 1,21,-1
 768 896 l 1,22,-1
 768 768 l 1,23,-1
 128 768 l 1,20,-1
EndSplineSet
Validated: 5
EndChar

StartChar: A
Encoding: 65 65 36
Width: 768
GlyphClass: 2
Flags: W
LayerCount: 2
Fore
SplineSet
0 0 m 1,0,-1
 0 768 l 1,1,-1
 128 768 l 1,2,-1
 128 512 l 1,3,-1
 512 512 l 1,4,-1
 512 768 l 1,5,-1
 640 768 l 1,6,-1
 640 0 l 1,7,-1
 512 0 l 1,8,-1
 512 384 l 1,9,-1
 128 384 l 1,10,-1
 128 0 l 1,11,-1
 0 0 l 1,0,-1
128 768 m 1,12,-1
 128 896 l 1,13,-1
 512 896 l 1,14,-1
 512 768 l 1,15,-1
 128 768 l 1,12,-1
EndSplineSet
Validated: 5
EndChar

StartChar: B
Encoding: 66 66 37
Width: 768
GlyphClass: 2
Flags: W
LayerCount: 2
Fore
SplineSet
512 128 m 1,0,-1
 512 384 l 1,1,-1
 640 384 l 1,2,-1
 640 128 l 1,3,-1
 512 128 l 1,0,-1
512 512 m 1,4,-1
 512 768 l 1,5,-1
 640 768 l 1,6,-1
 640 512 l 1,7,-1
 512 512 l 1,4,-1
0 0 m 1,8,-1
 0 896 l 1,9,-1
 512 896 l 1,10,-1
 512 768 l 1,11,-1
 128 768 l 1,12,-1
 128 512 l 1,13,-1
 512 512 l 1,14,-1
 512 384 l 1,15,-1
 128 384 l 1,16,-1
 128 128 l 1,17,-1
 512 128 l 1,18,-1
 512 0 l 1,19,-1
 0 0 l 1,8,-1
EndSplineSet
Validated: 5
EndChar

StartChar: C
Encoding: 67 67 38
Width: 768
GlyphClass: 2
Flags: W
LayerCount: 2
Fore
SplineSet
128 0 m 1,0,-1
 128 128 l 1,1,-1
 512 128 l 1,2,-1
 512 0 l 1,3,-1
 128 0 l 1,0,-1
512 128 m 1,4,-1
 512 256 l 1,5,-1
 640 256 l 1,6,-1
 640 128 l 1,7,-1
 512 128 l 1,4,-1
0 128 m 1,8,-1
 0 768 l 1,9,-1
 128 768 l 1,10,-1
 128 128 l 1,11,-1
 0 128 l 1,8,-1
512 640 m 1,12,-1
 512 768 l 1,13,-1
 640 768 l 1,14,-1
 640 640 l 1,15,-1
 512 640 l 1,12,-1
128 768 m 1,16,-1
 128 896 l 1,17,-1
 512 896 l 1,18,-1
 512 768 l 1,19,-1
 128 768 l 1,16,-1
EndSplineSet
Validated: 5
EndChar

StartChar: D
Encoding: 68 68 39
Width: 768
GlyphClass: 2
Flags: W
LayerCount: 2
Fore
SplineSet
512 128 m 1,0,-1
 512 768 l 1,1,-1
 640 768 l 1,2,-1
 640 128 l 1,3,-1
 512 128 l 1,0,-1
0 0 m 1,4,-1
 0 896 l 1,5,-1
 512 896 l 1,6,-1
 512 768 l 1,7,-1
 128 768 l 1,8,-1
 128 128 l 1,9,-1
 512 128 l 1,10,-1
 512 0 l 1,11,-1
 0 0 l 1,4,-1
EndSplineSet
Validated: 5
EndChar

StartChar: E
Encoding: 69 69 40
Width: 768
GlyphClass: 2
Flags: W
LayerCount: 2
Fore
SplineSet
0 0 m 1,0,-1
 0 896 l 1,1,-1
 640 896 l 1,2,-1
 640 768 l 1,3,-1
 128 768 l 1,4,-1
 128 512 l 1,5,-1
 512 512 l 1,6,-1
 512 384 l 1,7,-1
 128 384 l 1,8,-1
 128 128 l 1,9,-1
 640 128 l 1,10,-1
 640 0 l 1,11,-1
 0 0 l 1,0,-1
EndSplineSet
Validated: 1
EndChar

StartChar: F
Encoding: 70 70 41
Width: 768
GlyphClass: 2
Flags: W
LayerCount: 2
Fore
SplineSet
0 0 m 1,0,-1
 0 896 l 1,1,-1
 640 896 l 1,2,-1
 640 768 l 1,3,-1
 128 768 l 1,4,-1
 128 512 l 1,5,-1
 512 512 l 1,6,-1
 512 384 l 1,7,-1
 128 384 l 1,8,-1
 128 0 l 1,9,-1
 0 0 l 1,0,-1
EndSplineSet
Validated: 1
EndChar

StartChar: G
Encoding: 71 71 42
Width: 768
GlyphClass: 2
Flags: W
LayerCount: 2
Fore
SplineSet
128 0 m 1,0,-1
 128 128 l 1,1,-1
 512 128 l 1,2,-1
 512 384 l 1,3,-1
 256 384 l 1,4,-1
 256 512 l 1,5,-1
 640 512 l 1,6,-1
 640 0 l 1,7,-1
 128 0 l 1,0,-1
0 128 m 1,8,-1
 0 768 l 1,9,-1
 128 768 l 1,10,-1
 128 128 l 1,11,-1
 0 128 l 1,8,-1
512 640 m 1,12,-1
 512 768 l 1,13,-1
 640 768 l 1,14,-1
 640 640 l 1,15,-1
 512 640 l 1,12,-1
128 768 m 1,16,-1
 128 896 l 1,17,-1
 512 896 l 1,18,-1
 512 768 l 1,19,-1
 128 768 l 1,16,-1
EndSplineSet
Validated: 5
EndChar

StartChar: H
Encoding: 72 72 43
Width: 768
GlyphClass: 2
Flags: W
LayerCount: 2
Fore
SplineSet
0 0 m 1,0,-1
 0 896 l 1,1,-1
 128 896 l 1,2,-1
 128 512 l 1,3,-1
 512 512 l 1,4,-1
 512 896 l 1,5,-1
 640 896 l 1,6,-1
 640 0 l 1,7,-1
 512 0 l 1,8,-1
 512 384 l 1,9,-1
 128 384 l 1,10,-1
 128 0 l 1,11,-1
 0 0 l 1,0,-1
EndSplineSet
Validated: 1
EndChar

StartChar: I
Encoding: 73 73 44
Width: 768
GlyphClass: 2
Flags: W
LayerCount: 2
Fore
SplineSet
128 0 m 5,0,-1
 128 128 l 5,1,-1
 256 128 l 5,2,-1
 256 768 l 5,3,-1
 128 768 l 5,4,-1
 128 896 l 5,5,-1
 512 896 l 5,6,-1
 512 768 l 5,7,-1
 384 768 l 5,8,-1
 384 128 l 5,9,-1
 512 128 l 5,10,-1
 512 0 l 5,11,-1
 128 0 l 5,0,-1
EndSplineSet
Validated: 1
EndChar

StartChar: J
Encoding: 74 74 45
Width: 768
GlyphClass: 2
Flags: W
LayerCount: 2
Fore
SplineSet
128 0 m 1,0,-1
 128 128 l 1,1,-1
 384 128 l 1,2,-1
 384 0 l 1,3,-1
 128 0 l 1,0,-1
0 128 m 1,4,-1
 0 256 l 1,5,-1
 128 256 l 1,6,-1
 128 128 l 1,7,-1
 0 128 l 1,4,-1
384 128 m 1,8,-1
 384 768 l 1,9,-1
 256 768 l 1,10,-1
 256 896 l 1,11,-1
 640 896 l 1,12,-1
 640 768 l 1,13,-1
 512 768 l 1,14,-1
 512 128 l 1,15,-1
 384 128 l 1,8,-1
EndSplineSet
Validated: 5
EndChar

StartChar: K
Encoding: 75 75 46
Width: 768
GlyphClass: 2
Flags: W
LayerCount: 2
Fore
SplineSet
512 0 m 1,0,-1
 512 128 l 1,1,-1
 640 128 l 1,2,-1
 640 0 l 1,3,-1
 512 0 l 1,0,-1
384 128 m 1,4,-1
 384 256 l 1,5,-1
 512 256 l 1,6,-1
 512 128 l 1,7,-1
 384 128 l 1,4,-1
256 256 m 1,8,-1
 256 384 l 1,9,-1
 384 384 l 1,10,-1
 384 256 l 1,11,-1
 256 256 l 1,8,-1
256 512 m 1,12,-1
 256 640 l 1,13,-1
 384 640 l 1,14,-1
 384 512 l 1,15,-1
 256 512 l 1,12,-1
384 640 m 1,16,-1
 384 768 l 1,17,-1
 512 768 l 1,18,-1
 512 640 l 1,19,-1
 384 640 l 1,16,-1
0 0 m 1,20,-1
 0 896 l 1,21,-1
 128 896 l 1,22,-1
 128 512 l 1,23,-1
 256 512 l 1,24,-1
 256 384 l 1,25,-1
 128 384 l 1,26,-1
 128 0 l 1,27,-1
 0 0 l 1,20,-1
512 768 m 1,28,-1
 512 896 l 1,29,-1
 640 896 l 1,30,-1
 640 768 l 1,31,-1
 512 768 l 1,28,-1
EndSplineSet
Validated: 5
EndChar

StartChar: L
Encoding: 76 76 47
Width: 768
GlyphClass: 2
Flags: W
LayerCount: 2
Fore
SplineSet
0 0 m 1,0,-1
 0 896 l 1,1,-1
 128 896 l 1,2,-1
 128 128 l 1,3,-1
 640 128 l 1,4,-1
 640 0 l 1,5,-1
 0 0 l 1,0,-1
EndSplineSet
Validated: 1
EndChar

StartChar: M
Encoding: 77 77 48
Width: 768
GlyphClass: 2
Flags: W
LayerCount: 2
Fore
SplineSet
256 384 m 1,0,-1
 256 640 l 1,1,-1
 384 640 l 1,2,-1
 384 384 l 1,3,-1
 256 384 l 1,0,-1
0 0 m 1,4,-1
 0 896 l 1,5,-1
 128 896 l 1,6,-1
 128 768 l 1,7,-1
 256 768 l 1,8,-1
 256 640 l 1,9,-1
 128 640 l 1,10,-1
 128 0 l 1,11,-1
 0 0 l 1,4,-1
512 0 m 1,12,-1
 512 640 l 1,13,-1
 384 640 l 1,14,-1
 384 768 l 1,15,-1
 512 768 l 1,16,-1
 512 896 l 1,17,-1
 640 896 l 1,18,-1
 640 0 l 1,19,-1
 512 0 l 1,12,-1
EndSplineSet
Validated: 5
EndChar

StartChar: N
Encoding: 78 78 49
Width: 768
GlyphClass: 2
Flags: W
LayerCount: 2
Fore
SplineSet
256 384 m 1,0,-1
 256 512 l 1,1,-1
 384 512 l 1,2,-1
 384 384 l 1,3,-1
 256 384 l 1,0,-1
0 0 m 1,4,-1
 0 896 l 1,5,-1
 128 896 l 1,6,-1
 128 640 l 1,7,-1
 256 640 l 1,8,-1
 256 512 l 1,9,-1
 128 512 l 1,10,-1
 128 0 l 1,11,-1
 0 0 l 1,4,-1
512 0 m 1,12,-1
 512 256 l 1,13,-1
 384 256 l 1,14,-1
 384 384 l 1,15,-1
 512 384 l 1,16,-1
 512 896 l 1,17,-1
 640 896 l 1,18,-1
 640 0 l 1,19,-1
 512 0 l 1,12,-1
EndSplineSet
Validated: 5
EndChar

StartChar: O
Encoding: 79 79 50
Width: 768
GlyphClass: 2
Flags: W
LayerCount: 2
Fore
SplineSet
128 0 m 1,0,-1
 128 128 l 1,1,-1
 512 128 l 1,2,-1
 512 0 l 1,3,-1
 128 0 l 1,0,-1
0 128 m 1,4,-1
 0 768 l 1,5,-1
 128 768 l 1,6,-1
 128 128 l 1,7,-1
 0 128 l 1,4,-1
512 128 m 1,8,-1
 512 768 l 1,9,-1
 640 768 l 1,10,-1
 640 128 l 1,11,-1
 512 128 l 1,8,-1
128 768 m 1,12,-1
 128 896 l 1,13,-1
 512 896 l 1,14,-1
 512 768 l 1,15,-1
 128 768 l 1,12,-1
EndSplineSet
Validated: 5
EndChar

StartChar: P
Encoding: 80 80 51
Width: 768
GlyphClass: 2
Flags: W
LayerCount: 2
Fore
SplineSet
512 512 m 1,0,-1
 512 768 l 1,1,-1
 640 768 l 1,2,-1
 640 512 l 1,3,-1
 512 512 l 1,0,-1
0 0 m 1,4,-1
 0 896 l 1,5,-1
 512 896 l 1,6,-1
 512 768 l 1,7,-1
 128 768 l 1,8,-1
 128 512 l 1,9,-1
 512 512 l 1,10,-1
 512 384 l 1,11,-1
 128 384 l 1,12,-1
 128 0 l 1,13,-1
 0 0 l 1,4,-1
EndSplineSet
Validated: 5
EndChar

StartChar: Q
Encoding: 81 81 52
Width: 768
GlyphClass: 2
Flags: W
LayerCount: 2
Fore
SplineSet
128 0 m 1,0,-1
 128 128 l 1,1,-1
 384 128 l 1,2,-1
 384 0 l 1,3,-1
 128 0 l 1,0,-1
512 0 m 1,4,-1
 512 128 l 1,5,-1
 640 128 l 1,6,-1
 640 0 l 1,7,-1
 512 0 l 1,4,-1
384 128 m 1,8,-1
 384 256 l 1,9,-1
 512 256 l 1,10,-1
 512 128 l 1,11,-1
 384 128 l 1,8,-1
256 256 m 1,12,-1
 256 384 l 1,13,-1
 384 384 l 1,14,-1
 384 256 l 1,15,-1
 256 256 l 1,12,-1
0 128 m 1,16,-1
 0 768 l 1,17,-1
 128 768 l 1,18,-1
 128 128 l 1,19,-1
 0 128 l 1,16,-1
512 256 m 1,20,-1
 512 768 l 1,21,-1
 640 768 l 1,22,-1
 640 256 l 1,23,-1
 512 256 l 1,20,-1
128 768 m 1,24,-1
 128 896 l 1,25,-1
 512 896 l 1,26,-1
 512 768 l 1,27,-1
 128 768 l 1,24,-1
EndSplineSet
Validated: 5
EndChar

StartChar: R
Encoding: 82 82 53
Width: 768
GlyphClass: 2
Flags: W
LayerCount: 2
Fore
SplineSet
512 0 m 1,0,-1
 512 128 l 1,1,-1
 640 128 l 1,2,-1
 640 0 l 1,3,-1
 512 0 l 1,0,-1
384 128 m 1,4,-1
 384 256 l 1,5,-1
 512 256 l 1,6,-1
 512 128 l 1,7,-1
 384 128 l 1,4,-1
512 512 m 1,8,-1
 512 768 l 1,9,-1
 640 768 l 1,10,-1
 640 512 l 1,11,-1
 512 512 l 1,8,-1
0 0 m 1,12,-1
 0 896 l 1,13,-1
 512 896 l 1,14,-1
 512 768 l 1,15,-1
 128 768 l 1,16,-1
 128 512 l 1,17,-1
 512 512 l 1,18,-1
 512 384 l 1,19,-1
 384 384 l 1,20,-1
 384 256 l 1,21,-1
 256 256 l 1,22,-1
 256 384 l 1,23,-1
 128 384 l 1,24,-1
 128 0 l 1,25,-1
 0 0 l 1,12,-1
EndSplineSet
Validated: 5
EndChar

StartChar: S
Encoding: 83 83 54
Width: 768
GlyphClass: 2
Flags: W
LayerCount: 2
Fore
SplineSet
0 0 m 1,0,-1
 0 128 l 1,1,-1
 512 128 l 1,2,-1
 512 0 l 1,3,-1
 0 0 l 1,0,-1
512 128 m 1,4,-1
 512 384 l 1,5,-1
 640 384 l 1,6,-1
 640 128 l 1,7,-1
 512 128 l 1,4,-1
128 384 m 1,8,-1
 128 512 l 1,9,-1
 512 512 l 1,10,-1
 512 384 l 1,11,-1
 128 384 l 1,8,-1
0 512 m 1,12,-1
 0 768 l 1,13,-1
 128 768 l 1,14,-1
 128 512 l 1,15,-1
 0 512 l 1,12,-1
128 768 m 1,16,-1
 128 896 l 1,17,-1
 640 896 l 1,18,-1
 640 768 l 1,19,-1
 128 768 l 1,16,-1
EndSplineSet
Validated: 5
EndChar

StartChar: T
Encoding: 84 84 55
Width: 768
GlyphClass: 2
Flags: W
LayerCount: 2
Fore
SplineSet
256 0 m 1,0,-1
 256 768 l 1,1,-1
 0 768 l 1,2,-1
 0 896 l 1,3,-1
 640 896 l 1,4,-1
 640 768 l 1,5,-1
 384 768 l 1,6,-1
 384 0 l 1,7,-1
 256 0 l 1,0,-1
EndSplineSet
Validated: 1
EndChar

StartChar: U
Encoding: 85 85 56
Width: 768
GlyphClass: 2
Flags: W
LayerCount: 2
Fore
SplineSet
128 0 m 1,0,-1
 128 128 l 1,1,-1
 512 128 l 1,2,-1
 512 0 l 1,3,-1
 128 0 l 1,0,-1
0 128 m 1,4,-1
 0 896 l 1,5,-1
 128 896 l 1,6,-1
 128 128 l 1,7,-1
 0 128 l 1,4,-1
512 128 m 1,8,-1
 512 896 l 1,9,-1
 640 896 l 1,10,-1
 640 128 l 1,11,-1
 512 128 l 1,8,-1
EndSplineSet
Validated: 5
EndChar

StartChar: V
Encoding: 86 86 57
Width: 768
GlyphClass: 2
Flags: W
LayerCount: 2
Fore
SplineSet
256 0 m 1,0,-1
 256 128 l 1,1,-1
 384 128 l 1,2,-1
 384 0 l 1,3,-1
 256 0 l 1,0,-1
128 128 m 1,4,-1
 128 384 l 1,5,-1
 256 384 l 1,6,-1
 256 128 l 1,7,-1
 128 128 l 1,4,-1
384 128 m 1,8,-1
 384 384 l 1,9,-1
 512 384 l 1,10,-1
 512 128 l 1,11,-1
 384 128 l 1,8,-1
0 384 m 1,12,-1
 0 896 l 1,13,-1
 128 896 l 1,14,-1
 128 384 l 1,15,-1
 0 384 l 1,12,-1
512 384 m 1,16,-1
 512 896 l 1,17,-1
 640 896 l 1,18,-1
 640 384 l 1,19,-1
 512 384 l 1,16,-1
EndSplineSet
Validated: 5
EndChar

StartChar: W
Encoding: 87 87 58
Width: 768
GlyphClass: 2
Flags: W
LayerCount: 2
Fore
SplineSet
128 0 m 1,0,-1
 128 128 l 1,1,-1
 256 128 l 1,2,-1
 256 0 l 1,3,-1
 128 0 l 1,0,-1
384 0 m 1,4,-1
 384 128 l 1,5,-1
 512 128 l 1,6,-1
 512 0 l 1,7,-1
 384 0 l 1,4,-1
256 128 m 1,8,-1
 256 512 l 1,9,-1
 384 512 l 1,10,-1
 384 128 l 1,11,-1
 256 128 l 1,8,-1
0 128 m 1,12,-1
 0 896 l 1,13,-1
 128 896 l 1,14,-1
 128 128 l 1,15,-1
 0 128 l 1,12,-1
512 128 m 1,16,-1
 512 896 l 1,17,-1
 640 896 l 1,18,-1
 640 128 l 1,19,-1
 512 128 l 1,16,-1
EndSplineSet
Validated: 5
EndChar

StartChar: X
Encoding: 88 88 59
Width: 768
GlyphClass: 2
Flags: W
LayerCount: 2
Fore
SplineSet
0 0 m 1,0,-1
 0 256 l 1,1,-1
 128 256 l 1,2,-1
 128 0 l 1,3,-1
 0 0 l 1,0,-1
512 0 m 1,4,-1
 512 256 l 1,5,-1
 640 256 l 1,6,-1
 640 0 l 1,7,-1
 512 0 l 1,4,-1
128 256 m 1,8,-1
 128 384 l 1,9,-1
 256 384 l 1,10,-1
 256 256 l 1,11,-1
 128 256 l 1,8,-1
384 256 m 1,12,-1
 384 384 l 1,13,-1
 512 384 l 1,14,-1
 512 256 l 1,15,-1
 384 256 l 1,12,-1
256 384 m 1,16,-1
 256 512 l 1,17,-1
 384 512 l 1,18,-1
 384 384 l 1,19,-1
 256 384 l 1,16,-1
128 512 m 1,20,-1
 128 640 l 1,21,-1
 256 640 l 1,22,-1
 256 512 l 1,23,-1
 128 512 l 1,20,-1
384 512 m 1,24,-1
 384 640 l 1,25,-1
 512 640 l 1,26,-1
 512 512 l 1,27,-1
 384 512 l 1,24,-1
0 640 m 1,28,-1
 0 896 l 1,29,-1
 128 896 l 1,30,-1
 128 640 l 1,31,-1
 0 640 l 1,28,-1
512 640 m 1,32,-1
 512 896 l 1,33,-1
 640 896 l 1,34,-1
 640 640 l 1,35,-1
 512 640 l 1,32,-1
EndSplineSet
Validated: 5
EndChar

StartChar: Y
Encoding: 89 89 60
Width: 768
GlyphClass: 2
Flags: W
LayerCount: 2
Fore
SplineSet
256 0 m 1,0,-1
 256 384 l 1,1,-1
 384 384 l 1,2,-1
 384 0 l 1,3,-1
 256 0 l 1,0,-1
128 384 m 1,4,-1
 128 512 l 1,5,-1
 256 512 l 1,6,-1
 256 384 l 1,7,-1
 128 384 l 1,4,-1
384 384 m 1,8,-1
 384 512 l 1,9,-1
 512 512 l 1,10,-1
 512 384 l 1,11,-1
 384 384 l 1,8,-1
0 512 m 1,12,-1
 0 896 l 1,13,-1
 128 896 l 1,14,-1
 128 512 l 1,15,-1
 0 512 l 1,12,-1
512 512 m 1,16,-1
 512 896 l 1,17,-1
 640 896 l 1,18,-1
 640 512 l 1,19,-1
 512 512 l 1,16,-1
EndSplineSet
Validated: 5
EndChar

StartChar: Z
Encoding: 90 90 61
Width: 768
GlyphClass: 2
Flags: W
LayerCount: 2
Fore
SplineSet
0 0 m 1,0,-1
 0 256 l 1,1,-1
 128 256 l 1,2,-1
 128 128 l 1,3,-1
 640 128 l 1,4,-1
 640 0 l 1,5,-1
 0 0 l 1,0,-1
128 256 m 1,6,-1
 128 384 l 1,7,-1
 256 384 l 1,8,-1
 256 256 l 1,9,-1
 128 256 l 1,6,-1
256 384 m 1,10,-1
 256 512 l 1,11,-1
 384 512 l 1,12,-1
 384 384 l 1,13,-1
 256 384 l 1,10,-1
384 512 m 1,14,-1
 384 640 l 1,15,-1
 512 640 l 1,16,-1
 512 512 l 1,17,-1
 384 512 l 1,14,-1
512 640 m 1,18,-1
 512 768 l 1,19,-1
 0 768 l 1,20,-1
 0 896 l 1,21,-1
 640 896 l 1,22,-1
 640 640 l 1,23,-1
 512 640 l 1,18,-1
EndSplineSet
Validated: 5
EndChar

StartChar: bracketleft
Encoding: 91 91 62
Width: 768
GlyphClass: 2
Flags: W
LayerCount: 2
Fore
SplineSet
128 0 m 5,0,-1
 128 896 l 5,1,-1
 384 896 l 5,2,-1
 384 768 l 5,3,-1
 256 768 l 5,4,-1
 256 128 l 5,5,-1
 384 128 l 5,6,-1
 384 0 l 5,7,-1
 128 0 l 5,0,-1
EndSplineSet
Validated: 1
EndChar

StartChar: backslash
Encoding: 92 92 63
Width: 768
GlyphClass: 2
Flags: W
LayerCount: 2
Fore
SplineSet
384 0 m 5,0,-1
 384 256 l 5,1,-1
 512 256 l 5,2,-1
 512 0 l 5,3,-1
 384 0 l 5,0,-1
256 256 m 5,4,-1
 256 640 l 5,5,-1
 384 640 l 5,6,-1
 384 256 l 5,7,-1
 256 256 l 5,4,-1
128 640 m 5,8,-1
 128 896 l 5,9,-1
 256 896 l 5,10,-1
 256 640 l 5,11,-1
 128 640 l 5,8,-1
EndSplineSet
Validated: 5
EndChar

StartChar: bracketright
Encoding: 93 93 64
Width: 768
GlyphClass: 2
Flags: W
LayerCount: 2
Fore
SplineSet
128 0 m 5,0,-1
 128 128 l 5,1,-1
 256 128 l 5,2,-1
 256 768 l 5,3,-1
 128 768 l 5,4,-1
 128 896 l 5,5,-1
 384 896 l 5,6,-1
 384 0 l 5,7,-1
 128 0 l 5,0,-1
EndSplineSet
Validated: 1
EndChar

StartChar: asciicircum
Encoding: 94 94 65
Width: 768
GlyphClass: 2
Flags: W
LayerCount: 2
Fore
SplineSet
0 512 m 1,0,-1
 0 640 l 1,1,-1
 128 640 l 1,2,-1
 128 512 l 1,3,-1
 0 512 l 1,0,-1
512 512 m 1,4,-1
 512 640 l 1,5,-1
 640 640 l 1,6,-1
 640 512 l 1,7,-1
 512 512 l 1,4,-1
128 640 m 1,8,-1
 128 768 l 1,9,-1
 256 768 l 1,10,-1
 256 640 l 1,11,-1
 128 640 l 1,8,-1
384 640 m 1,12,-1
 384 768 l 1,13,-1
 512 768 l 1,14,-1
 512 640 l 1,15,-1
 384 640 l 1,12,-1
256 768 m 1,16,-1
 256 896 l 1,17,-1
 384 896 l 1,18,-1
 384 768 l 1,19,-1
 256 768 l 1,16,-1
EndSplineSet
Validated: 5
EndChar

StartChar: underscore
Encoding: 95 95 66
Width: 768
GlyphClass: 2
Flags: W
LayerCount: 2
Fore
SplineSet
0 0 m 1,0,-1
 0 128 l 1,1,-1
 512 128 l 1,2,-1
 512 0 l 1,3,-1
 0 0 l 1,0,-1
EndSplineSet
Validated: 1
EndChar

StartChar: grave
Encoding: 96 96 67
Width: 768
GlyphClass: 2
Flags: W
LayerCount: 2
Fore
SplineSet
256 640 m 5,0,-1
 256 768 l 5,1,-1
 384 768 l 5,2,-1
 384 640 l 5,3,-1
 256 640 l 5,0,-1
128 768 m 5,4,-1
 128 896 l 5,5,-1
 256 896 l 5,6,-1
 256 768 l 5,7,-1
 128 768 l 5,4,-1
EndSplineSet
Validated: 5
EndChar

StartChar: a
Encoding: 97 97 68
Width: 768
GlyphClass: 2
Flags: W
LayerCount: 2
Fore
SplineSet
0 128 m 1,0,-1
 0 256 l 1,1,-1
 128 256 l 1,2,-1
 128 128 l 1,3,-1
 0 128 l 1,0,-1
128 0 m 1,4,-1
 128 128 l 1,5,-1
 512 128 l 1,6,-1
 512 256 l 1,7,-1
 128 256 l 1,8,-1
 128 384 l 1,9,-1
 512 384 l 1,10,-1
 512 512 l 1,11,-1
 640 512 l 1,12,-1
 640 0 l 1,13,-1
 128 0 l 1,4,-1
128 512 m 1,14,-1
 128 640 l 1,15,-1
 512 640 l 1,16,-1
 512 512 l 1,17,-1
 128 512 l 1,14,-1
EndSplineSet
Validated: 5
EndChar

StartChar: b
Encoding: 98 98 69
Width: 768
GlyphClass: 2
Flags: W
LayerCount: 2
Fore
SplineSet
512 128 m 1,0,-1
 512 512 l 1,1,-1
 640 512 l 1,2,-1
 640 128 l 1,3,-1
 512 128 l 1,0,-1
256 512 m 1,4,-1
 256 640 l 1,5,-1
 512 640 l 1,6,-1
 512 512 l 1,7,-1
 256 512 l 1,4,-1
0 0 m 1,8,-1
 0 896 l 1,9,-1
 128 896 l 1,10,-1
 128 512 l 1,11,-1
 256 512 l 1,12,-1
 256 384 l 1,13,-1
 128 384 l 1,14,-1
 128 128 l 1,15,-1
 512 128 l 1,16,-1
 512 0 l 1,17,-1
 0 0 l 1,8,-1
EndSplineSet
Validated: 5
EndChar

StartChar: c
Encoding: 99 99 70
Width: 768
GlyphClass: 2
Flags: W
LayerCount: 2
Fore
SplineSet
128 0 m 1,0,-1
 128 128 l 1,1,-1
 512 128 l 1,2,-1
 512 0 l 1,3,-1
 128 0 l 1,0,-1
512 128 m 1,4,-1
 512 256 l 1,5,-1
 640 256 l 1,6,-1
 640 128 l 1,7,-1
 512 128 l 1,4,-1
0 128 m 1,8,-1
 0 512 l 1,9,-1
 128 512 l 1,10,-1
 128 128 l 1,11,-1
 0 128 l 1,8,-1
128 512 m 1,12,-1
 128 640 l 1,13,-1
 512 640 l 1,14,-1
 512 512 l 1,15,-1
 128 512 l 1,12,-1
EndSplineSet
Validated: 5
EndChar

StartChar: d
Encoding: 100 100 71
Width: 768
GlyphClass: 2
Flags: W
LayerCount: 2
Fore
SplineSet
0 128 m 1,0,-1
 0 512 l 1,1,-1
 128 512 l 1,2,-1
 128 128 l 1,3,-1
 0 128 l 1,0,-1
128 512 m 1,4,-1
 128 640 l 1,5,-1
 384 640 l 1,6,-1
 384 512 l 1,7,-1
 128 512 l 1,4,-1
128 0 m 1,8,-1
 128 128 l 1,9,-1
 512 128 l 1,10,-1
 512 384 l 1,11,-1
 384 384 l 1,12,-1
 384 512 l 1,13,-1
 512 512 l 1,14,-1
 512 896 l 1,15,-1
 640 896 l 1,16,-1
 640 0 l 1,17,-1
 128 0 l 1,8,-1
EndSplineSet
Validated: 5
EndChar

StartChar: e
Encoding: 101 101 72
Width: 768
GlyphClass: 2
Flags: W
LayerCount: 2
Fore
SplineSet
128 0 m 1,0,-1
 128 128 l 1,1,-1
 512 128 l 1,2,-1
 512 0 l 1,3,-1
 128 0 l 1,0,-1
0 128 m 1,4,-1
 0 512 l 1,5,-1
 128 512 l 1,6,-1
 128 384 l 1,7,-1
 512 384 l 1,8,-1
 512 512 l 1,9,-1
 640 512 l 1,10,-1
 640 256 l 1,11,-1
 128 256 l 1,12,-1
 128 128 l 1,13,-1
 0 128 l 1,4,-1
128 512 m 1,14,-1
 128 640 l 1,15,-1
 512 640 l 1,16,-1
 512 512 l 1,17,-1
 128 512 l 1,14,-1
EndSplineSet
Validated: 5
EndChar

StartChar: f
Encoding: 102 102 73
Width: 768
GlyphClass: 2
Flags: W
LayerCount: 2
Fore
SplineSet
128 0 m 1,0,-1
 128 384 l 1,1,-1
 0 384 l 1,2,-1
 0 512 l 1,3,-1
 128 512 l 1,4,-1
 128 768 l 5,5,-1
 256 768 l 5,6,-1
 256 512 l 1,7,-1
 384 512 l 1,8,-1
 384 384 l 1,9,-1
 256 384 l 1,10,-1
 256 0 l 1,11,-1
 128 0 l 1,0,-1
512 640 m 5,12,-1
 512 768 l 5,13,-1
 640 768 l 5,14,-1
 640 640 l 5,15,-1
 512 640 l 5,12,-1
256 768 m 5,16,-1
 256 896 l 5,17,-1
 512 896 l 5,18,-1
 512 768 l 5,19,-1
 256 768 l 5,16,-1
EndSplineSet
Validated: 5
EndChar

StartChar: g
Encoding: 103 103 74
Width: 768
GlyphClass: 2
Flags: W
LayerCount: 2
Fore
SplineSet
128 0 m 1,0,-1
 128 128 l 1,1,-1
 512 128 l 1,2,-1
 512 0 l 1,3,-1
 128 0 l 1,0,-1
0 384 m 1,4,-1
 0 640 l 1,5,-1
 128 640 l 1,6,-1
 128 384 l 1,7,-1
 0 384 l 1,4,-1
512 128 m 1,8,-1
 512 256 l 1,9,-1
 128 256 l 1,10,-1
 128 384 l 1,11,-1
 512 384 l 1,12,-1
 512 640 l 1,13,-1
 128 640 l 1,14,-1
 128 768 l 1,15,-1
 640 768 l 1,16,-1
 640 128 l 1,17,-1
 512 128 l 1,8,-1
EndSplineSet
Validated: 5
EndChar

StartChar: h
Encoding: 104 104 75
Width: 768
GlyphClass: 2
Flags: W
LayerCount: 2
Fore
SplineSet
512 0 m 1,0,-1
 512 512 l 1,1,-1
 640 512 l 1,2,-1
 640 0 l 1,3,-1
 512 0 l 1,0,-1
256 512 m 1,4,-1
 256 640 l 1,5,-1
 512 640 l 1,6,-1
 512 512 l 1,7,-1
 256 512 l 1,4,-1
0 0 m 1,8,-1
 0 896 l 1,9,-1
 128 896 l 1,10,-1
 128 512 l 1,11,-1
 256 512 l 1,12,-1
 256 384 l 1,13,-1
 128 384 l 1,14,-1
 128 0 l 1,15,-1
 0 0 l 1,8,-1
EndSplineSet
Validated: 5
EndChar

StartChar: i
Encoding: 105 105 76
Width: 768
GlyphClass: 2
Flags: W
LayerCount: 2
Fore
SplineSet
128 0 m 5,0,-1
 128 128 l 5,1,-1
 256 128 l 5,2,-1
 256 512 l 5,3,-1
 128 512 l 5,4,-1
 128 640 l 5,5,-1
 384 640 l 5,6,-1
 384 128 l 5,7,-1
 512 128 l 5,8,-1
 512 0 l 5,9,-1
 128 0 l 5,0,-1
256 768 m 5,10,-1
 256 896 l 5,11,-1
 384 896 l 5,12,-1
 384 768 l 5,13,-1
 256 768 l 5,10,-1
EndSplineSet
Validated: 1
EndChar

StartChar: j
Encoding: 106 106 77
Width: 768
GlyphClass: 2
Flags: W
LayerCount: 2
Fore
SplineSet
128 0 m 1,0,-1
 128 128 l 1,1,-1
 384 128 l 1,2,-1
 384 0 l 1,3,-1
 128 0 l 1,0,-1
0 128 m 1,4,-1
 0 256 l 1,5,-1
 128 256 l 1,6,-1
 128 128 l 1,7,-1
 0 128 l 1,4,-1
384 128 m 1,8,-1
 384 640 l 1,9,-1
 512 640 l 1,10,-1
 512 128 l 1,11,-1
 384 128 l 1,8,-1
384 768 m 1,12,-1
 384 896 l 1,13,-1
 512 896 l 1,14,-1
 512 768 l 1,15,-1
 384 768 l 1,12,-1
EndSplineSet
Validated: 5
EndChar

StartChar: k
Encoding: 107 107 78
Width: 768
GlyphClass: 2
Flags: W
LayerCount: 2
Fore
SplineSet
384 0 m 1,0,-1
 384 128 l 1,1,-1
 512 128 l 1,2,-1
 512 0 l 1,3,-1
 384 0 l 1,0,-1
256 128 m 1,4,-1
 256 256 l 1,5,-1
 384 256 l 1,6,-1
 384 128 l 1,7,-1
 256 128 l 1,4,-1
256 384 m 1,8,-1
 256 512 l 1,9,-1
 384 512 l 1,10,-1
 384 384 l 1,11,-1
 256 384 l 1,8,-1
384 512 m 1,12,-1
 384 640 l 1,13,-1
 512 640 l 1,14,-1
 512 512 l 1,15,-1
 384 512 l 1,12,-1
0 0 m 1,16,-1
 0 896 l 1,17,-1
 128 896 l 1,18,-1
 128 384 l 1,19,-1
 256 384 l 1,20,-1
 256 256 l 1,21,-1
 128 256 l 1,22,-1
 128 0 l 1,23,-1
 0 0 l 1,16,-1
EndSplineSet
Validated: 5
EndChar

StartChar: l
Encoding: 108 108 79
Width: 768
GlyphClass: 2
Flags: W
LayerCount: 2
Fore
SplineSet
128 0 m 5,0,-1
 128 128 l 5,1,-1
 256 128 l 5,2,-1
 256 768 l 5,3,-1
 128 768 l 5,4,-1
 128 896 l 5,5,-1
 384 896 l 5,6,-1
 384 128 l 5,7,-1
 512 128 l 5,8,-1
 512 0 l 5,9,-1
 128 0 l 5,0,-1
EndSplineSet
Validated: 1
EndChar

StartChar: m
Encoding: 109 109 80
Width: 768
GlyphClass: 2
Flags: W
LayerCount: 2
Fore
SplineSet
256 256 m 1,0,-1
 256 512 l 1,1,-1
 384 512 l 1,2,-1
 384 256 l 1,3,-1
 256 256 l 1,0,-1
512 0 m 1,4,-1
 512 512 l 1,5,-1
 640 512 l 1,6,-1
 640 0 l 1,7,-1
 512 0 l 1,4,-1
0 0 m 1,8,-1
 0 640 l 1,9,-1
 256 640 l 1,10,-1
 256 512 l 1,11,-1
 128 512 l 1,12,-1
 128 0 l 1,13,-1
 0 0 l 1,8,-1
384 512 m 1,14,-1
 384 640 l 1,15,-1
 512 640 l 1,16,-1
 512 512 l 1,17,-1
 384 512 l 1,14,-1
EndSplineSet
Validated: 5
EndChar

StartChar: n
Encoding: 110 110 81
Width: 768
GlyphClass: 2
Flags: W
LayerCount: 2
Fore
SplineSet
512 0 m 1,0,-1
 512 512 l 1,1,-1
 640 512 l 1,2,-1
 640 0 l 1,3,-1
 512 0 l 1,0,-1
0 0 m 1,4,-1
 0 640 l 1,5,-1
 128 640 l 1,6,-1
 128 512 l 1,7,-1
 256 512 l 1,8,-1
 256 384 l 1,9,-1
 128 384 l 1,10,-1
 128 0 l 1,11,-1
 0 0 l 1,4,-1
256 512 m 1,12,-1
 256 640 l 1,13,-1
 512 640 l 1,14,-1
 512 512 l 1,15,-1
 256 512 l 1,12,-1
EndSplineSet
Validated: 5
EndChar

StartChar: o
Encoding: 111 111 82
Width: 768
GlyphClass: 2
Flags: W
LayerCount: 2
Fore
SplineSet
128 0 m 1,0,-1
 128 128 l 1,1,-1
 512 128 l 1,2,-1
 512 0 l 1,3,-1
 128 0 l 1,0,-1
0 128 m 1,4,-1
 0 512 l 1,5,-1
 128 512 l 1,6,-1
 128 128 l 1,7,-1
 0 128 l 1,4,-1
512 128 m 1,8,-1
 512 512 l 1,9,-1
 640 512 l 1,10,-1
 640 128 l 1,11,-1
 512 128 l 1,8,-1
128 512 m 1,12,-1
 128 640 l 1,13,-1
 512 640 l 1,14,-1
 512 512 l 1,15,-1
 128 512 l 1,12,-1
EndSplineSet
Validated: 5
EndChar

StartChar: p
Encoding: 112 112 83
Width: 768
GlyphClass: 2
Flags: W
LayerCount: 2
Fore
SplineSet
512 384 m 1,0,-1
 512 512 l 1,1,-1
 640 512 l 1,2,-1
 640 384 l 1,3,-1
 512 384 l 1,0,-1
0 0 m 1,4,-1
 0 640 l 1,5,-1
 512 640 l 1,6,-1
 512 512 l 1,7,-1
 128 512 l 1,8,-1
 128 384 l 1,9,-1
 512 384 l 1,10,-1
 512 256 l 1,11,-1
 128 256 l 1,12,-1
 128 0 l 1,13,-1
 0 0 l 1,4,-1
EndSplineSet
Validated: 5
EndChar

StartChar: q
Encoding: 113 113 84
Width: 768
GlyphClass: 2
Flags: W
LayerCount: 2
Fore
SplineSet
0 384 m 1,0,-1
 0 512 l 1,1,-1
 128 512 l 1,2,-1
 128 384 l 1,3,-1
 0 384 l 1,0,-1
128 512 m 1,4,-1
 128 640 l 1,5,-1
 384 640 l 1,6,-1
 384 512 l 1,7,-1
 128 512 l 1,4,-1
512 0 m 1,8,-1
 512 256 l 1,9,-1
 128 256 l 1,10,-1
 128 384 l 1,11,-1
 384 384 l 1,12,-1
 384 512 l 1,13,-1
 512 512 l 1,14,-1
 512 640 l 1,15,-1
 640 640 l 1,16,-1
 640 0 l 1,17,-1
 512 0 l 1,8,-1
EndSplineSet
Validated: 5
EndChar

StartChar: r
Encoding: 114 114 85
Width: 768
GlyphClass: 2
Flags: W
LayerCount: 2
Fore
SplineSet
512 384 m 1,0,-1
 512 512 l 1,1,-1
 640 512 l 1,2,-1
 640 384 l 1,3,-1
 512 384 l 1,0,-1
0 0 m 1,4,-1
 0 640 l 1,5,-1
 128 640 l 1,6,-1
 128 512 l 1,7,-1
 256 512 l 1,8,-1
 256 384 l 1,9,-1
 128 384 l 1,10,-1
 128 0 l 1,11,-1
 0 0 l 1,4,-1
256 512 m 1,12,-1
 256 640 l 1,13,-1
 512 640 l 1,14,-1
 512 512 l 1,15,-1
 256 512 l 1,12,-1
EndSplineSet
Validated: 5
EndChar

StartChar: s
Encoding: 115 115 86
Width: 768
GlyphClass: 2
Flags: W
LayerCount: 2
Fore
SplineSet
0 0 m 1,0,-1
 0 128 l 1,1,-1
 512 128 l 1,2,-1
 512 0 l 1,3,-1
 0 0 l 1,0,-1
512 128 m 1,4,-1
 512 256 l 1,5,-1
 640 256 l 1,6,-1
 640 128 l 1,7,-1
 512 128 l 1,4,-1
128 256 m 1,8,-1
 128 384 l 1,9,-1
 512 384 l 1,10,-1
 512 256 l 1,11,-1
 128 256 l 1,8,-1
0 384 m 1,12,-1
 0 512 l 1,13,-1
 128 512 l 1,14,-1
 128 384 l 1,15,-1
 0 384 l 1,12,-1
128 512 m 1,16,-1
 128 640 l 1,17,-1
 512 640 l 1,18,-1
 512 512 l 1,19,-1
 128 512 l 1,16,-1
EndSplineSet
Validated: 5
EndChar

StartChar: t
Encoding: 116 116 87
Width: 768
GlyphClass: 2
Flags: W
LayerCount: 2
Fore
SplineSet
256 0 m 1,0,-1
 256 128 l 1,1,-1
 512 128 l 1,2,-1
 512 0 l 1,3,-1
 256 0 l 1,0,-1
512 128 m 1,4,-1
 512 256 l 1,5,-1
 640 256 l 1,6,-1
 640 128 l 1,7,-1
 512 128 l 1,4,-1
128 128 m 1,8,-1
 128 512 l 1,9,-1
 0 512 l 1,10,-1
 0 640 l 1,11,-1
 128 640 l 1,12,-1
 128 896 l 1,13,-1
 256 896 l 1,14,-1
 256 640 l 1,15,-1
 384 640 l 1,16,-1
 384 512 l 1,17,-1
 256 512 l 1,18,-1
 256 128 l 1,19,-1
 128 128 l 1,8,-1
EndSplineSet
Validated: 5
EndChar

StartChar: u
Encoding: 117 117 88
Width: 768
GlyphClass: 2
Flags: W
LayerCount: 2
Fore
SplineSet
128 0 m 1,0,-1
 128 128 l 1,1,-1
 512 128 l 1,2,-1
 512 0 l 1,3,-1
 128 0 l 1,0,-1
0 128 m 1,4,-1
 0 640 l 1,5,-1
 128 640 l 1,6,-1
 128 128 l 1,7,-1
 0 128 l 1,4,-1
512 128 m 1,8,-1
 512 640 l 1,9,-1
 640 640 l 1,10,-1
 640 128 l 1,11,-1
 512 128 l 1,8,-1
EndSplineSet
Validated: 5
EndChar

StartChar: v
Encoding: 118 118 89
Width: 768
GlyphClass: 2
Flags: W
LayerCount: 2
Fore
SplineSet
256 0 m 1,0,-1
 256 128 l 1,1,-1
 384 128 l 1,2,-1
 384 0 l 1,3,-1
 256 0 l 1,0,-1
128 128 m 1,4,-1
 128 256 l 1,5,-1
 256 256 l 1,6,-1
 256 128 l 1,7,-1
 128 128 l 1,4,-1
384 128 m 1,8,-1
 384 256 l 1,9,-1
 512 256 l 1,10,-1
 512 128 l 1,11,-1
 384 128 l 1,8,-1
0 256 m 1,12,-1
 0 640 l 1,13,-1
 128 640 l 1,14,-1
 128 256 l 1,15,-1
 0 256 l 1,12,-1
512 256 m 1,16,-1
 512 640 l 1,17,-1
 640 640 l 1,18,-1
 640 256 l 1,19,-1
 512 256 l 1,16,-1
EndSplineSet
Validated: 5
EndChar

StartChar: w
Encoding: 119 119 90
Width: 768
GlyphClass: 2
Flags: W
LayerCount: 2
Fore
SplineSet
128 0 m 1,0,-1
 128 128 l 1,1,-1
 256 128 l 1,2,-1
 256 0 l 1,3,-1
 128 0 l 1,0,-1
384 0 m 1,4,-1
 384 128 l 1,5,-1
 512 128 l 1,6,-1
 512 0 l 1,7,-1
 384 0 l 1,4,-1
256 128 m 1,8,-1
 256 384 l 1,9,-1
 384 384 l 1,10,-1
 384 128 l 1,11,-1
 256 128 l 1,8,-1
0 128 m 1,12,-1
 0 640 l 1,13,-1
 128 640 l 1,14,-1
 128 128 l 1,15,-1
 0 128 l 1,12,-1
512 128 m 1,16,-1
 512 640 l 1,17,-1
 640 640 l 1,18,-1
 640 128 l 1,19,-1
 512 128 l 1,16,-1
EndSplineSet
Validated: 5
EndChar

StartChar: x
Encoding: 120 120 91
Width: 768
GlyphClass: 2
Flags: W
LayerCount: 2
Fore
SplineSet
0 0 m 1,0,-1
 0 128 l 1,1,-1
 128 128 l 1,2,-1
 128 0 l 1,3,-1
 0 0 l 1,0,-1
512 0 m 1,4,-1
 512 128 l 1,5,-1
 640 128 l 1,6,-1
 640 0 l 1,7,-1
 512 0 l 1,4,-1
128 128 m 1,8,-1
 128 256 l 1,9,-1
 256 256 l 1,10,-1
 256 128 l 1,11,-1
 128 128 l 1,8,-1
384 128 m 1,12,-1
 384 256 l 1,13,-1
 512 256 l 1,14,-1
 512 128 l 1,15,-1
 384 128 l 1,12,-1
256 256 m 1,16,-1
 256 384 l 1,17,-1
 384 384 l 1,18,-1
 384 256 l 1,19,-1
 256 256 l 1,16,-1
128 384 m 1,20,-1
 128 512 l 1,21,-1
 256 512 l 1,22,-1
 256 384 l 1,23,-1
 128 384 l 1,20,-1
384 384 m 1,24,-1
 384 512 l 1,25,-1
 512 512 l 1,26,-1
 512 384 l 1,27,-1
 384 384 l 1,24,-1
0 512 m 1,28,-1
 0 640 l 1,29,-1
 128 640 l 1,30,-1
 128 512 l 1,31,-1
 0 512 l 1,28,-1
512 512 m 1,32,-1
 512 640 l 1,33,-1
 640 640 l 1,34,-1
 640 512 l 1,35,-1
 512 512 l 1,32,-1
EndSplineSet
Validated: 5
EndChar

StartChar: y
Encoding: 121 121 92
Width: 768
GlyphClass: 2
Flags: W
LayerCount: 2
Fore
SplineSet
128 0 m 1,0,-1
 128 128 l 1,1,-1
 512 128 l 1,2,-1
 512 0 l 1,3,-1
 128 0 l 1,0,-1
0 384 m 1,4,-1
 0 640 l 1,5,-1
 128 640 l 1,6,-1
 128 384 l 1,7,-1
 0 384 l 1,4,-1
512 128 m 1,8,-1
 512 256 l 1,9,-1
 128 256 l 1,10,-1
 128 384 l 1,11,-1
 512 384 l 1,12,-1
 512 640 l 1,13,-1
 640 640 l 1,14,-1
 640 128 l 1,15,-1
 512 128 l 1,8,-1
EndSplineSet
Validated: 5
EndChar

StartChar: z
Encoding: 122 122 93
Width: 768
GlyphClass: 2
Flags: W
LayerCount: 2
Fore
SplineSet
0 0 m 1,0,-1
 0 128 l 1,1,-1
 128 128 l 1,2,-1
 128 256 l 1,3,-1
 256 256 l 1,4,-1
 256 128 l 1,5,-1
 640 128 l 1,6,-1
 640 0 l 1,7,-1
 0 0 l 1,0,-1
256 256 m 1,8,-1
 256 384 l 1,9,-1
 384 384 l 1,10,-1
 384 256 l 1,11,-1
 256 256 l 1,8,-1
384 384 m 1,12,-1
 384 512 l 1,13,-1
 0 512 l 1,14,-1
 0 640 l 1,15,-1
 640 640 l 1,16,-1
 640 512 l 1,17,-1
 512 512 l 1,18,-1
 512 384 l 1,19,-1
 384 384 l 1,12,-1
EndSplineSet
Validated: 5
EndChar

StartChar: braceleft
Encoding: 123 123 94
Width: 768
GlyphClass: 2
Flags: W
LayerCount: 2
Fore
SplineSet
256 0 m 1,0,-1
 256 384 l 1,1,-1
 384 384 l 1,2,-1
 384 128 l 1,3,-1
 512 128 l 1,4,-1
 512 0 l 1,5,-1
 256 0 l 1,0,-1
128 384 m 1,6,-1
 128 512 l 1,7,-1
 256 512 l 1,8,-1
 256 384 l 1,9,-1
 128 384 l 1,6,-1
256 512 m 1,10,-1
 256 896 l 1,11,-1
 512 896 l 1,12,-1
 512 768 l 1,13,-1
 384 768 l 1,14,-1
 384 512 l 1,15,-1
 256 512 l 1,10,-1
EndSplineSet
Validated: 5
EndChar

StartChar: bar
Encoding: 124 124 95
Width: 768
GlyphClass: 2
Flags: W
LayerCount: 2
Fore
SplineSet
256 0 m 5,0,-1
 256 896 l 5,1,-1
 384 896 l 5,2,-1
 384 0 l 5,3,-1
 256 0 l 5,0,-1
EndSplineSet
Validated: 1
EndChar

StartChar: braceright
Encoding: 125 125 96
Width: 768
GlyphClass: 2
Flags: W
LayerCount: 2
Fore
SplineSet
128 0 m 5,0,-1
 128 128 l 5,1,-1
 256 128 l 5,2,-1
 256 384 l 5,3,-1
 384 384 l 5,4,-1
 384 0 l 5,5,-1
 128 0 l 5,0,-1
384 384 m 5,6,-1
 384 512 l 5,7,-1
 512 512 l 5,8,-1
 512 384 l 5,9,-1
 384 384 l 5,6,-1
256 512 m 5,10,-1
 256 768 l 5,11,-1
 128 768 l 5,12,-1
 128 896 l 5,13,-1
 384 896 l 5,14,-1
 384 512 l 5,15,-1
 256 512 l 5,10,-1
EndSplineSet
Validated: 5
EndChar

StartChar: asciitilde
Encoding: 126 126 97
Width: 768
GlyphClass: 2
Flags: W
LayerCount: 2
Fore
SplineSet
384 256 m 1,0,-1
 384 384 l 1,1,-1
 512 384 l 1,2,-1
 512 256 l 1,3,-1
 384 256 l 1,0,-1
0 384 m 5,4,-1
 0 512 l 5,5,-1
 128 512 l 5,6,-1
 128 384 l 5,7,-1
 0 384 l 5,4,-1
256 384 m 5,8,-1
 256 512 l 5,9,-1
 384 512 l 1,10,-1
 384 384 l 1,11,-1
 256 384 l 5,8,-1
512 384 m 1,12,-1
 512 512 l 1,13,-1
 640 512 l 1,14,-1
 640 384 l 1,15,-1
 512 384 l 1,12,-1
128 512 m 5,16,-1
 128 640 l 5,17,-1
 256 640 l 5,18,-1
 256 512 l 5,19,-1
 128 512 l 5,16,-1
EndSplineSet
Validated: 5
EndChar

StartChar: uni00A0
Encoding: 160 160 98
Width: 768
GlyphClass: 2
Flags: W
LayerCount: 2
Fore
SplineSet
0 0 m 1,0,-1
 0 128 l 1,1,-1
 640 128 l 1,2,-1
 640 0 l 1,3,-1
 0 0 l 1,0,-1
EndSplineSet
Validated: 1
EndChar

StartChar: exclamdown
Encoding: 161 161 99
Width: 768
GlyphClass: 2
Flags: W
LayerCount: 2
Fore
SplineSet
0 0 m 1,0,-1
 0 896 l 1,1,-1
 640 896 l 1,2,-1
 640 0 l 1,3,-1
 0 0 l 1,0,-1
EndSplineSet
Validated: 1
EndChar

StartChar: cent
Encoding: 162 162 100
Width: 768
GlyphClass: 2
Flags: W
LayerCount: 2
Fore
SplineSet
0 0 m 1,0,-1
 0 896 l 1,1,-1
 640 896 l 1,2,-1
 640 0 l 1,3,-1
 0 0 l 1,0,-1
EndSplineSet
Validated: 1
EndChar

StartChar: sterling
Encoding: 163 163 101
Width: 768
GlyphClass: 2
Flags: W
LayerCount: 2
Fore
SplineSet
0 0 m 1,0,-1
 0 896 l 1,1,-1
 640 896 l 1,2,-1
 640 0 l 1,3,-1
 0 0 l 1,0,-1
EndSplineSet
Validated: 1
EndChar

StartChar: currency
Encoding: 164 164 102
Width: 768
GlyphClass: 2
Flags: W
LayerCount: 2
Fore
SplineSet
0 0 m 1,0,-1
 0 896 l 1,1,-1
 640 896 l 1,2,-1
 640 0 l 1,3,-1
 0 0 l 1,0,-1
EndSplineSet
Validated: 1
EndChar

StartChar: yen
Encoding: 165 165 103
Width: 768
GlyphClass: 2
Flags: W
LayerCount: 2
Fore
SplineSet
0 0 m 1,0,-1
 0 896 l 1,1,-1
 640 896 l 1,2,-1
 640 0 l 1,3,-1
 0 0 l 1,0,-1
EndSplineSet
Validated: 1
EndChar

StartChar: brokenbar
Encoding: 166 166 104
Width: 768
GlyphClass: 2
Flags: W
LayerCount: 2
Fore
SplineSet
256 0 m 5,0,-1
 256 384 l 5,1,-1
 384 384 l 5,2,-1
 384 0 l 5,3,-1
 256 0 l 5,0,-1
256 512 m 5,4,-1
 256 896 l 5,5,-1
 384 896 l 5,6,-1
 384 512 l 5,7,-1
 256 512 l 5,4,-1
EndSplineSet
Validated: 1
EndChar

StartChar: section
Encoding: 167 167 105
Width: 768
GlyphClass: 2
Flags: W
LayerCount: 2
Fore
SplineSet
0 0 m 1,0,-1
 0 896 l 1,1,-1
 640 896 l 1,2,-1
 640 0 l 1,3,-1
 0 0 l 1,0,-1
EndSplineSet
Validated: 1
EndChar

StartChar: dieresis
Encoding: 168 168 106
Width: 768
GlyphClass: 2
Flags: W
LayerCount: 2
Fore
SplineSet
0 0 m 1,0,-1
 0 896 l 1,1,-1
 640 896 l 1,2,-1
 640 0 l 1,3,-1
 0 0 l 1,0,-1
EndSplineSet
Validated: 1
EndChar

StartChar: copyright
Encoding: 169 169 107
Width: 768
GlyphClass: 2
Flags: W
LayerCount: 2
Fore
SplineSet
128 0 m 1,0,-1
 128 128 l 1,1,-1
 640 128 l 1,2,-1
 640 0 l 1,3,-1
 128 0 l 1,0,-1
256 256 m 1,4,-1
 256 640 l 1,5,-1
 512 640 l 1,6,-1
 512 512 l 1,7,-1
 384 512 l 1,8,-1
 384 384 l 1,9,-1
 512 384 l 1,10,-1
 512 256 l 1,11,-1
 256 256 l 1,4,-1
0 128 m 1,12,-1
 0 768 l 1,13,-1
 128 768 l 1,14,-1
 128 128 l 1,15,-1
 0 128 l 1,12,-1
640 128 m 1,16,-1
 640 768 l 1,17,-1
 768 768 l 1,18,-1
 768 128 l 1,19,-1
 640 128 l 1,16,-1
128 768 m 1,20,-1
 128 896 l 1,21,-1
 640 896 l 1,22,-1
 640 768 l 1,23,-1
 128 768 l 1,20,-1
EndSplineSet
Validated: 5
EndChar

StartChar: ordfeminine
Encoding: 170 170 108
Width: 768
GlyphClass: 2
Flags: W
LayerCount: 2
Fore
SplineSet
0 0 m 1,0,-1
 0 896 l 1,1,-1
 640 896 l 1,2,-1
 640 0 l 1,3,-1
 0 0 l 1,0,-1
EndSplineSet
Validated: 1
EndChar

StartChar: guillemotleft
Encoding: 171 171 109
Width: 768
GlyphClass: 2
Flags: W
LayerCount: 2
Fore
SplineSet
128 0 m 1,0,-1
 128 128 l 1,1,-1
 256 128 l 1,2,-1
 256 0 l 1,3,-1
 128 0 l 1,0,-1
512 0 m 1,4,-1
 512 128 l 1,5,-1
 640 128 l 1,6,-1
 640 0 l 1,7,-1
 512 0 l 1,4,-1
0 128 m 1,8,-1
 0 256 l 1,9,-1
 128 256 l 1,10,-1
 128 128 l 1,11,-1
 0 128 l 1,8,-1
384 128 m 1,12,-1
 384 256 l 1,13,-1
 512 256 l 1,14,-1
 512 128 l 1,15,-1
 384 128 l 1,12,-1
128 256 m 1,16,-1
 128 384 l 1,17,-1
 256 384 l 1,18,-1
 256 256 l 1,19,-1
 128 256 l 1,16,-1
512 256 m 1,20,-1
 512 384 l 1,21,-1
 640 384 l 1,22,-1
 640 256 l 1,23,-1
 512 256 l 1,20,-1
EndSplineSet
Validated: 5
EndChar

StartChar: logicalnot
Encoding: 172 172 110
Width: 768
GlyphClass: 2
Flags: W
LayerCount: 2
Fore
SplineSet
0 0 m 1,0,-1
 0 896 l 1,1,-1
 640 896 l 1,2,-1
 640 0 l 1,3,-1
 0 0 l 1,0,-1
EndSplineSet
Validated: 1
EndChar

StartChar: uni00AD
Encoding: 173 173 111
Width: 768
GlyphClass: 2
Flags: W
LayerCount: 2
Fore
SplineSet
128 384 m 5,0,-1
 128 512 l 5,1,-1
 512 512 l 5,2,-1
 512 384 l 5,3,-1
 128 384 l 5,0,-1
EndSplineSet
Validated: 1
EndChar

StartChar: registered
Encoding: 174 174 112
Width: 768
GlyphClass: 2
Flags: W
LayerCount: 2
Fore
SplineSet
0 0 m 1,0,-1
 0 896 l 1,1,-1
 640 896 l 1,2,-1
 640 0 l 1,3,-1
 0 0 l 1,0,-1
EndSplineSet
Validated: 1
EndChar

StartChar: macron
Encoding: 175 175 113
Width: 768
GlyphClass: 2
Flags: W
LayerCount: 2
Fore
SplineSet
0 768 m 1,0,-1
 0 896 l 1,1,-1
 640 896 l 1,2,-1
 640 768 l 1,3,-1
 0 768 l 1,0,-1
EndSplineSet
Validated: 1
EndChar

StartChar: degree
Encoding: 176 176 114
Width: 768
GlyphClass: 2
Flags: W
LayerCount: 2
Fore
SplineSet
128 384 m 5,0,-1
 128 512 l 5,1,-1
 384 512 l 5,2,-1
 384 384 l 5,3,-1
 128 384 l 5,0,-1
0 512 m 5,4,-1
 0 768 l 5,5,-1
 128 768 l 5,6,-1
 128 512 l 5,7,-1
 0 512 l 5,4,-1
384 512 m 5,8,-1
 384 768 l 5,9,-1
 512 768 l 5,10,-1
 512 512 l 5,11,-1
 384 512 l 5,8,-1
128 768 m 5,12,-1
 128 896 l 5,13,-1
 384 896 l 5,14,-1
 384 768 l 5,15,-1
 128 768 l 5,12,-1
EndSplineSet
Validated: 5
EndChar

StartChar: plusminus
Encoding: 177 177 115
Width: 768
GlyphClass: 2
Flags: W
LayerCount: 2
Fore
SplineSet
0 0 m 1,0,-1
 0 128 l 1,1,-1
 640 128 l 1,2,-1
 640 0 l 1,3,-1
 0 0 l 1,0,-1
256 256 m 1,4,-1
 256 512 l 1,5,-1
 0 512 l 1,6,-1
 0 640 l 1,7,-1
 256 640 l 1,8,-1
 256 896 l 1,9,-1
 384 896 l 1,10,-1
 384 640 l 1,11,-1
 640 640 l 1,12,-1
 640 512 l 1,13,-1
 384 512 l 1,14,-1
 384 256 l 1,15,-1
 256 256 l 1,4,-1
EndSplineSet
Validated: 1
EndChar

StartChar: uni00B2
Encoding: 178 178 116
Width: 768
GlyphClass: 2
Flags: W
LayerCount: 2
Fore
SplineSet
0 0 m 1,0,-1
 0 896 l 1,1,-1
 640 896 l 1,2,-1
 640 0 l 1,3,-1
 0 0 l 1,0,-1
EndSplineSet
Validated: 1
EndChar

StartChar: uni00B3
Encoding: 179 179 117
Width: 768
GlyphClass: 2
Flags: W
LayerCount: 2
Fore
SplineSet
0 0 m 1,0,-1
 0 896 l 1,1,-1
 640 896 l 1,2,-1
 640 0 l 1,3,-1
 0 0 l 1,0,-1
EndSplineSet
Validated: 1
EndChar

StartChar: acute
Encoding: 180 180 118
Width: 768
GlyphClass: 2
Flags: W
LayerCount: 2
Fore
SplineSet
0 0 m 1,0,-1
 0 896 l 1,1,-1
 640 896 l 1,2,-1
 640 0 l 1,3,-1
 0 0 l 1,0,-1
EndSplineSet
Validated: 1
EndChar

StartChar: uni00B5
Encoding: 181 181 119
Width: 768
GlyphClass: 2
Flags: W
LayerCount: 2
Fore
SplineSet
0 0 m 1,0,-1
 0 896 l 1,1,-1
 640 896 l 1,2,-1
 640 0 l 1,3,-1
 0 0 l 1,0,-1
EndSplineSet
Validated: 1
EndChar

StartChar: paragraph
Encoding: 182 182 120
Width: 768
GlyphClass: 2
Flags: W
LayerCount: 2
Fore
SplineSet
0 0 m 1,0,-1
 0 896 l 1,1,-1
 640 896 l 1,2,-1
 640 0 l 1,3,-1
 0 0 l 1,0,-1
EndSplineSet
Validated: 1
EndChar

StartChar: periodcentered
Encoding: 183 183 121
Width: 768
GlyphClass: 2
Flags: W
LayerCount: 2
Fore
SplineSet
256 384 m 5,0,-1
 256 512 l 5,1,-1
 384 512 l 5,2,-1
 384 384 l 5,3,-1
 256 384 l 5,0,-1
EndSplineSet
Validated: 1
EndChar

StartChar: cedilla
Encoding: 184 184 122
Width: 768
GlyphClass: 2
Flags: W
LayerCount: 2
Fore
SplineSet
0 0 m 1,0,-1
 0 896 l 1,1,-1
 640 896 l 1,2,-1
 640 0 l 1,3,-1
 0 0 l 1,0,-1
EndSplineSet
Validated: 1
EndChar

StartChar: uni00B9
Encoding: 185 185 123
Width: 768
GlyphClass: 2
Flags: W
LayerCount: 2
Fore
SplineSet
0 0 m 1,0,-1
 0 896 l 1,1,-1
 640 896 l 1,2,-1
 640 0 l 1,3,-1
 0 0 l 1,0,-1
EndSplineSet
Validated: 1
EndChar

StartChar: ordmasculine
Encoding: 186 186 124
Width: 768
GlyphClass: 2
Flags: W
LayerCount: 2
Fore
SplineSet
0 0 m 1,0,-1
 0 896 l 1,1,-1
 640 896 l 1,2,-1
 640 0 l 1,3,-1
 0 0 l 1,0,-1
EndSplineSet
Validated: 1
EndChar

StartChar: guillemotright
Encoding: 187 187 125
Width: 768
GlyphClass: 2
Flags: W
LayerCount: 2
Fore
SplineSet
0 0 m 1,0,-1
 0 128 l 1,1,-1
 128 128 l 1,2,-1
 128 0 l 1,3,-1
 0 0 l 1,0,-1
384 0 m 1,4,-1
 384 128 l 1,5,-1
 512 128 l 1,6,-1
 512 0 l 1,7,-1
 384 0 l 1,4,-1
128 128 m 1,8,-1
 128 256 l 1,9,-1
 256 256 l 1,10,-1
 256 128 l 1,11,-1
 128 128 l 1,8,-1
512 128 m 1,12,-1
 512 256 l 1,13,-1
 640 256 l 1,14,-1
 640 128 l 1,15,-1
 512 128 l 1,12,-1
0 256 m 1,16,-1
 0 384 l 1,17,-1
 128 384 l 1,18,-1
 128 256 l 1,19,-1
 0 256 l 1,16,-1
384 256 m 1,20,-1
 384 384 l 1,21,-1
 512 384 l 1,22,-1
 512 256 l 1,23,-1
 384 256 l 1,20,-1
EndSplineSet
Validated: 5
EndChar

StartChar: onequarter
Encoding: 188 188 126
Width: 768
GlyphClass: 2
Flags: W
LayerCount: 2
Fore
SplineSet
0 0 m 1,0,-1
 0 896 l 1,1,-1
 640 896 l 1,2,-1
 640 0 l 1,3,-1
 0 0 l 1,0,-1
EndSplineSet
Validated: 1
EndChar

StartChar: onehalf
Encoding: 189 189 127
Width: 768
GlyphClass: 2
Flags: W
LayerCount: 2
Fore
SplineSet
0 0 m 1,0,-1
 0 896 l 1,1,-1
 640 896 l 1,2,-1
 640 0 l 1,3,-1
 0 0 l 1,0,-1
EndSplineSet
Validated: 1
EndChar

StartChar: threequarters
Encoding: 190 190 128
Width: 768
GlyphClass: 2
Flags: W
LayerCount: 2
Fore
SplineSet
0 0 m 1,0,-1
 0 896 l 1,1,-1
 640 896 l 1,2,-1
 640 0 l 1,3,-1
 0 0 l 1,0,-1
EndSplineSet
Validated: 1
EndChar

StartChar: questiondown
Encoding: 191 191 129
Width: 768
GlyphClass: 2
Flags: W
LayerCount: 2
Fore
SplineSet
0 0 m 1,0,-1
 0 896 l 1,1,-1
 640 896 l 1,2,-1
 640 0 l 1,3,-1
 0 0 l 1,0,-1
EndSplineSet
Validated: 1
EndChar

StartChar: Agrave
Encoding: 192 192 130
Width: 768
GlyphClass: 2
Flags: W
LayerCount: 2
Fore
SplineSet
0 0 m 1,0,-1
 0 768 l 1,1,-1
 128 768 l 1,2,-1
 128 512 l 1,3,-1
 512 512 l 1,4,-1
 512 768 l 1,5,-1
 640 768 l 1,6,-1
 640 0 l 1,7,-1
 512 0 l 1,8,-1
 512 384 l 1,9,-1
 128 384 l 1,10,-1
 128 0 l 1,11,-1
 0 0 l 1,0,-1
128 768 m 1,12,-1
 128 896 l 1,13,-1
 512 896 l 1,14,-1
 512 768 l 1,15,-1
 128 768 l 1,12,-1
EndSplineSet
Validated: 5
EndChar

StartChar: Aacute
Encoding: 193 193 131
Width: 768
GlyphClass: 2
Flags: W
LayerCount: 2
Fore
SplineSet
0 0 m 1,0,-1
 0 768 l 1,1,-1
 128 768 l 1,2,-1
 128 512 l 1,3,-1
 512 512 l 1,4,-1
 512 768 l 1,5,-1
 640 768 l 1,6,-1
 640 0 l 1,7,-1
 512 0 l 1,8,-1
 512 384 l 1,9,-1
 128 384 l 1,10,-1
 128 0 l 1,11,-1
 0 0 l 1,0,-1
128 768 m 1,12,-1
 128 896 l 1,13,-1
 512 896 l 1,14,-1
 512 768 l 1,15,-1
 128 768 l 1,12,-1
EndSplineSet
Validated: 5
EndChar

StartChar: Acircumflex
Encoding: 194 194 132
Width: 768
GlyphClass: 2
Flags: W
LayerCount: 2
Fore
SplineSet
0 0 m 1,0,-1
 0 768 l 1,1,-1
 128 768 l 1,2,-1
 128 512 l 1,3,-1
 512 512 l 1,4,-1
 512 768 l 1,5,-1
 640 768 l 1,6,-1
 640 0 l 1,7,-1
 512 0 l 1,8,-1
 512 384 l 1,9,-1
 128 384 l 1,10,-1
 128 0 l 1,11,-1
 0 0 l 1,0,-1
128 768 m 1,12,-1
 128 896 l 1,13,-1
 512 896 l 1,14,-1
 512 768 l 1,15,-1
 128 768 l 1,12,-1
EndSplineSet
Validated: 5
EndChar

StartChar: Atilde
Encoding: 195 195 133
Width: 768
GlyphClass: 2
Flags: W
LayerCount: 2
Fore
SplineSet
0 0 m 1,0,-1
 0 768 l 1,1,-1
 128 768 l 1,2,-1
 128 512 l 1,3,-1
 512 512 l 1,4,-1
 512 768 l 1,5,-1
 640 768 l 1,6,-1
 640 0 l 1,7,-1
 512 0 l 1,8,-1
 512 384 l 1,9,-1
 128 384 l 1,10,-1
 128 0 l 1,11,-1
 0 0 l 1,0,-1
128 768 m 1,12,-1
 128 896 l 1,13,-1
 512 896 l 1,14,-1
 512 768 l 1,15,-1
 128 768 l 1,12,-1
EndSplineSet
Validated: 5
EndChar

StartChar: Adieresis
Encoding: 196 196 134
Width: 768
GlyphClass: 2
Flags: W
LayerCount: 2
Fore
SplineSet
0 0 m 1,0,-1
 0 768 l 1,1,-1
 128 768 l 1,2,-1
 128 512 l 1,3,-1
 512 512 l 1,4,-1
 512 768 l 1,5,-1
 640 768 l 1,6,-1
 640 0 l 1,7,-1
 512 0 l 1,8,-1
 512 384 l 1,9,-1
 128 384 l 1,10,-1
 128 0 l 1,11,-1
 0 0 l 1,0,-1
128 768 m 1,12,-1
 128 896 l 1,13,-1
 512 896 l 1,14,-1
 512 768 l 1,15,-1
 128 768 l 1,12,-1
EndSplineSet
Validated: 5
EndChar

StartChar: Aring
Encoding: 197 197 135
Width: 768
GlyphClass: 2
Flags: W
LayerCount: 2
Fore
SplineSet
0 0 m 1,0,-1
 0 768 l 1,1,-1
 128 768 l 1,2,-1
 128 512 l 1,3,-1
 512 512 l 1,4,-1
 512 768 l 1,5,-1
 640 768 l 1,6,-1
 640 0 l 1,7,-1
 512 0 l 1,8,-1
 512 384 l 1,9,-1
 128 384 l 1,10,-1
 128 0 l 1,11,-1
 0 0 l 1,0,-1
128 768 m 1,12,-1
 128 896 l 1,13,-1
 512 896 l 1,14,-1
 512 768 l 1,15,-1
 128 768 l 1,12,-1
EndSplineSet
Validated: 5
EndChar

StartChar: AE
Encoding: 198 198 136
Width: 768
GlyphClass: 2
Flags: W
LayerCount: 2
Fore
SplineSet
0 0 m 1,0,-1
 0 896 l 1,1,-1
 640 896 l 1,2,-1
 640 0 l 1,3,-1
 0 0 l 1,0,-1
EndSplineSet
Validated: 1
EndChar

StartChar: Ccedilla
Encoding: 199 199 137
Width: 768
GlyphClass: 2
Flags: W
LayerCount: 2
Fore
SplineSet
128 0 m 1,0,-1
 128 128 l 1,1,-1
 512 128 l 1,2,-1
 512 0 l 1,3,-1
 128 0 l 1,0,-1
512 128 m 1,4,-1
 512 256 l 1,5,-1
 640 256 l 1,6,-1
 640 128 l 1,7,-1
 512 128 l 1,4,-1
0 128 m 1,8,-1
 0 768 l 1,9,-1
 128 768 l 1,10,-1
 128 128 l 1,11,-1
 0 128 l 1,8,-1
512 640 m 1,12,-1
 512 768 l 1,13,-1
 640 768 l 1,14,-1
 640 640 l 1,15,-1
 512 640 l 1,12,-1
128 768 m 1,16,-1
 128 896 l 1,17,-1
 512 896 l 1,18,-1
 512 768 l 1,19,-1
 128 768 l 1,16,-1
EndSplineSet
Validated: 5
EndChar

StartChar: Egrave
Encoding: 200 200 138
Width: 768
GlyphClass: 2
Flags: W
LayerCount: 2
Fore
SplineSet
0 0 m 1,0,-1
 0 896 l 1,1,-1
 640 896 l 1,2,-1
 640 768 l 1,3,-1
 128 768 l 1,4,-1
 128 512 l 1,5,-1
 512 512 l 1,6,-1
 512 384 l 1,7,-1
 128 384 l 1,8,-1
 128 128 l 1,9,-1
 640 128 l 1,10,-1
 640 0 l 1,11,-1
 0 0 l 1,0,-1
EndSplineSet
Validated: 1
EndChar

StartChar: Eacute
Encoding: 201 201 139
Width: 768
GlyphClass: 2
Flags: W
LayerCount: 2
Fore
SplineSet
0 0 m 1,0,-1
 0 896 l 1,1,-1
 640 896 l 1,2,-1
 640 768 l 1,3,-1
 128 768 l 1,4,-1
 128 512 l 1,5,-1
 512 512 l 1,6,-1
 512 384 l 1,7,-1
 128 384 l 1,8,-1
 128 128 l 1,9,-1
 640 128 l 1,10,-1
 640 0 l 1,11,-1
 0 0 l 1,0,-1
EndSplineSet
Validated: 1
EndChar

StartChar: Ecircumflex
Encoding: 202 202 140
Width: 768
GlyphClass: 2
Flags: W
LayerCount: 2
Fore
SplineSet
0 0 m 1,0,-1
 0 896 l 1,1,-1
 640 896 l 1,2,-1
 640 768 l 1,3,-1
 128 768 l 1,4,-1
 128 512 l 1,5,-1
 512 512 l 1,6,-1
 512 384 l 1,7,-1
 128 384 l 1,8,-1
 128 128 l 1,9,-1
 640 128 l 1,10,-1
 640 0 l 1,11,-1
 0 0 l 1,0,-1
EndSplineSet
Validated: 1
EndChar

StartChar: Edieresis
Encoding: 203 203 141
Width: 768
GlyphClass: 2
Flags: W
LayerCount: 2
Fore
SplineSet
0 0 m 1,0,-1
 0 896 l 1,1,-1
 640 896 l 1,2,-1
 640 768 l 1,3,-1
 128 768 l 1,4,-1
 128 512 l 1,5,-1
 512 512 l 1,6,-1
 512 384 l 1,7,-1
 128 384 l 1,8,-1
 128 128 l 1,9,-1
 640 128 l 1,10,-1
 640 0 l 1,11,-1
 0 0 l 1,0,-1
EndSplineSet
Validated: 1
EndChar

StartChar: Igrave
Encoding: 204 204 142
Width: 768
GlyphClass: 2
Flags: W
LayerCount: 2
Fore
SplineSet
128 0 m 5,0,-1
 128 128 l 5,1,-1
 256 128 l 5,2,-1
 256 768 l 5,3,-1
 128 768 l 5,4,-1
 128 896 l 5,5,-1
 512 896 l 5,6,-1
 512 768 l 5,7,-1
 384 768 l 5,8,-1
 384 128 l 5,9,-1
 512 128 l 5,10,-1
 512 0 l 5,11,-1
 128 0 l 5,0,-1
EndSplineSet
Validated: 1
EndChar

StartChar: Iacute
Encoding: 205 205 143
Width: 768
GlyphClass: 2
Flags: W
LayerCount: 2
Fore
SplineSet
128 0 m 5,0,-1
 128 128 l 5,1,-1
 256 128 l 5,2,-1
 256 768 l 5,3,-1
 128 768 l 5,4,-1
 128 896 l 5,5,-1
 512 896 l 5,6,-1
 512 768 l 5,7,-1
 384 768 l 5,8,-1
 384 128 l 5,9,-1
 512 128 l 5,10,-1
 512 0 l 5,11,-1
 128 0 l 5,0,-1
EndSplineSet
Validated: 1
EndChar

StartChar: Icircumflex
Encoding: 206 206 144
Width: 768
GlyphClass: 2
Flags: W
LayerCount: 2
Fore
SplineSet
128 0 m 5,0,-1
 128 128 l 5,1,-1
 256 128 l 5,2,-1
 256 768 l 5,3,-1
 128 768 l 5,4,-1
 128 896 l 5,5,-1
 512 896 l 5,6,-1
 512 768 l 5,7,-1
 384 768 l 5,8,-1
 384 128 l 5,9,-1
 512 128 l 5,10,-1
 512 0 l 5,11,-1
 128 0 l 5,0,-1
EndSplineSet
Validated: 1
EndChar

StartChar: Idieresis
Encoding: 207 207 145
Width: 768
GlyphClass: 2
Flags: W
LayerCount: 2
Fore
SplineSet
128 0 m 5,0,-1
 128 128 l 5,1,-1
 256 128 l 5,2,-1
 256 768 l 5,3,-1
 128 768 l 5,4,-1
 128 896 l 5,5,-1
 512 896 l 5,6,-1
 512 768 l 5,7,-1
 384 768 l 5,8,-1
 384 128 l 5,9,-1
 512 128 l 5,10,-1
 512 0 l 5,11,-1
 128 0 l 5,0,-1
EndSplineSet
Validated: 1
EndChar

StartChar: Eth
Encoding: 208 208 146
Width: 768
GlyphClass: 2
Flags: W
LayerCount: 2
Fore
SplineSet
512 128 m 1,0,-1
 512 768 l 1,1,-1
 640 768 l 1,2,-1
 640 128 l 1,3,-1
 512 128 l 1,0,-1
0 0 m 1,4,-1
 0 896 l 1,5,-1
 512 896 l 1,6,-1
 512 768 l 1,7,-1
 128 768 l 1,8,-1
 128 128 l 1,9,-1
 512 128 l 1,10,-1
 512 0 l 1,11,-1
 0 0 l 1,4,-1
EndSplineSet
Validated: 5
EndChar

StartChar: Ntilde
Encoding: 209 209 147
Width: 768
GlyphClass: 2
Flags: W
LayerCount: 2
Fore
SplineSet
256 384 m 1,0,-1
 256 512 l 1,1,-1
 384 512 l 1,2,-1
 384 384 l 1,3,-1
 256 384 l 1,0,-1
0 0 m 1,4,-1
 0 896 l 1,5,-1
 128 896 l 1,6,-1
 128 640 l 1,7,-1
 256 640 l 1,8,-1
 256 512 l 1,9,-1
 128 512 l 1,10,-1
 128 0 l 1,11,-1
 0 0 l 1,4,-1
512 0 m 1,12,-1
 512 256 l 1,13,-1
 384 256 l 1,14,-1
 384 384 l 1,15,-1
 512 384 l 1,16,-1
 512 896 l 1,17,-1
 640 896 l 1,18,-1
 640 0 l 1,19,-1
 512 0 l 1,12,-1
EndSplineSet
Validated: 5
EndChar

StartChar: Ograve
Encoding: 210 210 148
Width: 768
GlyphClass: 2
Flags: W
LayerCount: 2
Fore
SplineSet
128 0 m 1,0,-1
 128 128 l 1,1,-1
 512 128 l 1,2,-1
 512 0 l 1,3,-1
 128 0 l 1,0,-1
0 128 m 1,4,-1
 0 768 l 1,5,-1
 128 768 l 1,6,-1
 128 128 l 1,7,-1
 0 128 l 1,4,-1
512 128 m 1,8,-1
 512 768 l 1,9,-1
 640 768 l 1,10,-1
 640 128 l 1,11,-1
 512 128 l 1,8,-1
128 768 m 1,12,-1
 128 896 l 1,13,-1
 512 896 l 1,14,-1
 512 768 l 1,15,-1
 128 768 l 1,12,-1
EndSplineSet
Validated: 5
EndChar

StartChar: Oacute
Encoding: 211 211 149
Width: 768
GlyphClass: 2
Flags: W
LayerCount: 2
Fore
SplineSet
128 0 m 1,0,-1
 128 128 l 1,1,-1
 512 128 l 1,2,-1
 512 0 l 1,3,-1
 128 0 l 1,0,-1
0 128 m 1,4,-1
 0 768 l 1,5,-1
 128 768 l 1,6,-1
 128 128 l 1,7,-1
 0 128 l 1,4,-1
512 128 m 1,8,-1
 512 768 l 1,9,-1
 640 768 l 1,10,-1
 640 128 l 1,11,-1
 512 128 l 1,8,-1
128 768 m 1,12,-1
 128 896 l 1,13,-1
 512 896 l 1,14,-1
 512 768 l 1,15,-1
 128 768 l 1,12,-1
EndSplineSet
Validated: 5
EndChar

StartChar: Ocircumflex
Encoding: 212 212 150
Width: 768
GlyphClass: 2
Flags: W
LayerCount: 2
Fore
SplineSet
128 0 m 1,0,-1
 128 128 l 1,1,-1
 512 128 l 1,2,-1
 512 0 l 1,3,-1
 128 0 l 1,0,-1
0 128 m 1,4,-1
 0 768 l 1,5,-1
 128 768 l 1,6,-1
 128 128 l 1,7,-1
 0 128 l 1,4,-1
512 128 m 1,8,-1
 512 768 l 1,9,-1
 640 768 l 1,10,-1
 640 128 l 1,11,-1
 512 128 l 1,8,-1
128 768 m 1,12,-1
 128 896 l 1,13,-1
 512 896 l 1,14,-1
 512 768 l 1,15,-1
 128 768 l 1,12,-1
EndSplineSet
Validated: 5
EndChar

StartChar: Otilde
Encoding: 213 213 151
Width: 768
GlyphClass: 2
Flags: W
LayerCount: 2
Fore
SplineSet
128 0 m 1,0,-1
 128 128 l 1,1,-1
 512 128 l 1,2,-1
 512 0 l 1,3,-1
 128 0 l 1,0,-1
0 128 m 1,4,-1
 0 768 l 1,5,-1
 128 768 l 1,6,-1
 128 128 l 1,7,-1
 0 128 l 1,4,-1
512 128 m 1,8,-1
 512 768 l 1,9,-1
 640 768 l 1,10,-1
 640 128 l 1,11,-1
 512 128 l 1,8,-1
128 768 m 1,12,-1
 128 896 l 1,13,-1
 512 896 l 1,14,-1
 512 768 l 1,15,-1
 128 768 l 1,12,-1
EndSplineSet
Validated: 5
EndChar

StartChar: Odieresis
Encoding: 214 214 152
Width: 768
GlyphClass: 2
Flags: W
LayerCount: 2
Fore
SplineSet
128 0 m 1,0,-1
 128 128 l 1,1,-1
 512 128 l 1,2,-1
 512 0 l 1,3,-1
 128 0 l 1,0,-1
0 128 m 1,4,-1
 0 768 l 1,5,-1
 128 768 l 1,6,-1
 128 128 l 1,7,-1
 0 128 l 1,4,-1
512 128 m 1,8,-1
 512 768 l 1,9,-1
 640 768 l 1,10,-1
 640 128 l 1,11,-1
 512 128 l 1,8,-1
128 768 m 1,12,-1
 128 896 l 1,13,-1
 512 896 l 1,14,-1
 512 768 l 1,15,-1
 128 768 l 1,12,-1
EndSplineSet
Validated: 5
EndChar

StartChar: multiply
Encoding: 215 215 153
Width: 768
GlyphClass: 2
Flags: W
LayerCount: 2
Fore
SplineSet
0 0 m 1,0,-1
 0 128 l 1,1,-1
 128 128 l 1,2,-1
 128 0 l 1,3,-1
 0 0 l 1,0,-1
512 0 m 1,4,-1
 512 128 l 1,5,-1
 640 128 l 1,6,-1
 640 0 l 1,7,-1
 512 0 l 1,4,-1
128 128 m 1,8,-1
 128 256 l 1,9,-1
 256 256 l 1,10,-1
 256 128 l 1,11,-1
 128 128 l 1,8,-1
384 128 m 1,12,-1
 384 256 l 1,13,-1
 512 256 l 1,14,-1
 512 128 l 1,15,-1
 384 128 l 1,12,-1
256 256 m 1,16,-1
 256 384 l 1,17,-1
 384 384 l 1,18,-1
 384 256 l 1,19,-1
 256 256 l 1,16,-1
128 384 m 1,20,-1
 128 512 l 1,21,-1
 256 512 l 1,22,-1
 256 384 l 1,23,-1
 128 384 l 1,20,-1
384 384 m 1,24,-1
 384 512 l 1,25,-1
 512 512 l 1,26,-1
 512 384 l 1,27,-1
 384 384 l 1,24,-1
0 512 m 1,28,-1
 0 640 l 1,29,-1
 128 640 l 1,30,-1
 128 512 l 1,31,-1
 0 512 l 1,28,-1
512 512 m 1,32,-1
 512 640 l 1,33,-1
 640 640 l 1,34,-1
 640 512 l 1,35,-1
 512 512 l 1,32,-1
EndSplineSet
Validated: 5
EndChar

StartChar: Oslash
Encoding: 216 216 154
Width: 768
GlyphClass: 2
Flags: W
LayerCount: 2
Fore
SplineSet
128 0 m 1,0,-1
 128 128 l 1,1,-1
 512 128 l 1,2,-1
 512 0 l 1,3,-1
 128 0 l 1,0,-1
0 128 m 1,4,-1
 0 768 l 1,5,-1
 128 768 l 1,6,-1
 128 128 l 1,7,-1
 0 128 l 1,4,-1
512 128 m 1,8,-1
 512 768 l 1,9,-1
 640 768 l 1,10,-1
 640 128 l 1,11,-1
 512 128 l 1,8,-1
128 768 m 1,12,-1
 128 896 l 1,13,-1
 512 896 l 1,14,-1
 512 768 l 1,15,-1
 128 768 l 1,12,-1
EndSplineSet
Validated: 5
EndChar

StartChar: Ugrave
Encoding: 217 217 155
Width: 768
GlyphClass: 2
Flags: W
LayerCount: 2
Fore
SplineSet
128 0 m 1,0,-1
 128 128 l 1,1,-1
 512 128 l 1,2,-1
 512 0 l 1,3,-1
 128 0 l 1,0,-1
0 128 m 1,4,-1
 0 896 l 1,5,-1
 128 896 l 1,6,-1
 128 128 l 1,7,-1
 0 128 l 1,4,-1
512 128 m 1,8,-1
 512 896 l 1,9,-1
 640 896 l 1,10,-1
 640 128 l 1,11,-1
 512 128 l 1,8,-1
EndSplineSet
Validated: 5
EndChar

StartChar: Uacute
Encoding: 218 218 156
Width: 768
GlyphClass: 2
Flags: W
LayerCount: 2
Fore
SplineSet
128 0 m 1,0,-1
 128 128 l 1,1,-1
 512 128 l 1,2,-1
 512 0 l 1,3,-1
 128 0 l 1,0,-1
0 128 m 1,4,-1
 0 896 l 1,5,-1
 128 896 l 1,6,-1
 128 128 l 1,7,-1
 0 128 l 1,4,-1
512 128 m 1,8,-1
 512 896 l 1,9,-1
 640 896 l 1,10,-1
 640 128 l 1,11,-1
 512 128 l 1,8,-1
EndSplineSet
Validated: 5
EndChar

StartChar: Ucircumflex
Encoding: 219 219 157
Width: 768
GlyphClass: 2
Flags: W
LayerCount: 2
Fore
SplineSet
128 0 m 1,0,-1
 128 128 l 1,1,-1
 512 128 l 1,2,-1
 512 0 l 1,3,-1
 128 0 l 1,0,-1
0 128 m 1,4,-1
 0 896 l 1,5,-1
 128 896 l 1,6,-1
 128 128 l 1,7,-1
 0 128 l 1,4,-1
512 128 m 1,8,-1
 512 896 l 1,9,-1
 640 896 l 1,10,-1
 640 128 l 1,11,-1
 512 128 l 1,8,-1
EndSplineSet
Validated: 5
EndChar

StartChar: Udieresis
Encoding: 220 220 158
Width: 768
GlyphClass: 2
Flags: W
LayerCount: 2
Fore
SplineSet
128 0 m 1,0,-1
 128 128 l 1,1,-1
 512 128 l 1,2,-1
 512 0 l 1,3,-1
 128 0 l 1,0,-1
0 128 m 1,4,-1
 0 896 l 1,5,-1
 128 896 l 1,6,-1
 128 128 l 1,7,-1
 0 128 l 1,4,-1
512 128 m 1,8,-1
 512 896 l 1,9,-1
 640 896 l 1,10,-1
 640 128 l 1,11,-1
 512 128 l 1,8,-1
EndSplineSet
Validated: 5
EndChar

StartChar: Yacute
Encoding: 221 221 159
Width: 768
GlyphClass: 2
Flags: W
LayerCount: 2
Fore
SplineSet
256 0 m 1,0,-1
 256 384 l 1,1,-1
 384 384 l 1,2,-1
 384 0 l 1,3,-1
 256 0 l 1,0,-1
128 384 m 1,4,-1
 128 512 l 1,5,-1
 256 512 l 1,6,-1
 256 384 l 1,7,-1
 128 384 l 1,4,-1
384 384 m 1,8,-1
 384 512 l 1,9,-1
 512 512 l 1,10,-1
 512 384 l 1,11,-1
 384 384 l 1,8,-1
0 512 m 1,12,-1
 0 896 l 1,13,-1
 128 896 l 1,14,-1
 128 512 l 1,15,-1
 0 512 l 1,12,-1
512 512 m 1,16,-1
 512 896 l 1,17,-1
 640 896 l 1,18,-1
 640 512 l 1,19,-1
 512 512 l 1,16,-1
EndSplineSet
Validated: 5
EndChar

StartChar: Thorn
Encoding: 222 222 160
Width: 768
GlyphClass: 2
Flags: W
LayerCount: 2
Fore
SplineSet
0 0 m 1,0,-1
 0 896 l 1,1,-1
 640 896 l 1,2,-1
 640 0 l 1,3,-1
 0 0 l 1,0,-1
EndSplineSet
Validated: 1
EndChar

StartChar: germandbls
Encoding: 223 223 161
Width: 768
GlyphClass: 2
Flags: W
LayerCount: 2
Fore
SplineSet
0 0 m 1,0,-1
 0 896 l 1,1,-1
 640 896 l 1,2,-1
 640 0 l 1,3,-1
 0 0 l 1,0,-1
EndSplineSet
Validated: 1
EndChar

StartChar: agrave
Encoding: 224 224 162
Width: 768
GlyphClass: 2
Flags: W
LayerCount: 2
Fore
SplineSet
256 640 m 5,0,-1
 256 768 l 5,1,-1
 384 768 l 5,2,-1
 384 640 l 5,3,-1
 256 640 l 5,0,-1
128 768 m 5,4,-1
 128 896 l 5,5,-1
 256 896 l 5,6,-1
 256 768 l 5,7,-1
 128 768 l 5,4,-1
0 128 m 1,8,-1
 0 256 l 1,9,-1
 128 256 l 1,10,-1
 128 128 l 1,11,-1
 0 128 l 1,8,-1
128 0 m 1,12,-1
 128 128 l 1,13,-1
 512 128 l 1,14,-1
 512 256 l 1,15,-1
 128 256 l 1,16,-1
 128 384 l 1,17,-1
 512 384 l 1,18,-1
 512 512 l 1,19,-1
 640 512 l 1,20,-1
 640 0 l 1,21,-1
 128 0 l 1,12,-1
128 512 m 1,22,-1
 128 640 l 1,23,-1
 512 640 l 1,24,-1
 512 512 l 1,25,-1
 128 512 l 1,22,-1
EndSplineSet
Validated: 5
EndChar

StartChar: aacute
Encoding: 225 225 163
Width: 768
GlyphClass: 2
Flags: W
LayerCount: 2
Fore
SplineSet
0 128 m 1,0,-1
 0 256 l 1,1,-1
 128 256 l 1,2,-1
 128 128 l 1,3,-1
 0 128 l 1,0,-1
128 0 m 1,4,-1
 128 128 l 1,5,-1
 512 128 l 1,6,-1
 512 256 l 1,7,-1
 128 256 l 1,8,-1
 128 384 l 1,9,-1
 512 384 l 1,10,-1
 512 512 l 1,11,-1
 640 512 l 1,12,-1
 640 0 l 1,13,-1
 128 0 l 1,4,-1
128 512 m 1,14,-1
 128 640 l 1,15,-1
 512 640 l 1,16,-1
 512 512 l 1,17,-1
 128 512 l 1,14,-1
EndSplineSet
Validated: 5
EndChar

StartChar: acircumflex
Encoding: 226 226 164
Width: 768
GlyphClass: 2
Flags: W
LayerCount: 2
Fore
SplineSet
0 128 m 1,0,-1
 0 256 l 1,1,-1
 128 256 l 1,2,-1
 128 128 l 1,3,-1
 0 128 l 1,0,-1
128 0 m 1,4,-1
 128 128 l 1,5,-1
 512 128 l 1,6,-1
 512 256 l 1,7,-1
 128 256 l 1,8,-1
 128 384 l 1,9,-1
 512 384 l 1,10,-1
 512 512 l 1,11,-1
 640 512 l 1,12,-1
 640 0 l 1,13,-1
 128 0 l 1,4,-1
128 512 m 1,14,-1
 128 640 l 1,15,-1
 512 640 l 1,16,-1
 512 512 l 1,17,-1
 128 512 l 1,14,-1
EndSplineSet
Validated: 5
EndChar

StartChar: atilde
Encoding: 227 227 165
Width: 768
GlyphClass: 2
Flags: W
LayerCount: 2
Fore
SplineSet
0 128 m 1,0,-1
 0 256 l 1,1,-1
 128 256 l 1,2,-1
 128 128 l 1,3,-1
 0 128 l 1,0,-1
128 0 m 1,4,-1
 128 128 l 1,5,-1
 512 128 l 1,6,-1
 512 256 l 1,7,-1
 128 256 l 1,8,-1
 128 384 l 1,9,-1
 512 384 l 1,10,-1
 512 512 l 1,11,-1
 640 512 l 1,12,-1
 640 0 l 1,13,-1
 128 0 l 1,4,-1
128 512 m 1,14,-1
 128 640 l 1,15,-1
 512 640 l 1,16,-1
 512 512 l 1,17,-1
 128 512 l 1,14,-1
EndSplineSet
Validated: 5
EndChar

StartChar: adieresis
Encoding: 228 228 166
Width: 768
GlyphClass: 2
Flags: W
LayerCount: 2
Fore
SplineSet
0 128 m 1,0,-1
 0 256 l 1,1,-1
 128 256 l 1,2,-1
 128 128 l 1,3,-1
 0 128 l 1,0,-1
128 0 m 1,4,-1
 128 128 l 1,5,-1
 512 128 l 1,6,-1
 512 256 l 1,7,-1
 128 256 l 1,8,-1
 128 384 l 1,9,-1
 512 384 l 1,10,-1
 512 512 l 1,11,-1
 640 512 l 1,12,-1
 640 0 l 1,13,-1
 128 0 l 1,4,-1
128 512 m 1,14,-1
 128 640 l 1,15,-1
 512 640 l 1,16,-1
 512 512 l 1,17,-1
 128 512 l 1,14,-1
EndSplineSet
Validated: 5
EndChar

StartChar: aring
Encoding: 229 229 167
Width: 768
GlyphClass: 2
Flags: W
LayerCount: 2
Fore
SplineSet
0 128 m 1,0,-1
 0 256 l 1,1,-1
 128 256 l 1,2,-1
 128 128 l 1,3,-1
 0 128 l 1,0,-1
128 0 m 1,4,-1
 128 128 l 1,5,-1
 512 128 l 1,6,-1
 512 256 l 1,7,-1
 128 256 l 1,8,-1
 128 384 l 1,9,-1
 512 384 l 1,10,-1
 512 512 l 1,11,-1
 640 512 l 1,12,-1
 640 0 l 1,13,-1
 128 0 l 1,4,-1
128 512 m 1,14,-1
 128 640 l 1,15,-1
 512 640 l 1,16,-1
 512 512 l 1,17,-1
 128 512 l 1,14,-1
EndSplineSet
Validated: 5
EndChar

StartChar: ae
Encoding: 230 230 168
Width: 768
GlyphClass: 2
Flags: W
LayerCount: 2
Fore
SplineSet
0 0 m 1,0,-1
 0 896 l 1,1,-1
 640 896 l 1,2,-1
 640 0 l 1,3,-1
 0 0 l 1,0,-1
EndSplineSet
Validated: 1
EndChar

StartChar: ccedilla
Encoding: 231 231 169
Width: 768
GlyphClass: 2
Flags: W
LayerCount: 2
Fore
SplineSet
128 0 m 1,0,-1
 128 128 l 1,1,-1
 512 128 l 1,2,-1
 512 0 l 1,3,-1
 128 0 l 1,0,-1
512 128 m 1,4,-1
 512 256 l 1,5,-1
 640 256 l 1,6,-1
 640 128 l 1,7,-1
 512 128 l 1,4,-1
0 128 m 1,8,-1
 0 512 l 1,9,-1
 128 512 l 1,10,-1
 128 128 l 1,11,-1
 0 128 l 1,8,-1
128 512 m 1,12,-1
 128 640 l 1,13,-1
 512 640 l 1,14,-1
 512 512 l 1,15,-1
 128 512 l 1,12,-1
EndSplineSet
Validated: 5
EndChar

StartChar: egrave
Encoding: 232 232 170
Width: 768
GlyphClass: 2
Flags: W
LayerCount: 2
Fore
SplineSet
256 640 m 5,0,-1
 256 768 l 5,1,-1
 384 768 l 5,2,-1
 384 640 l 5,3,-1
 256 640 l 5,0,-1
128 768 m 5,4,-1
 128 896 l 5,5,-1
 256 896 l 5,6,-1
 256 768 l 5,7,-1
 128 768 l 5,4,-1
128 0 m 1,8,-1
 128 128 l 1,9,-1
 512 128 l 1,10,-1
 512 0 l 1,11,-1
 128 0 l 1,8,-1
0 128 m 1,12,-1
 0 512 l 1,13,-1
 128 512 l 1,14,-1
 128 384 l 1,15,-1
 512 384 l 1,16,-1
 512 512 l 1,17,-1
 640 512 l 1,18,-1
 640 256 l 1,19,-1
 128 256 l 1,20,-1
 128 128 l 1,21,-1
 0 128 l 1,12,-1
128 512 m 1,22,-1
 128 640 l 1,23,-1
 512 640 l 1,24,-1
 512 512 l 1,25,-1
 128 512 l 1,22,-1
EndSplineSet
Validated: 5
EndChar

StartChar: eacute
Encoding: 233 233 171
Width: 768
GlyphClass: 2
Flags: W
LayerCount: 2
Fore
SplineSet
256 640 m 5,0,-1
 256 768 l 5,1,-1
 384 768 l 5,2,-1
 384 640 l 5,3,-1
 256 640 l 5,0,-1
512 768 m 1029,4,-1
384 768 m 5,5,-1
 384 896 l 5,6,-1
 512 896 l 5,7,-1
 512 768 l 5,8,-1
 384 768 l 5,5,-1
128 0 m 1,9,-1
 128 128 l 1,10,-1
 512 128 l 1,11,-1
 512 0 l 1,12,-1
 128 0 l 1,9,-1
0 128 m 1,13,-1
 0 512 l 1,14,-1
 128 512 l 1,15,-1
 128 384 l 1,16,-1
 512 384 l 1,17,-1
 512 512 l 1,18,-1
 640 512 l 1,19,-1
 640 256 l 1,20,-1
 128 256 l 1,21,-1
 128 128 l 1,22,-1
 0 128 l 1,13,-1
128 512 m 1,23,-1
 128 640 l 1,24,-1
 512 640 l 5,25,-1
 512 512 l 1,26,-1
 128 512 l 1,23,-1
EndSplineSet
Validated: 5
EndChar

StartChar: ecircumflex
Encoding: 234 234 172
Width: 768
GlyphClass: 2
Flags: W
LayerCount: 2
Fore
SplineSet
128 0 m 1,0,-1
 128 128 l 1,1,-1
 512 128 l 1,2,-1
 512 0 l 1,3,-1
 128 0 l 1,0,-1
0 128 m 1,4,-1
 0 512 l 1,5,-1
 128 512 l 1,6,-1
 128 384 l 1,7,-1
 512 384 l 1,8,-1
 512 512 l 1,9,-1
 640 512 l 1,10,-1
 640 256 l 1,11,-1
 128 256 l 1,12,-1
 128 128 l 1,13,-1
 0 128 l 1,4,-1
128 512 m 1,14,-1
 128 640 l 1,15,-1
 512 640 l 1,16,-1
 512 512 l 1,17,-1
 128 512 l 1,14,-1
EndSplineSet
Validated: 5
EndChar

StartChar: edieresis
Encoding: 235 235 173
Width: 768
GlyphClass: 2
Flags: W
LayerCount: 2
Fore
SplineSet
128 0 m 1,0,-1
 128 128 l 1,1,-1
 512 128 l 1,2,-1
 512 0 l 1,3,-1
 128 0 l 1,0,-1
0 128 m 1,4,-1
 0 512 l 1,5,-1
 128 512 l 1,6,-1
 128 384 l 1,7,-1
 512 384 l 1,8,-1
 512 512 l 1,9,-1
 640 512 l 1,10,-1
 640 256 l 1,11,-1
 128 256 l 1,12,-1
 128 128 l 1,13,-1
 0 128 l 1,4,-1
128 512 m 1,14,-1
 128 640 l 1,15,-1
 512 640 l 1,16,-1
 512 512 l 1,17,-1
 128 512 l 1,14,-1
EndSplineSet
Validated: 5
EndChar

StartChar: igrave
Encoding: 236 236 174
Width: 768
GlyphClass: 2
Flags: W
LayerCount: 2
Fore
SplineSet
256 640 m 5,0,-1
 256 768 l 5,1,-1
 384 768 l 5,2,-1
 384 640 l 5,3,-1
 256 640 l 5,0,-1
128 768 m 5,4,-1
 128 896 l 5,5,-1
 256 896 l 5,6,-1
 256 768 l 5,7,-1
 128 768 l 5,4,-1
128 0 m 1,8,-1
 128 128 l 1,9,-1
 256 128 l 1,10,-1
 256 512 l 1,11,-1
 128 512 l 1,12,-1
 128 640 l 1,13,-1
 384 640 l 1,14,-1
 384 128 l 1,15,-1
 512 128 l 1,16,-1
 512 0 l 1,17,-1
 128 0 l 1,8,-1
EndSplineSet
EndChar

StartChar: iacute
Encoding: 237 237 175
Width: 768
GlyphClass: 2
Flags: W
LayerCount: 2
Fore
SplineSet
128 0 m 5,0,-1
 128 128 l 5,1,-1
 256 128 l 5,2,-1
 256 512 l 5,3,-1
 128 512 l 5,4,-1
 128 640 l 5,5,-1
 384 640 l 5,6,-1
 384 128 l 5,7,-1
 512 128 l 5,8,-1
 512 0 l 5,9,-1
 128 0 l 5,0,-1
256 768 m 5,10,-1
 256 896 l 5,11,-1
 384 896 l 5,12,-1
 384 768 l 5,13,-1
 256 768 l 5,10,-1
EndSplineSet
Validated: 1
EndChar

StartChar: icircumflex
Encoding: 238 238 176
Width: 768
GlyphClass: 2
Flags: W
LayerCount: 2
Fore
SplineSet
128 0 m 5,0,-1
 128 128 l 5,1,-1
 256 128 l 5,2,-1
 256 512 l 5,3,-1
 128 512 l 5,4,-1
 128 640 l 5,5,-1
 384 640 l 5,6,-1
 384 128 l 5,7,-1
 512 128 l 5,8,-1
 512 0 l 5,9,-1
 128 0 l 5,0,-1
256 768 m 5,10,-1
 256 896 l 5,11,-1
 384 896 l 5,12,-1
 384 768 l 5,13,-1
 256 768 l 5,10,-1
EndSplineSet
Validated: 1
EndChar

StartChar: idieresis
Encoding: 239 239 177
Width: 768
GlyphClass: 2
Flags: W
LayerCount: 2
Fore
SplineSet
128 0 m 5,0,-1
 128 128 l 5,1,-1
 256 128 l 5,2,-1
 256 512 l 5,3,-1
 128 512 l 5,4,-1
 128 640 l 5,5,-1
 384 640 l 5,6,-1
 384 128 l 5,7,-1
 512 128 l 5,8,-1
 512 0 l 5,9,-1
 128 0 l 5,0,-1
256 768 m 5,10,-1
 256 896 l 5,11,-1
 384 896 l 5,12,-1
 384 768 l 5,13,-1
 256 768 l 5,10,-1
EndSplineSet
Validated: 1
EndChar

StartChar: eth
Encoding: 240 240 178
Width: 768
GlyphClass: 2
Flags: W
LayerCount: 2
Fore
SplineSet
128 0 m 1,0,-1
 128 128 l 1,1,-1
 512 128 l 1,2,-1
 512 0 l 1,3,-1
 128 0 l 1,0,-1
0 128 m 1,4,-1
 0 512 l 1,5,-1
 128 512 l 1,6,-1
 128 128 l 1,7,-1
 0 128 l 1,4,-1
512 128 m 1,8,-1
 512 512 l 1,9,-1
 640 512 l 1,10,-1
 640 128 l 1,11,-1
 512 128 l 1,8,-1
128 512 m 1,12,-1
 128 640 l 1,13,-1
 512 640 l 1,14,-1
 512 512 l 1,15,-1
 128 512 l 1,12,-1
EndSplineSet
Validated: 5
EndChar

StartChar: ntilde
Encoding: 241 241 179
Width: 768
GlyphClass: 2
Flags: W
LayerCount: 2
Fore
SplineSet
512 0 m 1,0,-1
 512 512 l 1,1,-1
 640 512 l 1,2,-1
 640 0 l 1,3,-1
 512 0 l 1,0,-1
0 0 m 1,4,-1
 0 640 l 1,5,-1
 128 640 l 1,6,-1
 128 512 l 1,7,-1
 256 512 l 1,8,-1
 256 384 l 1,9,-1
 128 384 l 1,10,-1
 128 0 l 1,11,-1
 0 0 l 1,4,-1
256 512 m 1,12,-1
 256 640 l 1,13,-1
 512 640 l 1,14,-1
 512 512 l 1,15,-1
 256 512 l 1,12,-1
EndSplineSet
Validated: 5
EndChar

StartChar: ograve
Encoding: 242 242 180
Width: 768
GlyphClass: 2
Flags: W
LayerCount: 2
Fore
SplineSet
256 640 m 5,0,-1
 256 768 l 5,1,-1
 384 768 l 5,2,-1
 384 640 l 5,3,-1
 256 640 l 5,0,-1
128 768 m 5,4,-1
 128 896 l 5,5,-1
 256 896 l 5,6,-1
 256 768 l 5,7,-1
 128 768 l 5,4,-1
128 0 m 1,8,-1
 128 128 l 1,9,-1
 512 128 l 1,10,-1
 512 0 l 1,11,-1
 128 0 l 1,8,-1
0 128 m 1,12,-1
 0 512 l 1,13,-1
 128 512 l 1,14,-1
 128 128 l 1,15,-1
 0 128 l 1,12,-1
512 128 m 1,16,-1
 512 512 l 1,17,-1
 640 512 l 1,18,-1
 640 128 l 1,19,-1
 512 128 l 1,16,-1
128 512 m 1,20,-1
 128 640 l 1,21,-1
 512 640 l 1,22,-1
 512 512 l 1,23,-1
 128 512 l 1,20,-1
EndSplineSet
Validated: 5
EndChar

StartChar: oacute
Encoding: 243 243 181
Width: 768
GlyphClass: 2
Flags: W
LayerCount: 2
Fore
SplineSet
128 0 m 1,0,-1
 128 128 l 1,1,-1
 512 128 l 1,2,-1
 512 0 l 1,3,-1
 128 0 l 1,0,-1
0 128 m 1,4,-1
 0 512 l 1,5,-1
 128 512 l 1,6,-1
 128 128 l 1,7,-1
 0 128 l 1,4,-1
512 128 m 1,8,-1
 512 512 l 1,9,-1
 640 512 l 1,10,-1
 640 128 l 1,11,-1
 512 128 l 1,8,-1
128 512 m 1,12,-1
 128 640 l 1,13,-1
 512 640 l 1,14,-1
 512 512 l 1,15,-1
 128 512 l 1,12,-1
EndSplineSet
Validated: 5
EndChar

StartChar: ocircumflex
Encoding: 244 244 182
Width: 768
GlyphClass: 2
Flags: W
LayerCount: 2
Fore
SplineSet
128 0 m 1,0,-1
 128 128 l 1,1,-1
 512 128 l 1,2,-1
 512 0 l 1,3,-1
 128 0 l 1,0,-1
0 128 m 1,4,-1
 0 512 l 1,5,-1
 128 512 l 1,6,-1
 128 128 l 1,7,-1
 0 128 l 1,4,-1
512 128 m 1,8,-1
 512 512 l 1,9,-1
 640 512 l 1,10,-1
 640 128 l 1,11,-1
 512 128 l 1,8,-1
128 512 m 1,12,-1
 128 640 l 1,13,-1
 512 640 l 1,14,-1
 512 512 l 1,15,-1
 128 512 l 1,12,-1
EndSplineSet
Validated: 5
EndChar

StartChar: otilde
Encoding: 245 245 183
Width: 768
GlyphClass: 2
Flags: W
LayerCount: 2
Fore
SplineSet
128 0 m 1,0,-1
 128 128 l 1,1,-1
 512 128 l 1,2,-1
 512 0 l 1,3,-1
 128 0 l 1,0,-1
0 128 m 1,4,-1
 0 512 l 1,5,-1
 128 512 l 1,6,-1
 128 128 l 1,7,-1
 0 128 l 1,4,-1
512 128 m 1,8,-1
 512 512 l 1,9,-1
 640 512 l 1,10,-1
 640 128 l 1,11,-1
 512 128 l 1,8,-1
128 512 m 1,12,-1
 128 640 l 1,13,-1
 512 640 l 1,14,-1
 512 512 l 1,15,-1
 128 512 l 1,12,-1
EndSplineSet
Validated: 5
EndChar

StartChar: odieresis
Encoding: 246 246 184
Width: 768
GlyphClass: 2
Flags: W
LayerCount: 2
Fore
SplineSet
128 0 m 1,0,-1
 128 128 l 1,1,-1
 512 128 l 1,2,-1
 512 0 l 1,3,-1
 128 0 l 1,0,-1
0 128 m 1,4,-1
 0 512 l 1,5,-1
 128 512 l 1,6,-1
 128 128 l 1,7,-1
 0 128 l 1,4,-1
512 128 m 1,8,-1
 512 512 l 1,9,-1
 640 512 l 1,10,-1
 640 128 l 1,11,-1
 512 128 l 1,8,-1
128 512 m 1,12,-1
 128 640 l 1,13,-1
 512 640 l 1,14,-1
 512 512 l 1,15,-1
 128 512 l 1,12,-1
EndSplineSet
Validated: 5
EndChar

StartChar: divide
Encoding: 247 247 185
Width: 768
GlyphClass: 2
Flags: W
LayerCount: 2
Fore
SplineSet
256 0 m 1,0,-1
 256 128 l 1,1,-1
 384 128 l 1,2,-1
 384 0 l 1,3,-1
 256 0 l 1,0,-1
0 256 m 1,4,-1
 0 384 l 1,5,-1
 640 384 l 1,6,-1
 640 256 l 1,7,-1
 0 256 l 1,4,-1
256 512 m 1,8,-1
 256 640 l 1,9,-1
 384 640 l 1,10,-1
 384 512 l 1,11,-1
 256 512 l 1,8,-1
EndSplineSet
Validated: 1
EndChar

StartChar: oslash
Encoding: 248 248 186
Width: 768
GlyphClass: 2
Flags: W
LayerCount: 2
Fore
SplineSet
128 0 m 1,0,-1
 128 128 l 1,1,-1
 512 128 l 1,2,-1
 512 0 l 1,3,-1
 128 0 l 1,0,-1
0 128 m 1,4,-1
 0 512 l 1,5,-1
 128 512 l 1,6,-1
 128 128 l 1,7,-1
 0 128 l 1,4,-1
512 128 m 1,8,-1
 512 512 l 1,9,-1
 640 512 l 1,10,-1
 640 128 l 1,11,-1
 512 128 l 1,8,-1
128 512 m 1,12,-1
 128 640 l 1,13,-1
 512 640 l 1,14,-1
 512 512 l 1,15,-1
 128 512 l 1,12,-1
EndSplineSet
Validated: 5
EndChar

StartChar: ugrave
Encoding: 249 249 187
Width: 768
GlyphClass: 2
Flags: W
LayerCount: 2
Fore
SplineSet
256 640 m 5,0,-1
 256 768 l 5,1,-1
 384 768 l 5,2,-1
 384 640 l 5,3,-1
 256 640 l 5,0,-1
128 768 m 5,4,-1
 128 896 l 5,5,-1
 256 896 l 5,6,-1
 256 768 l 5,7,-1
 128 768 l 5,4,-1
128 0 m 1,8,-1
 128 128 l 1,9,-1
 512 128 l 1,10,-1
 512 0 l 1,11,-1
 128 0 l 1,8,-1
0 128 m 1,12,-1
 0 640 l 1,13,-1
 128 640 l 1,14,-1
 128 128 l 1,15,-1
 0 128 l 1,12,-1
512 128 m 1,16,-1
 512 640 l 1,17,-1
 640 640 l 1,18,-1
 640 128 l 1,19,-1
 512 128 l 1,16,-1
EndSplineSet
Validated: 5
EndChar

StartChar: uacute
Encoding: 250 250 188
Width: 768
GlyphClass: 2
Flags: W
LayerCount: 2
Fore
SplineSet
128 0 m 1,0,-1
 128 128 l 1,1,-1
 512 128 l 1,2,-1
 512 0 l 1,3,-1
 128 0 l 1,0,-1
0 128 m 1,4,-1
 0 640 l 1,5,-1
 128 640 l 1,6,-1
 128 128 l 1,7,-1
 0 128 l 1,4,-1
512 128 m 1,8,-1
 512 640 l 1,9,-1
 640 640 l 1,10,-1
 640 128 l 1,11,-1
 512 128 l 1,8,-1
EndSplineSet
Validated: 5
EndChar

StartChar: ucircumflex
Encoding: 251 251 189
Width: 768
GlyphClass: 2
Flags: W
LayerCount: 2
Fore
SplineSet
128 0 m 1,0,-1
 128 128 l 1,1,-1
 512 128 l 1,2,-1
 512 0 l 1,3,-1
 128 0 l 1,0,-1
0 128 m 1,4,-1
 0 640 l 1,5,-1
 128 640 l 1,6,-1
 128 128 l 1,7,-1
 0 128 l 1,4,-1
512 128 m 1,8,-1
 512 640 l 1,9,-1
 640 640 l 1,10,-1
 640 128 l 1,11,-1
 512 128 l 1,8,-1
EndSplineSet
Validated: 5
EndChar

StartChar: udieresis
Encoding: 252 252 190
Width: 768
GlyphClass: 2
Flags: W
LayerCount: 2
Fore
SplineSet
128 0 m 1,0,-1
 128 128 l 1,1,-1
 512 128 l 1,2,-1
 512 0 l 1,3,-1
 128 0 l 1,0,-1
0 128 m 1,4,-1
 0 640 l 1,5,-1
 128 640 l 1,6,-1
 128 128 l 1,7,-1
 0 128 l 1,4,-1
512 128 m 1,8,-1
 512 640 l 1,9,-1
 640 640 l 1,10,-1
 640 128 l 1,11,-1
 512 128 l 1,8,-1
EndSplineSet
Validated: 5
EndChar

StartChar: yacute
Encoding: 253 253 191
Width: 768
GlyphClass: 2
Flags: W
LayerCount: 2
Fore
SplineSet
128 0 m 1,0,-1
 128 128 l 1,1,-1
 512 128 l 1,2,-1
 512 0 l 1,3,-1
 128 0 l 1,0,-1
0 384 m 1,4,-1
 0 640 l 1,5,-1
 128 640 l 1,6,-1
 128 384 l 1,7,-1
 0 384 l 1,4,-1
512 128 m 1,8,-1
 512 256 l 1,9,-1
 128 256 l 1,10,-1
 128 384 l 1,11,-1
 512 384 l 1,12,-1
 512 640 l 1,13,-1
 640 640 l 1,14,-1
 640 128 l 1,15,-1
 512 128 l 1,8,-1
EndSplineSet
Validated: 5
EndChar

StartChar: thorn
Encoding: 254 254 192
Width: 768
GlyphClass: 2
Flags: W
LayerCount: 2
Fore
SplineSet
0 0 m 1,0,-1
 0 896 l 1,1,-1
 640 896 l 1,2,-1
 640 0 l 1,3,-1
 0 0 l 1,0,-1
EndSplineSet
Validated: 1
EndChar

StartChar: ydieresis
Encoding: 255 255 193
Width: 768
GlyphClass: 2
Flags: W
LayerCount: 2
Fore
SplineSet
128 0 m 1,0,-1
 128 128 l 1,1,-1
 512 128 l 1,2,-1
 512 0 l 1,3,-1
 128 0 l 1,0,-1
0 384 m 1,4,-1
 0 640 l 1,5,-1
 128 640 l 1,6,-1
 128 384 l 1,7,-1
 0 384 l 1,4,-1
512 128 m 1,8,-1
 512 256 l 1,9,-1
 128 256 l 1,10,-1
 128 384 l 1,11,-1
 512 384 l 1,12,-1
 512 640 l 1,13,-1
 640 640 l 1,14,-1
 640 128 l 1,15,-1
 512 128 l 1,8,-1
EndSplineSet
Validated: 5
EndChar

StartChar: Ydieresis
Encoding: 376 376 194
Width: 768
GlyphClass: 2
Flags: W
LayerCount: 2
Fore
SplineSet
256 0 m 1,0,-1
 256 384 l 1,1,-1
 384 384 l 1,2,-1
 384 0 l 1,3,-1
 256 0 l 1,0,-1
128 384 m 1,4,-1
 128 512 l 1,5,-1
 256 512 l 1,6,-1
 256 384 l 1,7,-1
 128 384 l 1,4,-1
384 384 m 1,8,-1
 384 512 l 1,9,-1
 512 512 l 1,10,-1
 512 384 l 1,11,-1
 384 384 l 1,8,-1
0 512 m 1,12,-1
 0 896 l 1,13,-1
 128 896 l 1,14,-1
 128 512 l 1,15,-1
 0 512 l 1,12,-1
512 512 m 1,16,-1
 512 896 l 1,17,-1
 640 896 l 1,18,-1
 640 512 l 1,19,-1
 512 512 l 1,16,-1
EndSplineSet
Validated: 5
EndChar

StartChar: uni0180
Encoding: 384 384 195
Width: 768
GlyphClass: 2
Flags: W
LayerCount: 2
Fore
SplineSet
0 0 m 1,0,-1
 0 896 l 1,1,-1
 640 896 l 1,2,-1
 640 0 l 1,3,-1
 0 0 l 1,0,-1
EndSplineSet
Validated: 1
EndChar

StartChar: uni0181
Encoding: 385 385 196
Width: 768
GlyphClass: 2
Flags: W
LayerCount: 2
Fore
SplineSet
0 0 m 1,0,-1
 0 896 l 1,1,-1
 640 896 l 1,2,-1
 640 0 l 1,3,-1
 0 0 l 1,0,-1
EndSplineSet
Validated: 1
EndChar

StartChar: uni0182
Encoding: 386 386 197
Width: 768
GlyphClass: 2
Flags: W
LayerCount: 2
Fore
SplineSet
0 0 m 1,0,-1
 0 896 l 1,1,-1
 640 896 l 1,2,-1
 640 0 l 1,3,-1
 0 0 l 1,0,-1
EndSplineSet
Validated: 1
EndChar

StartChar: uni0183
Encoding: 387 387 198
Width: 768
GlyphClass: 2
Flags: W
LayerCount: 2
Fore
SplineSet
0 0 m 1,0,-1
 0 896 l 1,1,-1
 640 896 l 1,2,-1
 640 0 l 1,3,-1
 0 0 l 1,0,-1
EndSplineSet
Validated: 1
EndChar

StartChar: uni0184
Encoding: 388 388 199
Width: 768
GlyphClass: 2
Flags: W
LayerCount: 2
Fore
SplineSet
0 0 m 1,0,-1
 0 896 l 1,1,-1
 640 896 l 1,2,-1
 640 0 l 1,3,-1
 0 0 l 1,0,-1
EndSplineSet
Validated: 1
EndChar

StartChar: uni0185
Encoding: 389 389 200
Width: 768
GlyphClass: 2
Flags: W
LayerCount: 2
Fore
SplineSet
0 0 m 1,0,-1
 0 896 l 1,1,-1
 640 896 l 1,2,-1
 640 0 l 1,3,-1
 0 0 l 1,0,-1
EndSplineSet
Validated: 1
EndChar

StartChar: uni0186
Encoding: 390 390 201
Width: 768
GlyphClass: 2
Flags: W
LayerCount: 2
Fore
SplineSet
0 0 m 1,0,-1
 0 896 l 1,1,-1
 640 896 l 1,2,-1
 640 0 l 1,3,-1
 0 0 l 1,0,-1
EndSplineSet
Validated: 1
EndChar

StartChar: uni0187
Encoding: 391 391 202
Width: 768
GlyphClass: 2
Flags: W
LayerCount: 2
Fore
SplineSet
0 0 m 1,0,-1
 0 896 l 1,1,-1
 640 896 l 1,2,-1
 640 0 l 1,3,-1
 0 0 l 1,0,-1
EndSplineSet
Validated: 1
EndChar

StartChar: uni0188
Encoding: 392 392 203
Width: 768
GlyphClass: 2
Flags: W
LayerCount: 2
Fore
SplineSet
0 0 m 1,0,-1
 0 896 l 1,1,-1
 640 896 l 1,2,-1
 640 0 l 1,3,-1
 0 0 l 1,0,-1
EndSplineSet
Validated: 1
EndChar

StartChar: uni0189
Encoding: 393 393 204
Width: 768
GlyphClass: 2
Flags: W
LayerCount: 2
Fore
SplineSet
0 0 m 1,0,-1
 0 896 l 1,1,-1
 640 896 l 1,2,-1
 640 0 l 1,3,-1
 0 0 l 1,0,-1
EndSplineSet
Validated: 1
EndChar

StartChar: uni018A
Encoding: 394 394 205
Width: 768
GlyphClass: 2
Flags: W
LayerCount: 2
Fore
SplineSet
0 0 m 1,0,-1
 0 896 l 1,1,-1
 640 896 l 1,2,-1
 640 0 l 1,3,-1
 0 0 l 1,0,-1
EndSplineSet
Validated: 1
EndChar

StartChar: uni018B
Encoding: 395 395 206
Width: 768
GlyphClass: 2
Flags: W
LayerCount: 2
Fore
SplineSet
0 0 m 1,0,-1
 0 896 l 1,1,-1
 640 896 l 1,2,-1
 640 0 l 1,3,-1
 0 0 l 1,0,-1
EndSplineSet
Validated: 1
EndChar

StartChar: uni018C
Encoding: 396 396 207
Width: 768
GlyphClass: 2
Flags: W
LayerCount: 2
Fore
SplineSet
0 0 m 1,0,-1
 0 896 l 1,1,-1
 640 896 l 1,2,-1
 640 0 l 1,3,-1
 0 0 l 1,0,-1
EndSplineSet
Validated: 1
EndChar

StartChar: uni018D
Encoding: 397 397 208
Width: 768
GlyphClass: 2
Flags: W
LayerCount: 2
Fore
SplineSet
0 0 m 1,0,-1
 0 896 l 1,1,-1
 640 896 l 1,2,-1
 640 0 l 1,3,-1
 0 0 l 1,0,-1
EndSplineSet
Validated: 1
EndChar

StartChar: uni018E
Encoding: 398 398 209
Width: 768
GlyphClass: 2
Flags: W
LayerCount: 2
Fore
SplineSet
0 0 m 1,0,-1
 0 896 l 1,1,-1
 640 896 l 1,2,-1
 640 0 l 1,3,-1
 0 0 l 1,0,-1
EndSplineSet
Validated: 1
EndChar

StartChar: uni018F
Encoding: 399 399 210
Width: 768
GlyphClass: 2
Flags: W
LayerCount: 2
Fore
SplineSet
0 0 m 1,0,-1
 0 896 l 1,1,-1
 640 896 l 1,2,-1
 640 0 l 1,3,-1
 0 0 l 1,0,-1
EndSplineSet
Validated: 1
EndChar

StartChar: uni0190
Encoding: 400 400 211
Width: 768
GlyphClass: 2
Flags: W
LayerCount: 2
Fore
SplineSet
0 0 m 1,0,-1
 0 896 l 1,1,-1
 640 896 l 1,2,-1
 640 0 l 1,3,-1
 0 0 l 1,0,-1
EndSplineSet
Validated: 1
EndChar

StartChar: uni0191
Encoding: 401 401 212
Width: 768
GlyphClass: 2
Flags: W
LayerCount: 2
Fore
SplineSet
0 0 m 1,0,-1
 0 896 l 1,1,-1
 640 896 l 1,2,-1
 640 0 l 1,3,-1
 0 0 l 1,0,-1
EndSplineSet
Validated: 1
EndChar

StartChar: florin
Encoding: 402 402 213
Width: 768
GlyphClass: 2
Flags: W
LayerCount: 2
Fore
SplineSet
0 0 m 1,0,-1
 0 896 l 1,1,-1
 640 896 l 1,2,-1
 640 0 l 1,3,-1
 0 0 l 1,0,-1
EndSplineSet
Validated: 1
EndChar

StartChar: uni0193
Encoding: 403 403 214
Width: 768
GlyphClass: 2
Flags: W
LayerCount: 2
Fore
SplineSet
0 0 m 1,0,-1
 0 896 l 1,1,-1
 640 896 l 1,2,-1
 640 0 l 1,3,-1
 0 0 l 1,0,-1
EndSplineSet
Validated: 1
EndChar

StartChar: uni0194
Encoding: 404 404 215
Width: 768
GlyphClass: 2
Flags: W
LayerCount: 2
Fore
SplineSet
0 0 m 1,0,-1
 0 896 l 1,1,-1
 640 896 l 1,2,-1
 640 0 l 1,3,-1
 0 0 l 1,0,-1
EndSplineSet
Validated: 1
EndChar

StartChar: uni0195
Encoding: 405 405 216
Width: 768
GlyphClass: 2
Flags: W
LayerCount: 2
Fore
SplineSet
0 0 m 1,0,-1
 0 896 l 1,1,-1
 640 896 l 1,2,-1
 640 0 l 1,3,-1
 0 0 l 1,0,-1
EndSplineSet
Validated: 1
EndChar

StartChar: uni0196
Encoding: 406 406 217
Width: 768
GlyphClass: 2
Flags: W
LayerCount: 2
Fore
SplineSet
0 0 m 1,0,-1
 0 896 l 1,1,-1
 640 896 l 1,2,-1
 640 0 l 1,3,-1
 0 0 l 1,0,-1
EndSplineSet
Validated: 1
EndChar

StartChar: uni0197
Encoding: 407 407 218
Width: 768
GlyphClass: 2
Flags: W
LayerCount: 2
Fore
SplineSet
0 0 m 1,0,-1
 0 896 l 1,1,-1
 640 896 l 1,2,-1
 640 0 l 1,3,-1
 0 0 l 1,0,-1
EndSplineSet
Validated: 1
EndChar

StartChar: uni0198
Encoding: 408 408 219
Width: 768
GlyphClass: 2
Flags: W
LayerCount: 2
Fore
SplineSet
0 0 m 1,0,-1
 0 896 l 1,1,-1
 640 896 l 1,2,-1
 640 0 l 1,3,-1
 0 0 l 1,0,-1
EndSplineSet
Validated: 1
EndChar

StartChar: uni0199
Encoding: 409 409 220
Width: 768
GlyphClass: 2
Flags: W
LayerCount: 2
Fore
SplineSet
0 0 m 1,0,-1
 0 896 l 1,1,-1
 640 896 l 1,2,-1
 640 0 l 1,3,-1
 0 0 l 1,0,-1
EndSplineSet
Validated: 1
EndChar

StartChar: uni019A
Encoding: 410 410 221
Width: 768
GlyphClass: 2
Flags: W
LayerCount: 2
Fore
SplineSet
0 0 m 1,0,-1
 0 896 l 1,1,-1
 640 896 l 1,2,-1
 640 0 l 1,3,-1
 0 0 l 1,0,-1
EndSplineSet
Validated: 1
EndChar

StartChar: uni019B
Encoding: 411 411 222
Width: 768
GlyphClass: 2
Flags: W
LayerCount: 2
Fore
SplineSet
0 0 m 1,0,-1
 0 896 l 1,1,-1
 640 896 l 1,2,-1
 640 0 l 1,3,-1
 0 0 l 1,0,-1
EndSplineSet
Validated: 1
EndChar

StartChar: uni019C
Encoding: 412 412 223
Width: 768
GlyphClass: 2
Flags: W
LayerCount: 2
Fore
SplineSet
0 0 m 1,0,-1
 0 896 l 1,1,-1
 640 896 l 1,2,-1
 640 0 l 1,3,-1
 0 0 l 1,0,-1
EndSplineSet
Validated: 1
EndChar

StartChar: uni019D
Encoding: 413 413 224
Width: 768
GlyphClass: 2
Flags: W
LayerCount: 2
Fore
SplineSet
0 0 m 1,0,-1
 0 896 l 1,1,-1
 640 896 l 1,2,-1
 640 0 l 1,3,-1
 0 0 l 1,0,-1
EndSplineSet
Validated: 1
EndChar

StartChar: uni019E
Encoding: 414 414 225
Width: 768
GlyphClass: 2
Flags: W
LayerCount: 2
Fore
SplineSet
0 0 m 1,0,-1
 0 896 l 1,1,-1
 640 896 l 1,2,-1
 640 0 l 1,3,-1
 0 0 l 1,0,-1
EndSplineSet
Validated: 1
EndChar

StartChar: uni019F
Encoding: 415 415 226
Width: 768
GlyphClass: 2
Flags: W
LayerCount: 2
Fore
SplineSet
0 0 m 1,0,-1
 0 896 l 1,1,-1
 640 896 l 1,2,-1
 640 0 l 1,3,-1
 0 0 l 1,0,-1
EndSplineSet
Validated: 1
EndChar

StartChar: Ohorn
Encoding: 416 416 227
Width: 768
GlyphClass: 2
Flags: W
LayerCount: 2
Fore
SplineSet
0 0 m 1,0,-1
 0 896 l 1,1,-1
 640 896 l 1,2,-1
 640 0 l 1,3,-1
 0 0 l 1,0,-1
EndSplineSet
Validated: 1
EndChar

StartChar: ohorn
Encoding: 417 417 228
Width: 768
GlyphClass: 2
Flags: W
LayerCount: 2
Fore
SplineSet
0 0 m 1,0,-1
 0 896 l 1,1,-1
 640 896 l 1,2,-1
 640 0 l 1,3,-1
 0 0 l 1,0,-1
EndSplineSet
Validated: 1
EndChar

StartChar: uni01A2
Encoding: 418 418 229
Width: 768
GlyphClass: 2
Flags: W
LayerCount: 2
Fore
SplineSet
0 0 m 1,0,-1
 0 896 l 1,1,-1
 640 896 l 1,2,-1
 640 0 l 1,3,-1
 0 0 l 1,0,-1
EndSplineSet
Validated: 1
EndChar

StartChar: uni01A3
Encoding: 419 419 230
Width: 768
GlyphClass: 2
Flags: W
LayerCount: 2
Fore
SplineSet
0 0 m 1,0,-1
 0 896 l 1,1,-1
 640 896 l 1,2,-1
 640 0 l 1,3,-1
 0 0 l 1,0,-1
EndSplineSet
Validated: 1
EndChar

StartChar: uni01A4
Encoding: 420 420 231
Width: 768
GlyphClass: 2
Flags: W
LayerCount: 2
Fore
SplineSet
0 0 m 1,0,-1
 0 896 l 1,1,-1
 640 896 l 1,2,-1
 640 0 l 1,3,-1
 0 0 l 1,0,-1
EndSplineSet
Validated: 1
EndChar

StartChar: uni01A5
Encoding: 421 421 232
Width: 768
GlyphClass: 2
Flags: W
LayerCount: 2
Fore
SplineSet
0 0 m 1,0,-1
 0 896 l 1,1,-1
 640 896 l 1,2,-1
 640 0 l 1,3,-1
 0 0 l 1,0,-1
EndSplineSet
Validated: 1
EndChar

StartChar: uni01A6
Encoding: 422 422 233
Width: 768
GlyphClass: 2
Flags: W
LayerCount: 2
Fore
SplineSet
0 0 m 1,0,-1
 0 896 l 1,1,-1
 640 896 l 1,2,-1
 640 0 l 1,3,-1
 0 0 l 1,0,-1
EndSplineSet
Validated: 1
EndChar

StartChar: uni01A7
Encoding: 423 423 234
Width: 768
GlyphClass: 2
Flags: W
LayerCount: 2
Fore
SplineSet
0 0 m 1,0,-1
 0 896 l 1,1,-1
 640 896 l 1,2,-1
 640 0 l 1,3,-1
 0 0 l 1,0,-1
EndSplineSet
Validated: 1
EndChar

StartChar: uni01A8
Encoding: 424 424 235
Width: 768
GlyphClass: 2
Flags: W
LayerCount: 2
Fore
SplineSet
0 0 m 1,0,-1
 0 896 l 1,1,-1
 640 896 l 1,2,-1
 640 0 l 1,3,-1
 0 0 l 1,0,-1
EndSplineSet
Validated: 1
EndChar

StartChar: uni01A9
Encoding: 425 425 236
Width: 768
GlyphClass: 2
Flags: W
LayerCount: 2
Fore
SplineSet
0 0 m 1,0,-1
 0 896 l 1,1,-1
 640 896 l 1,2,-1
 640 0 l 1,3,-1
 0 0 l 1,0,-1
EndSplineSet
Validated: 1
EndChar

StartChar: uni01AA
Encoding: 426 426 237
Width: 768
GlyphClass: 2
Flags: W
LayerCount: 2
Fore
SplineSet
0 0 m 1,0,-1
 0 896 l 1,1,-1
 640 896 l 1,2,-1
 640 0 l 1,3,-1
 0 0 l 1,0,-1
EndSplineSet
Validated: 1
EndChar

StartChar: uni01AB
Encoding: 427 427 238
Width: 768
GlyphClass: 2
Flags: W
LayerCount: 2
Fore
SplineSet
0 0 m 1,0,-1
 0 896 l 1,1,-1
 640 896 l 1,2,-1
 640 0 l 1,3,-1
 0 0 l 1,0,-1
EndSplineSet
Validated: 1
EndChar

StartChar: uni01AC
Encoding: 428 428 239
Width: 768
GlyphClass: 2
Flags: W
LayerCount: 2
Fore
SplineSet
0 0 m 1,0,-1
 0 896 l 1,1,-1
 640 896 l 1,2,-1
 640 0 l 1,3,-1
 0 0 l 1,0,-1
EndSplineSet
Validated: 1
EndChar

StartChar: uni01AD
Encoding: 429 429 240
Width: 768
GlyphClass: 2
Flags: W
LayerCount: 2
Fore
SplineSet
0 0 m 1,0,-1
 0 896 l 1,1,-1
 640 896 l 1,2,-1
 640 0 l 1,3,-1
 0 0 l 1,0,-1
EndSplineSet
Validated: 1
EndChar

StartChar: uni01AE
Encoding: 430 430 241
Width: 768
GlyphClass: 2
Flags: W
LayerCount: 2
Fore
SplineSet
0 0 m 1,0,-1
 0 896 l 1,1,-1
 640 896 l 1,2,-1
 640 0 l 1,3,-1
 0 0 l 1,0,-1
EndSplineSet
Validated: 1
EndChar

StartChar: Uhorn
Encoding: 431 431 242
Width: 768
GlyphClass: 2
Flags: W
LayerCount: 2
Fore
SplineSet
0 0 m 1,0,-1
 0 896 l 1,1,-1
 640 896 l 1,2,-1
 640 0 l 1,3,-1
 0 0 l 1,0,-1
EndSplineSet
Validated: 1
EndChar

StartChar: uhorn
Encoding: 432 432 243
Width: 768
GlyphClass: 2
Flags: W
LayerCount: 2
Fore
SplineSet
0 0 m 1,0,-1
 0 896 l 1,1,-1
 640 896 l 1,2,-1
 640 0 l 1,3,-1
 0 0 l 1,0,-1
EndSplineSet
Validated: 1
EndChar

StartChar: uni01B1
Encoding: 433 433 244
Width: 768
GlyphClass: 2
Flags: W
LayerCount: 2
Fore
SplineSet
0 0 m 1,0,-1
 0 896 l 1,1,-1
 640 896 l 1,2,-1
 640 0 l 1,3,-1
 0 0 l 1,0,-1
EndSplineSet
Validated: 1
EndChar

StartChar: uni01B2
Encoding: 434 434 245
Width: 768
GlyphClass: 2
Flags: W
LayerCount: 2
Fore
SplineSet
0 0 m 1,0,-1
 0 896 l 1,1,-1
 640 896 l 1,2,-1
 640 0 l 1,3,-1
 0 0 l 1,0,-1
EndSplineSet
Validated: 1
EndChar

StartChar: uni01B3
Encoding: 435 435 246
Width: 768
GlyphClass: 2
Flags: W
LayerCount: 2
Fore
SplineSet
0 0 m 1,0,-1
 0 896 l 1,1,-1
 640 896 l 1,2,-1
 640 0 l 1,3,-1
 0 0 l 1,0,-1
EndSplineSet
Validated: 1
EndChar

StartChar: uni01B4
Encoding: 436 436 247
Width: 768
GlyphClass: 2
Flags: W
LayerCount: 2
Fore
SplineSet
0 0 m 1,0,-1
 0 896 l 1,1,-1
 640 896 l 1,2,-1
 640 0 l 1,3,-1
 0 0 l 1,0,-1
EndSplineSet
Validated: 1
EndChar

StartChar: uni01B5
Encoding: 437 437 248
Width: 768
GlyphClass: 2
Flags: W
LayerCount: 2
Fore
SplineSet
0 0 m 1,0,-1
 0 896 l 1,1,-1
 640 896 l 1,2,-1
 640 0 l 1,3,-1
 0 0 l 1,0,-1
EndSplineSet
Validated: 1
EndChar

StartChar: uni01B6
Encoding: 438 438 249
Width: 768
GlyphClass: 2
Flags: W
LayerCount: 2
Fore
SplineSet
0 0 m 1,0,-1
 0 896 l 1,1,-1
 640 896 l 1,2,-1
 640 0 l 1,3,-1
 0 0 l 1,0,-1
EndSplineSet
Validated: 1
EndChar

StartChar: uni01B7
Encoding: 439 439 250
Width: 768
GlyphClass: 2
Flags: W
LayerCount: 2
Fore
SplineSet
0 0 m 1,0,-1
 0 896 l 1,1,-1
 640 896 l 1,2,-1
 640 0 l 1,3,-1
 0 0 l 1,0,-1
EndSplineSet
Validated: 1
EndChar

StartChar: uni01B8
Encoding: 440 440 251
Width: 768
GlyphClass: 2
Flags: W
LayerCount: 2
Fore
SplineSet
0 0 m 1,0,-1
 0 896 l 1,1,-1
 640 896 l 1,2,-1
 640 0 l 1,3,-1
 0 0 l 1,0,-1
EndSplineSet
Validated: 1
EndChar

StartChar: uni01B9
Encoding: 441 441 252
Width: 768
GlyphClass: 2
Flags: W
LayerCount: 2
Fore
SplineSet
0 0 m 1,0,-1
 0 896 l 1,1,-1
 640 896 l 1,2,-1
 640 0 l 1,3,-1
 0 0 l 1,0,-1
EndSplineSet
Validated: 1
EndChar

StartChar: uni01BA
Encoding: 442 442 253
Width: 768
GlyphClass: 2
Flags: W
LayerCount: 2
Fore
SplineSet
0 0 m 1,0,-1
 0 896 l 1,1,-1
 640 896 l 1,2,-1
 640 0 l 1,3,-1
 0 0 l 1,0,-1
EndSplineSet
Validated: 1
EndChar

StartChar: uni01BB
Encoding: 443 443 254
Width: 768
GlyphClass: 2
Flags: W
LayerCount: 2
Fore
SplineSet
0 0 m 1,0,-1
 0 896 l 1,1,-1
 640 896 l 1,2,-1
 640 0 l 1,3,-1
 0 0 l 1,0,-1
EndSplineSet
Validated: 1
EndChar

StartChar: uni01BC
Encoding: 444 444 255
Width: 768
GlyphClass: 2
Flags: W
LayerCount: 2
Fore
SplineSet
0 0 m 1,0,-1
 0 896 l 1,1,-1
 640 896 l 1,2,-1
 640 0 l 1,3,-1
 0 0 l 1,0,-1
EndSplineSet
Validated: 1
EndChar

StartChar: uni01BD
Encoding: 445 445 256
Width: 768
GlyphClass: 2
Flags: W
LayerCount: 2
Fore
SplineSet
0 0 m 1,0,-1
 0 896 l 1,1,-1
 640 896 l 1,2,-1
 640 0 l 1,3,-1
 0 0 l 1,0,-1
EndSplineSet
Validated: 1
EndChar

StartChar: uni01BE
Encoding: 446 446 257
Width: 768
GlyphClass: 2
Flags: W
LayerCount: 2
Fore
SplineSet
0 0 m 1,0,-1
 0 896 l 1,1,-1
 640 896 l 1,2,-1
 640 0 l 1,3,-1
 0 0 l 1,0,-1
EndSplineSet
Validated: 1
EndChar

StartChar: uni01BF
Encoding: 447 447 258
Width: 768
GlyphClass: 2
Flags: W
LayerCount: 2
Fore
SplineSet
0 0 m 1,0,-1
 0 896 l 1,1,-1
 640 896 l 1,2,-1
 640 0 l 1,3,-1
 0 0 l 1,0,-1
EndSplineSet
Validated: 1
EndChar

StartChar: uni01C0
Encoding: 448 448 259
Width: 768
GlyphClass: 2
Flags: W
LayerCount: 2
Fore
SplineSet
0 0 m 1,0,-1
 0 896 l 1,1,-1
 640 896 l 1,2,-1
 640 0 l 1,3,-1
 0 0 l 1,0,-1
EndSplineSet
Validated: 1
EndChar

StartChar: uni01C1
Encoding: 449 449 260
Width: 768
GlyphClass: 2
Flags: W
LayerCount: 2
Fore
SplineSet
0 0 m 1,0,-1
 0 896 l 1,1,-1
 640 896 l 1,2,-1
 640 0 l 1,3,-1
 0 0 l 1,0,-1
EndSplineSet
Validated: 1
EndChar

StartChar: uni01C2
Encoding: 450 450 261
Width: 768
GlyphClass: 2
Flags: W
LayerCount: 2
Fore
SplineSet
0 0 m 1,0,-1
 0 896 l 1,1,-1
 640 896 l 1,2,-1
 640 0 l 1,3,-1
 0 0 l 1,0,-1
EndSplineSet
Validated: 1
EndChar

StartChar: uni01C3
Encoding: 451 451 262
Width: 768
GlyphClass: 2
Flags: W
LayerCount: 2
Fore
SplineSet
0 0 m 1,0,-1
 0 896 l 1,1,-1
 640 896 l 1,2,-1
 640 0 l 1,3,-1
 0 0 l 1,0,-1
EndSplineSet
Validated: 1
EndChar

StartChar: uni01C4
Encoding: 452 452 263
Width: 768
GlyphClass: 2
Flags: W
LayerCount: 2
Fore
SplineSet
0 0 m 1,0,-1
 0 896 l 1,1,-1
 640 896 l 1,2,-1
 640 0 l 1,3,-1
 0 0 l 1,0,-1
EndSplineSet
Validated: 1
EndChar

StartChar: uni01C5
Encoding: 453 453 264
Width: 768
GlyphClass: 2
Flags: W
LayerCount: 2
Fore
SplineSet
0 0 m 1,0,-1
 0 896 l 1,1,-1
 640 896 l 1,2,-1
 640 0 l 1,3,-1
 0 0 l 1,0,-1
EndSplineSet
Validated: 1
EndChar

StartChar: uni01C6
Encoding: 454 454 265
Width: 768
GlyphClass: 2
Flags: W
LayerCount: 2
Fore
SplineSet
0 0 m 1,0,-1
 0 896 l 1,1,-1
 640 896 l 1,2,-1
 640 0 l 1,3,-1
 0 0 l 1,0,-1
EndSplineSet
Validated: 1
EndChar

StartChar: uni01C7
Encoding: 455 455 266
Width: 768
GlyphClass: 2
Flags: W
LayerCount: 2
Fore
SplineSet
0 0 m 1,0,-1
 0 896 l 1,1,-1
 640 896 l 1,2,-1
 640 0 l 1,3,-1
 0 0 l 1,0,-1
EndSplineSet
Validated: 1
EndChar

StartChar: uni01C8
Encoding: 456 456 267
Width: 768
GlyphClass: 2
Flags: W
LayerCount: 2
Fore
SplineSet
0 0 m 1,0,-1
 0 896 l 1,1,-1
 640 896 l 1,2,-1
 640 0 l 1,3,-1
 0 0 l 1,0,-1
EndSplineSet
Validated: 1
EndChar

StartChar: uni01C9
Encoding: 457 457 268
Width: 768
GlyphClass: 2
Flags: W
LayerCount: 2
Fore
SplineSet
0 0 m 1,0,-1
 0 896 l 1,1,-1
 640 896 l 1,2,-1
 640 0 l 1,3,-1
 0 0 l 1,0,-1
EndSplineSet
Validated: 1
EndChar

StartChar: uni01CA
Encoding: 458 458 269
Width: 768
GlyphClass: 2
Flags: W
LayerCount: 2
Fore
SplineSet
0 0 m 1,0,-1
 0 896 l 1,1,-1
 640 896 l 1,2,-1
 640 0 l 1,3,-1
 0 0 l 1,0,-1
EndSplineSet
Validated: 1
EndChar

StartChar: uni01CB
Encoding: 459 459 270
Width: 768
GlyphClass: 2
Flags: W
LayerCount: 2
Fore
SplineSet
0 0 m 1,0,-1
 0 896 l 1,1,-1
 640 896 l 1,2,-1
 640 0 l 1,3,-1
 0 0 l 1,0,-1
EndSplineSet
Validated: 1
EndChar

StartChar: uni01CC
Encoding: 460 460 271
Width: 768
GlyphClass: 2
Flags: W
LayerCount: 2
Fore
SplineSet
0 0 m 1,0,-1
 0 896 l 1,1,-1
 640 896 l 1,2,-1
 640 0 l 1,3,-1
 0 0 l 1,0,-1
EndSplineSet
Validated: 1
EndChar

StartChar: uni01CD
Encoding: 461 461 272
Width: 768
GlyphClass: 2
Flags: W
LayerCount: 2
Fore
SplineSet
0 0 m 1,0,-1
 0 768 l 1,1,-1
 128 768 l 1,2,-1
 128 512 l 1,3,-1
 512 512 l 1,4,-1
 512 768 l 1,5,-1
 640 768 l 1,6,-1
 640 0 l 1,7,-1
 512 0 l 1,8,-1
 512 384 l 1,9,-1
 128 384 l 1,10,-1
 128 0 l 1,11,-1
 0 0 l 1,0,-1
128 768 m 1,12,-1
 128 896 l 1,13,-1
 512 896 l 1,14,-1
 512 768 l 1,15,-1
 128 768 l 1,12,-1
EndSplineSet
Validated: 5
EndChar

StartChar: uni01CE
Encoding: 462 462 273
Width: 768
GlyphClass: 2
Flags: W
LayerCount: 2
Fore
SplineSet
0 128 m 1,0,-1
 0 256 l 1,1,-1
 128 256 l 1,2,-1
 128 128 l 1,3,-1
 0 128 l 1,0,-1
128 0 m 1,4,-1
 128 128 l 1,5,-1
 512 128 l 1,6,-1
 512 256 l 1,7,-1
 128 256 l 1,8,-1
 128 384 l 1,9,-1
 512 384 l 1,10,-1
 512 512 l 1,11,-1
 640 512 l 1,12,-1
 640 0 l 1,13,-1
 128 0 l 1,4,-1
128 512 m 1,14,-1
 128 640 l 1,15,-1
 512 640 l 1,16,-1
 512 512 l 1,17,-1
 128 512 l 1,14,-1
EndSplineSet
Validated: 5
EndChar

StartChar: uni01CF
Encoding: 463 463 274
Width: 768
GlyphClass: 2
Flags: W
LayerCount: 2
Fore
SplineSet
128 0 m 5,0,-1
 128 128 l 5,1,-1
 256 128 l 5,2,-1
 256 768 l 5,3,-1
 128 768 l 5,4,-1
 128 896 l 5,5,-1
 512 896 l 5,6,-1
 512 768 l 5,7,-1
 384 768 l 5,8,-1
 384 128 l 5,9,-1
 512 128 l 5,10,-1
 512 0 l 5,11,-1
 128 0 l 5,0,-1
EndSplineSet
Validated: 1
EndChar

StartChar: uni01D0
Encoding: 464 464 275
Width: 768
GlyphClass: 2
Flags: W
LayerCount: 2
Fore
SplineSet
128 0 m 5,0,-1
 128 128 l 5,1,-1
 256 128 l 5,2,-1
 256 512 l 5,3,-1
 128 512 l 5,4,-1
 128 640 l 5,5,-1
 384 640 l 5,6,-1
 384 128 l 5,7,-1
 512 128 l 5,8,-1
 512 0 l 5,9,-1
 128 0 l 5,0,-1
256 768 m 5,10,-1
 256 896 l 5,11,-1
 384 896 l 5,12,-1
 384 768 l 5,13,-1
 256 768 l 5,10,-1
EndSplineSet
Validated: 1
EndChar

StartChar: uni01D1
Encoding: 465 465 276
Width: 768
GlyphClass: 2
Flags: W
LayerCount: 2
Fore
SplineSet
128 0 m 1,0,-1
 128 128 l 1,1,-1
 512 128 l 1,2,-1
 512 0 l 1,3,-1
 128 0 l 1,0,-1
0 128 m 1,4,-1
 0 768 l 1,5,-1
 128 768 l 1,6,-1
 128 128 l 1,7,-1
 0 128 l 1,4,-1
512 128 m 1,8,-1
 512 768 l 1,9,-1
 640 768 l 1,10,-1
 640 128 l 1,11,-1
 512 128 l 1,8,-1
128 768 m 1,12,-1
 128 896 l 1,13,-1
 512 896 l 1,14,-1
 512 768 l 1,15,-1
 128 768 l 1,12,-1
EndSplineSet
Validated: 5
EndChar

StartChar: uni01D2
Encoding: 466 466 277
Width: 768
GlyphClass: 2
Flags: W
LayerCount: 2
Fore
SplineSet
0 0 m 1,0,-1
 0 896 l 1,1,-1
 640 896 l 1,2,-1
 640 0 l 1,3,-1
 0 0 l 1,0,-1
EndSplineSet
Validated: 1
EndChar

StartChar: uni01D3
Encoding: 467 467 278
Width: 768
GlyphClass: 2
Flags: W
LayerCount: 2
Fore
SplineSet
128 0 m 1,0,-1
 128 128 l 1,1,-1
 512 128 l 1,2,-1
 512 0 l 1,3,-1
 128 0 l 1,0,-1
0 128 m 1,4,-1
 0 896 l 1,5,-1
 128 896 l 1,6,-1
 128 128 l 1,7,-1
 0 128 l 1,4,-1
512 128 m 1,8,-1
 512 896 l 1,9,-1
 640 896 l 1,10,-1
 640 128 l 1,11,-1
 512 128 l 1,8,-1
EndSplineSet
Validated: 5
EndChar

StartChar: uni01D4
Encoding: 468 468 279
Width: 768
GlyphClass: 2
Flags: W
LayerCount: 2
Fore
SplineSet
128 0 m 1,0,-1
 128 128 l 1,1,-1
 512 128 l 1,2,-1
 512 0 l 1,3,-1
 128 0 l 1,0,-1
0 128 m 1,4,-1
 0 640 l 1,5,-1
 128 640 l 1,6,-1
 128 128 l 1,7,-1
 0 128 l 1,4,-1
512 128 m 1,8,-1
 512 640 l 1,9,-1
 640 640 l 1,10,-1
 640 128 l 1,11,-1
 512 128 l 1,8,-1
EndSplineSet
Validated: 5
EndChar

StartChar: uni01D5
Encoding: 469 469 280
Width: 768
GlyphClass: 2
Flags: W
LayerCount: 2
Fore
SplineSet
128 0 m 1,0,-1
 128 128 l 1,1,-1
 512 128 l 1,2,-1
 512 0 l 1,3,-1
 128 0 l 1,0,-1
0 128 m 1,4,-1
 0 896 l 1,5,-1
 128 896 l 1,6,-1
 128 128 l 1,7,-1
 0 128 l 1,4,-1
512 128 m 1,8,-1
 512 896 l 1,9,-1
 640 896 l 1,10,-1
 640 128 l 1,11,-1
 512 128 l 1,8,-1
EndSplineSet
Validated: 5
EndChar

StartChar: uni01D6
Encoding: 470 470 281
Width: 768
GlyphClass: 2
Flags: W
LayerCount: 2
Fore
SplineSet
128 0 m 1,0,-1
 128 128 l 1,1,-1
 512 128 l 1,2,-1
 512 0 l 1,3,-1
 128 0 l 1,0,-1
0 128 m 1,4,-1
 0 640 l 1,5,-1
 128 640 l 1,6,-1
 128 128 l 1,7,-1
 0 128 l 1,4,-1
512 128 m 1,8,-1
 512 640 l 1,9,-1
 640 640 l 1,10,-1
 640 128 l 1,11,-1
 512 128 l 1,8,-1
EndSplineSet
Validated: 5
EndChar

StartChar: uni01D7
Encoding: 471 471 282
Width: 768
GlyphClass: 2
Flags: W
LayerCount: 2
Fore
SplineSet
128 0 m 1,0,-1
 128 128 l 1,1,-1
 512 128 l 1,2,-1
 512 0 l 1,3,-1
 128 0 l 1,0,-1
0 128 m 1,4,-1
 0 896 l 1,5,-1
 128 896 l 1,6,-1
 128 128 l 1,7,-1
 0 128 l 1,4,-1
512 128 m 1,8,-1
 512 896 l 1,9,-1
 640 896 l 1,10,-1
 640 128 l 1,11,-1
 512 128 l 1,8,-1
EndSplineSet
Validated: 5
EndChar

StartChar: uni01D8
Encoding: 472 472 283
Width: 768
GlyphClass: 2
Flags: W
LayerCount: 2
Fore
SplineSet
128 0 m 1,0,-1
 128 128 l 1,1,-1
 512 128 l 1,2,-1
 512 0 l 1,3,-1
 128 0 l 1,0,-1
0 128 m 1,4,-1
 0 640 l 1,5,-1
 128 640 l 1,6,-1
 128 128 l 1,7,-1
 0 128 l 1,4,-1
512 128 m 1,8,-1
 512 640 l 1,9,-1
 640 640 l 1,10,-1
 640 128 l 1,11,-1
 512 128 l 1,8,-1
EndSplineSet
Validated: 5
EndChar

StartChar: uni01D9
Encoding: 473 473 284
Width: 768
GlyphClass: 2
Flags: W
LayerCount: 2
Fore
SplineSet
128 0 m 1,0,-1
 128 128 l 1,1,-1
 512 128 l 1,2,-1
 512 0 l 1,3,-1
 128 0 l 1,0,-1
0 128 m 1,4,-1
 0 896 l 1,5,-1
 128 896 l 1,6,-1
 128 128 l 1,7,-1
 0 128 l 1,4,-1
512 128 m 1,8,-1
 512 896 l 1,9,-1
 640 896 l 1,10,-1
 640 128 l 1,11,-1
 512 128 l 1,8,-1
EndSplineSet
Validated: 5
EndChar

StartChar: uni01DA
Encoding: 474 474 285
Width: 768
GlyphClass: 2
Flags: W
LayerCount: 2
Fore
SplineSet
128 0 m 1,0,-1
 128 128 l 1,1,-1
 512 128 l 1,2,-1
 512 0 l 1,3,-1
 128 0 l 1,0,-1
0 128 m 1,4,-1
 0 640 l 1,5,-1
 128 640 l 1,6,-1
 128 128 l 1,7,-1
 0 128 l 1,4,-1
512 128 m 1,8,-1
 512 640 l 1,9,-1
 640 640 l 1,10,-1
 640 128 l 1,11,-1
 512 128 l 1,8,-1
EndSplineSet
Validated: 5
EndChar

StartChar: uni01DB
Encoding: 475 475 286
Width: 768
GlyphClass: 2
Flags: W
LayerCount: 2
Fore
SplineSet
128 0 m 1,0,-1
 128 128 l 1,1,-1
 512 128 l 1,2,-1
 512 0 l 1,3,-1
 128 0 l 1,0,-1
0 128 m 1,4,-1
 0 896 l 1,5,-1
 128 896 l 1,6,-1
 128 128 l 1,7,-1
 0 128 l 1,4,-1
512 128 m 1,8,-1
 512 896 l 1,9,-1
 640 896 l 1,10,-1
 640 128 l 1,11,-1
 512 128 l 1,8,-1
EndSplineSet
Validated: 5
EndChar

StartChar: uni01DC
Encoding: 476 476 287
Width: 768
GlyphClass: 2
Flags: W
LayerCount: 2
Fore
SplineSet
128 0 m 1,0,-1
 128 128 l 1,1,-1
 512 128 l 1,2,-1
 512 0 l 1,3,-1
 128 0 l 1,0,-1
0 128 m 1,4,-1
 0 640 l 1,5,-1
 128 640 l 1,6,-1
 128 128 l 1,7,-1
 0 128 l 1,4,-1
512 128 m 1,8,-1
 512 640 l 1,9,-1
 640 640 l 1,10,-1
 640 128 l 1,11,-1
 512 128 l 1,8,-1
EndSplineSet
Validated: 5
EndChar

StartChar: uni01DD
Encoding: 477 477 288
Width: 768
GlyphClass: 2
Flags: W
LayerCount: 2
Fore
SplineSet
0 0 m 1,0,-1
 0 896 l 1,1,-1
 640 896 l 1,2,-1
 640 0 l 1,3,-1
 0 0 l 1,0,-1
EndSplineSet
Validated: 1
EndChar

StartChar: uni01DE
Encoding: 478 478 289
Width: 768
GlyphClass: 2
Flags: W
LayerCount: 2
Fore
SplineSet
0 0 m 1,0,-1
 0 768 l 1,1,-1
 128 768 l 1,2,-1
 128 512 l 1,3,-1
 512 512 l 1,4,-1
 512 768 l 1,5,-1
 640 768 l 1,6,-1
 640 0 l 1,7,-1
 512 0 l 1,8,-1
 512 384 l 1,9,-1
 128 384 l 1,10,-1
 128 0 l 1,11,-1
 0 0 l 1,0,-1
128 768 m 1,12,-1
 128 896 l 1,13,-1
 512 896 l 1,14,-1
 512 768 l 1,15,-1
 128 768 l 1,12,-1
EndSplineSet
Validated: 5
EndChar

StartChar: uni01DF
Encoding: 479 479 290
Width: 768
GlyphClass: 2
Flags: W
LayerCount: 2
Fore
SplineSet
0 128 m 1,0,-1
 0 256 l 1,1,-1
 128 256 l 1,2,-1
 128 128 l 1,3,-1
 0 128 l 1,0,-1
128 0 m 1,4,-1
 128 128 l 1,5,-1
 512 128 l 1,6,-1
 512 256 l 1,7,-1
 128 256 l 1,8,-1
 128 384 l 1,9,-1
 512 384 l 1,10,-1
 512 512 l 1,11,-1
 640 512 l 1,12,-1
 640 0 l 1,13,-1
 128 0 l 1,4,-1
128 512 m 1,14,-1
 128 640 l 1,15,-1
 512 640 l 1,16,-1
 512 512 l 1,17,-1
 128 512 l 1,14,-1
EndSplineSet
Validated: 5
EndChar

StartChar: uni01E0
Encoding: 480 480 291
Width: 768
GlyphClass: 2
Flags: W
LayerCount: 2
Fore
SplineSet
0 0 m 1,0,-1
 0 768 l 1,1,-1
 128 768 l 1,2,-1
 128 512 l 1,3,-1
 512 512 l 1,4,-1
 512 768 l 1,5,-1
 640 768 l 1,6,-1
 640 0 l 1,7,-1
 512 0 l 1,8,-1
 512 384 l 1,9,-1
 128 384 l 1,10,-1
 128 0 l 1,11,-1
 0 0 l 1,0,-1
128 768 m 1,12,-1
 128 896 l 1,13,-1
 512 896 l 1,14,-1
 512 768 l 1,15,-1
 128 768 l 1,12,-1
EndSplineSet
Validated: 5
EndChar

StartChar: uni01E1
Encoding: 481 481 292
Width: 768
GlyphClass: 2
Flags: W
LayerCount: 2
Fore
SplineSet
0 128 m 1,0,-1
 0 256 l 1,1,-1
 128 256 l 1,2,-1
 128 128 l 1,3,-1
 0 128 l 1,0,-1
128 0 m 1,4,-1
 128 128 l 1,5,-1
 512 128 l 1,6,-1
 512 256 l 1,7,-1
 128 256 l 1,8,-1
 128 384 l 1,9,-1
 512 384 l 1,10,-1
 512 512 l 1,11,-1
 640 512 l 1,12,-1
 640 0 l 1,13,-1
 128 0 l 1,4,-1
128 512 m 1,14,-1
 128 640 l 1,15,-1
 512 640 l 1,16,-1
 512 512 l 1,17,-1
 128 512 l 1,14,-1
EndSplineSet
Validated: 5
EndChar

StartChar: uni01E2
Encoding: 482 482 293
Width: 768
GlyphClass: 2
Flags: W
LayerCount: 2
Fore
SplineSet
0 0 m 1,0,-1
 0 896 l 1,1,-1
 640 896 l 1,2,-1
 640 0 l 1,3,-1
 0 0 l 1,0,-1
EndSplineSet
Validated: 1
EndChar

StartChar: uni01E3
Encoding: 483 483 294
Width: 768
GlyphClass: 2
Flags: W
LayerCount: 2
Fore
SplineSet
0 0 m 1,0,-1
 0 896 l 1,1,-1
 640 896 l 1,2,-1
 640 0 l 1,3,-1
 0 0 l 1,0,-1
EndSplineSet
Validated: 1
EndChar

StartChar: uni01E4
Encoding: 484 484 295
Width: 768
GlyphClass: 2
Flags: W
LayerCount: 2
Fore
SplineSet
0 0 m 1,0,-1
 0 896 l 1,1,-1
 640 896 l 1,2,-1
 640 0 l 1,3,-1
 0 0 l 1,0,-1
EndSplineSet
Validated: 1
EndChar

StartChar: uni01E5
Encoding: 485 485 296
Width: 768
GlyphClass: 2
Flags: W
LayerCount: 2
Fore
SplineSet
0 0 m 1,0,-1
 0 896 l 1,1,-1
 640 896 l 1,2,-1
 640 0 l 1,3,-1
 0 0 l 1,0,-1
EndSplineSet
Validated: 1
EndChar

StartChar: Gcaron
Encoding: 486 486 297
Width: 768
GlyphClass: 2
Flags: W
LayerCount: 2
Fore
SplineSet
0 0 m 1,0,-1
 0 896 l 1,1,-1
 640 896 l 1,2,-1
 640 0 l 1,3,-1
 0 0 l 1,0,-1
EndSplineSet
Validated: 1
EndChar

StartChar: gcaron
Encoding: 487 487 298
Width: 768
GlyphClass: 2
Flags: W
LayerCount: 2
Fore
SplineSet
0 0 m 1,0,-1
 0 896 l 1,1,-1
 640 896 l 1,2,-1
 640 0 l 1,3,-1
 0 0 l 1,0,-1
EndSplineSet
Validated: 1
EndChar

StartChar: uni01E8
Encoding: 488 488 299
Width: 768
GlyphClass: 2
Flags: W
LayerCount: 2
Fore
SplineSet
0 0 m 1,0,-1
 0 896 l 1,1,-1
 640 896 l 1,2,-1
 640 0 l 1,3,-1
 0 0 l 1,0,-1
EndSplineSet
Validated: 1
EndChar

StartChar: uni01E9
Encoding: 489 489 300
Width: 768
GlyphClass: 2
Flags: W
LayerCount: 2
Fore
SplineSet
0 0 m 1,0,-1
 0 896 l 1,1,-1
 640 896 l 1,2,-1
 640 0 l 1,3,-1
 0 0 l 1,0,-1
EndSplineSet
Validated: 1
EndChar

StartChar: uni01EA
Encoding: 490 490 301
Width: 768
GlyphClass: 2
Flags: W
LayerCount: 2
Fore
SplineSet
128 0 m 1,0,-1
 128 128 l 1,1,-1
 512 128 l 1,2,-1
 512 0 l 1,3,-1
 128 0 l 1,0,-1
0 128 m 1,4,-1
 0 768 l 1,5,-1
 128 768 l 1,6,-1
 128 128 l 1,7,-1
 0 128 l 1,4,-1
512 128 m 1,8,-1
 512 768 l 1,9,-1
 640 768 l 1,10,-1
 640 128 l 1,11,-1
 512 128 l 1,8,-1
128 768 m 1,12,-1
 128 896 l 1,13,-1
 512 896 l 1,14,-1
 512 768 l 1,15,-1
 128 768 l 1,12,-1
EndSplineSet
Validated: 5
EndChar

StartChar: uni01EB
Encoding: 491 491 302
Width: 768
GlyphClass: 2
Flags: W
LayerCount: 2
Fore
SplineSet
128 0 m 1,0,-1
 128 128 l 1,1,-1
 512 128 l 1,2,-1
 512 0 l 1,3,-1
 128 0 l 1,0,-1
0 128 m 1,4,-1
 0 512 l 1,5,-1
 128 512 l 1,6,-1
 128 128 l 1,7,-1
 0 128 l 1,4,-1
512 128 m 1,8,-1
 512 512 l 1,9,-1
 640 512 l 1,10,-1
 640 128 l 1,11,-1
 512 128 l 1,8,-1
128 512 m 1,12,-1
 128 640 l 1,13,-1
 512 640 l 1,14,-1
 512 512 l 1,15,-1
 128 512 l 1,12,-1
EndSplineSet
Validated: 5
EndChar

StartChar: uni01EC
Encoding: 492 492 303
Width: 768
GlyphClass: 2
Flags: W
LayerCount: 2
Fore
SplineSet
128 0 m 1,0,-1
 128 128 l 1,1,-1
 512 128 l 1,2,-1
 512 0 l 1,3,-1
 128 0 l 1,0,-1
0 128 m 1,4,-1
 0 768 l 1,5,-1
 128 768 l 1,6,-1
 128 128 l 1,7,-1
 0 128 l 1,4,-1
512 128 m 1,8,-1
 512 768 l 1,9,-1
 640 768 l 1,10,-1
 640 128 l 1,11,-1
 512 128 l 1,8,-1
128 768 m 1,12,-1
 128 896 l 1,13,-1
 512 896 l 1,14,-1
 512 768 l 1,15,-1
 128 768 l 1,12,-1
EndSplineSet
Validated: 5
EndChar

StartChar: uni01ED
Encoding: 493 493 304
Width: 768
GlyphClass: 2
Flags: W
LayerCount: 2
Fore
SplineSet
128 0 m 1,0,-1
 128 128 l 1,1,-1
 512 128 l 1,2,-1
 512 0 l 1,3,-1
 128 0 l 1,0,-1
0 128 m 1,4,-1
 0 512 l 1,5,-1
 128 512 l 1,6,-1
 128 128 l 1,7,-1
 0 128 l 1,4,-1
512 128 m 1,8,-1
 512 512 l 1,9,-1
 640 512 l 1,10,-1
 640 128 l 1,11,-1
 512 128 l 1,8,-1
128 512 m 1,12,-1
 128 640 l 1,13,-1
 512 640 l 1,14,-1
 512 512 l 1,15,-1
 128 512 l 1,12,-1
EndSplineSet
Validated: 5
EndChar

StartChar: uni01EE
Encoding: 494 494 305
Width: 768
GlyphClass: 2
Flags: W
LayerCount: 2
Fore
SplineSet
0 0 m 1,0,-1
 0 896 l 1,1,-1
 640 896 l 1,2,-1
 640 0 l 1,3,-1
 0 0 l 1,0,-1
EndSplineSet
Validated: 1
EndChar

StartChar: uni01EF
Encoding: 495 495 306
Width: 768
GlyphClass: 2
Flags: W
LayerCount: 2
Fore
SplineSet
0 0 m 1,0,-1
 0 896 l 1,1,-1
 640 896 l 1,2,-1
 640 0 l 1,3,-1
 0 0 l 1,0,-1
EndSplineSet
Validated: 1
EndChar

StartChar: uni01F0
Encoding: 496 496 307
Width: 768
GlyphClass: 2
Flags: W
LayerCount: 2
Fore
SplineSet
0 0 m 1,0,-1
 0 896 l 1,1,-1
 640 896 l 1,2,-1
 640 0 l 1,3,-1
 0 0 l 1,0,-1
EndSplineSet
Validated: 1
EndChar

StartChar: uni01F1
Encoding: 497 497 308
Width: 768
GlyphClass: 2
Flags: W
LayerCount: 2
Fore
SplineSet
0 0 m 1,0,-1
 0 896 l 1,1,-1
 640 896 l 1,2,-1
 640 0 l 1,3,-1
 0 0 l 1,0,-1
EndSplineSet
Validated: 1
EndChar

StartChar: uni01F2
Encoding: 498 498 309
Width: 768
GlyphClass: 2
Flags: W
LayerCount: 2
Fore
SplineSet
0 0 m 1,0,-1
 0 896 l 1,1,-1
 640 896 l 1,2,-1
 640 0 l 1,3,-1
 0 0 l 1,0,-1
EndSplineSet
Validated: 1
EndChar

StartChar: uni01F3
Encoding: 499 499 310
Width: 768
GlyphClass: 2
Flags: W
LayerCount: 2
Fore
SplineSet
0 0 m 1,0,-1
 0 896 l 1,1,-1
 640 896 l 1,2,-1
 640 0 l 1,3,-1
 0 0 l 1,0,-1
EndSplineSet
Validated: 1
EndChar

StartChar: uni01F4
Encoding: 500 500 311
Width: 768
GlyphClass: 2
Flags: W
LayerCount: 2
Fore
SplineSet
0 0 m 1,0,-1
 0 896 l 1,1,-1
 640 896 l 1,2,-1
 640 0 l 1,3,-1
 0 0 l 1,0,-1
EndSplineSet
Validated: 1
EndChar

StartChar: uni01F5
Encoding: 501 501 312
Width: 768
GlyphClass: 2
Flags: W
LayerCount: 2
Fore
SplineSet
0 0 m 1,0,-1
 0 896 l 1,1,-1
 640 896 l 1,2,-1
 640 0 l 1,3,-1
 0 0 l 1,0,-1
EndSplineSet
Validated: 1
EndChar

StartChar: uni01F6
Encoding: 502 502 313
Width: 768
GlyphClass: 2
Flags: W
LayerCount: 2
Fore
SplineSet
0 0 m 1,0,-1
 0 896 l 1,1,-1
 640 896 l 1,2,-1
 640 0 l 1,3,-1
 0 0 l 1,0,-1
EndSplineSet
Validated: 1
EndChar

StartChar: uni01F7
Encoding: 503 503 314
Width: 768
GlyphClass: 2
Flags: W
LayerCount: 2
Fore
SplineSet
0 0 m 1,0,-1
 0 896 l 1,1,-1
 640 896 l 1,2,-1
 640 0 l 1,3,-1
 0 0 l 1,0,-1
EndSplineSet
Validated: 1
EndChar

StartChar: uni01F8
Encoding: 504 504 315
Width: 768
GlyphClass: 2
Flags: W
LayerCount: 2
Fore
SplineSet
0 0 m 1,0,-1
 0 896 l 1,1,-1
 640 896 l 1,2,-1
 640 0 l 1,3,-1
 0 0 l 1,0,-1
EndSplineSet
Validated: 1
EndChar

StartChar: uni01F9
Encoding: 505 505 316
Width: 768
GlyphClass: 2
Flags: W
LayerCount: 2
Fore
SplineSet
0 0 m 1,0,-1
 0 896 l 1,1,-1
 640 896 l 1,2,-1
 640 0 l 1,3,-1
 0 0 l 1,0,-1
EndSplineSet
Validated: 1
EndChar

StartChar: Aringacute
Encoding: 506 506 317
Width: 768
GlyphClass: 2
Flags: W
LayerCount: 2
Fore
SplineSet
0 0 m 1,0,-1
 0 896 l 1,1,-1
 640 896 l 1,2,-1
 640 0 l 1,3,-1
 0 0 l 1,0,-1
EndSplineSet
Validated: 1
EndChar

StartChar: aringacute
Encoding: 507 507 318
Width: 768
GlyphClass: 2
Flags: W
LayerCount: 2
Fore
SplineSet
0 0 m 1,0,-1
 0 896 l 1,1,-1
 640 896 l 1,2,-1
 640 0 l 1,3,-1
 0 0 l 1,0,-1
EndSplineSet
Validated: 1
EndChar

StartChar: AEacute
Encoding: 508 508 319
Width: 768
GlyphClass: 2
Flags: W
LayerCount: 2
Fore
SplineSet
0 0 m 1,0,-1
 0 896 l 1,1,-1
 640 896 l 1,2,-1
 640 0 l 1,3,-1
 0 0 l 1,0,-1
EndSplineSet
Validated: 1
EndChar

StartChar: aeacute
Encoding: 509 509 320
Width: 768
GlyphClass: 2
Flags: W
LayerCount: 2
Fore
SplineSet
0 0 m 1,0,-1
 0 896 l 1,1,-1
 640 896 l 1,2,-1
 640 0 l 1,3,-1
 0 0 l 1,0,-1
EndSplineSet
Validated: 1
EndChar

StartChar: Oslashacute
Encoding: 510 510 321
Width: 768
GlyphClass: 2
Flags: W
LayerCount: 2
Fore
SplineSet
0 0 m 1,0,-1
 0 896 l 1,1,-1
 640 896 l 1,2,-1
 640 0 l 1,3,-1
 0 0 l 1,0,-1
EndSplineSet
Validated: 1
EndChar

StartChar: oslashacute
Encoding: 511 511 322
Width: 768
GlyphClass: 2
Flags: W
LayerCount: 2
Fore
SplineSet
0 0 m 1,0,-1
 0 896 l 1,1,-1
 640 896 l 1,2,-1
 640 0 l 1,3,-1
 0 0 l 1,0,-1
EndSplineSet
Validated: 1
EndChar

StartChar: uni0200
Encoding: 512 512 323
Width: 768
GlyphClass: 2
Flags: W
LayerCount: 2
Fore
SplineSet
0 0 m 1,0,-1
 0 768 l 1,1,-1
 128 768 l 1,2,-1
 128 512 l 1,3,-1
 512 512 l 1,4,-1
 512 768 l 1,5,-1
 640 768 l 1,6,-1
 640 0 l 1,7,-1
 512 0 l 1,8,-1
 512 384 l 1,9,-1
 128 384 l 1,10,-1
 128 0 l 1,11,-1
 0 0 l 1,0,-1
128 768 m 1,12,-1
 128 896 l 1,13,-1
 512 896 l 1,14,-1
 512 768 l 1,15,-1
 128 768 l 1,12,-1
EndSplineSet
Validated: 5
EndChar

StartChar: uni0201
Encoding: 513 513 324
Width: 768
GlyphClass: 2
Flags: W
LayerCount: 2
Fore
SplineSet
0 128 m 1,0,-1
 0 256 l 1,1,-1
 128 256 l 1,2,-1
 128 128 l 1,3,-1
 0 128 l 1,0,-1
128 0 m 1,4,-1
 128 128 l 1,5,-1
 512 128 l 1,6,-1
 512 256 l 1,7,-1
 128 256 l 1,8,-1
 128 384 l 1,9,-1
 512 384 l 1,10,-1
 512 512 l 1,11,-1
 640 512 l 1,12,-1
 640 0 l 1,13,-1
 128 0 l 1,4,-1
128 512 m 1,14,-1
 128 640 l 1,15,-1
 512 640 l 1,16,-1
 512 512 l 1,17,-1
 128 512 l 1,14,-1
EndSplineSet
Validated: 5
EndChar

StartChar: uni0202
Encoding: 514 514 325
Width: 768
GlyphClass: 2
Flags: W
LayerCount: 2
Fore
SplineSet
0 0 m 1,0,-1
 0 768 l 1,1,-1
 128 768 l 1,2,-1
 128 512 l 1,3,-1
 512 512 l 1,4,-1
 512 768 l 1,5,-1
 640 768 l 1,6,-1
 640 0 l 1,7,-1
 512 0 l 1,8,-1
 512 384 l 1,9,-1
 128 384 l 1,10,-1
 128 0 l 1,11,-1
 0 0 l 1,0,-1
128 768 m 1,12,-1
 128 896 l 1,13,-1
 512 896 l 1,14,-1
 512 768 l 1,15,-1
 128 768 l 1,12,-1
EndSplineSet
Validated: 5
EndChar

StartChar: uni0203
Encoding: 515 515 326
Width: 768
GlyphClass: 2
Flags: W
LayerCount: 2
Fore
SplineSet
0 128 m 1,0,-1
 0 256 l 1,1,-1
 128 256 l 1,2,-1
 128 128 l 1,3,-1
 0 128 l 1,0,-1
128 0 m 1,4,-1
 128 128 l 1,5,-1
 512 128 l 1,6,-1
 512 256 l 1,7,-1
 128 256 l 1,8,-1
 128 384 l 1,9,-1
 512 384 l 1,10,-1
 512 512 l 1,11,-1
 640 512 l 1,12,-1
 640 0 l 1,13,-1
 128 0 l 1,4,-1
128 512 m 1,14,-1
 128 640 l 1,15,-1
 512 640 l 1,16,-1
 512 512 l 1,17,-1
 128 512 l 1,14,-1
EndSplineSet
Validated: 5
EndChar

StartChar: uni0204
Encoding: 516 516 327
Width: 768
GlyphClass: 2
Flags: W
LayerCount: 2
Fore
SplineSet
0 0 m 1,0,-1
 0 896 l 1,1,-1
 640 896 l 1,2,-1
 640 768 l 1,3,-1
 128 768 l 1,4,-1
 128 512 l 1,5,-1
 512 512 l 1,6,-1
 512 384 l 1,7,-1
 128 384 l 1,8,-1
 128 128 l 1,9,-1
 640 128 l 1,10,-1
 640 0 l 1,11,-1
 0 0 l 1,0,-1
EndSplineSet
Validated: 1
EndChar

StartChar: uni0205
Encoding: 517 517 328
Width: 768
GlyphClass: 2
Flags: W
LayerCount: 2
Fore
SplineSet
128 0 m 1,0,-1
 128 128 l 1,1,-1
 512 128 l 1,2,-1
 512 0 l 1,3,-1
 128 0 l 1,0,-1
0 128 m 1,4,-1
 0 512 l 1,5,-1
 128 512 l 1,6,-1
 128 384 l 1,7,-1
 512 384 l 1,8,-1
 512 512 l 1,9,-1
 640 512 l 1,10,-1
 640 256 l 1,11,-1
 128 256 l 1,12,-1
 128 128 l 1,13,-1
 0 128 l 1,4,-1
128 512 m 1,14,-1
 128 640 l 1,15,-1
 512 640 l 1,16,-1
 512 512 l 1,17,-1
 128 512 l 1,14,-1
EndSplineSet
Validated: 5
EndChar

StartChar: uni0206
Encoding: 518 518 329
Width: 768
GlyphClass: 2
Flags: W
LayerCount: 2
Fore
SplineSet
0 0 m 1,0,-1
 0 896 l 1,1,-1
 640 896 l 1,2,-1
 640 768 l 1,3,-1
 128 768 l 1,4,-1
 128 512 l 1,5,-1
 512 512 l 1,6,-1
 512 384 l 1,7,-1
 128 384 l 1,8,-1
 128 128 l 1,9,-1
 640 128 l 1,10,-1
 640 0 l 1,11,-1
 0 0 l 1,0,-1
EndSplineSet
Validated: 1
EndChar

StartChar: uni0207
Encoding: 519 519 330
Width: 768
GlyphClass: 2
Flags: W
LayerCount: 2
Fore
SplineSet
128 0 m 1,0,-1
 128 128 l 1,1,-1
 512 128 l 1,2,-1
 512 0 l 1,3,-1
 128 0 l 1,0,-1
0 128 m 1,4,-1
 0 512 l 1,5,-1
 128 512 l 1,6,-1
 128 384 l 1,7,-1
 512 384 l 1,8,-1
 512 512 l 1,9,-1
 640 512 l 1,10,-1
 640 256 l 1,11,-1
 128 256 l 1,12,-1
 128 128 l 1,13,-1
 0 128 l 1,4,-1
128 512 m 1,14,-1
 128 640 l 1,15,-1
 512 640 l 1,16,-1
 512 512 l 1,17,-1
 128 512 l 1,14,-1
EndSplineSet
Validated: 5
EndChar

StartChar: uni0208
Encoding: 520 520 331
Width: 768
GlyphClass: 2
Flags: W
LayerCount: 2
Fore
SplineSet
128 0 m 5,0,-1
 128 128 l 5,1,-1
 256 128 l 5,2,-1
 256 768 l 5,3,-1
 128 768 l 5,4,-1
 128 896 l 5,5,-1
 512 896 l 5,6,-1
 512 768 l 5,7,-1
 384 768 l 5,8,-1
 384 128 l 5,9,-1
 512 128 l 5,10,-1
 512 0 l 5,11,-1
 128 0 l 5,0,-1
EndSplineSet
Validated: 1
EndChar

StartChar: uni0209
Encoding: 521 521 332
Width: 768
GlyphClass: 2
Flags: W
LayerCount: 2
Fore
SplineSet
128 0 m 5,0,-1
 128 128 l 5,1,-1
 256 128 l 5,2,-1
 256 512 l 5,3,-1
 128 512 l 5,4,-1
 128 640 l 5,5,-1
 384 640 l 5,6,-1
 384 128 l 5,7,-1
 512 128 l 5,8,-1
 512 0 l 5,9,-1
 128 0 l 5,0,-1
256 768 m 5,10,-1
 256 896 l 5,11,-1
 384 896 l 5,12,-1
 384 768 l 5,13,-1
 256 768 l 5,10,-1
EndSplineSet
Validated: 1
EndChar

StartChar: uni020A
Encoding: 522 522 333
Width: 768
GlyphClass: 2
Flags: W
LayerCount: 2
Fore
SplineSet
128 0 m 5,0,-1
 128 128 l 5,1,-1
 256 128 l 5,2,-1
 256 768 l 5,3,-1
 128 768 l 5,4,-1
 128 896 l 5,5,-1
 512 896 l 5,6,-1
 512 768 l 5,7,-1
 384 768 l 5,8,-1
 384 128 l 5,9,-1
 512 128 l 5,10,-1
 512 0 l 5,11,-1
 128 0 l 5,0,-1
EndSplineSet
Validated: 1
EndChar

StartChar: uni020B
Encoding: 523 523 334
Width: 768
GlyphClass: 2
Flags: W
LayerCount: 2
Fore
SplineSet
128 0 m 5,0,-1
 128 128 l 5,1,-1
 256 128 l 5,2,-1
 256 512 l 5,3,-1
 128 512 l 5,4,-1
 128 640 l 5,5,-1
 384 640 l 5,6,-1
 384 128 l 5,7,-1
 512 128 l 5,8,-1
 512 0 l 5,9,-1
 128 0 l 5,0,-1
256 768 m 5,10,-1
 256 896 l 5,11,-1
 384 896 l 5,12,-1
 384 768 l 5,13,-1
 256 768 l 5,10,-1
EndSplineSet
Validated: 1
EndChar

StartChar: uni020C
Encoding: 524 524 335
Width: 768
GlyphClass: 2
Flags: W
LayerCount: 2
Fore
SplineSet
128 0 m 1,0,-1
 128 128 l 1,1,-1
 512 128 l 1,2,-1
 512 0 l 1,3,-1
 128 0 l 1,0,-1
0 128 m 1,4,-1
 0 768 l 1,5,-1
 128 768 l 1,6,-1
 128 128 l 1,7,-1
 0 128 l 1,4,-1
512 128 m 1,8,-1
 512 768 l 1,9,-1
 640 768 l 1,10,-1
 640 128 l 1,11,-1
 512 128 l 1,8,-1
128 768 m 1,12,-1
 128 896 l 1,13,-1
 512 896 l 1,14,-1
 512 768 l 1,15,-1
 128 768 l 1,12,-1
EndSplineSet
Validated: 5
EndChar

StartChar: uni020D
Encoding: 525 525 336
Width: 768
GlyphClass: 2
Flags: W
LayerCount: 2
Fore
SplineSet
128 0 m 1,0,-1
 128 128 l 1,1,-1
 512 128 l 1,2,-1
 512 0 l 1,3,-1
 128 0 l 1,0,-1
0 128 m 1,4,-1
 0 512 l 1,5,-1
 128 512 l 1,6,-1
 128 128 l 1,7,-1
 0 128 l 1,4,-1
512 128 m 1,8,-1
 512 512 l 1,9,-1
 640 512 l 1,10,-1
 640 128 l 1,11,-1
 512 128 l 1,8,-1
128 512 m 1,12,-1
 128 640 l 1,13,-1
 512 640 l 1,14,-1
 512 512 l 1,15,-1
 128 512 l 1,12,-1
EndSplineSet
Validated: 5
EndChar

StartChar: uni020E
Encoding: 526 526 337
Width: 768
GlyphClass: 2
Flags: W
LayerCount: 2
Fore
SplineSet
128 0 m 1,0,-1
 128 128 l 1,1,-1
 512 128 l 1,2,-1
 512 0 l 1,3,-1
 128 0 l 1,0,-1
0 128 m 1,4,-1
 0 768 l 1,5,-1
 128 768 l 1,6,-1
 128 128 l 1,7,-1
 0 128 l 1,4,-1
512 128 m 1,8,-1
 512 768 l 1,9,-1
 640 768 l 1,10,-1
 640 128 l 1,11,-1
 512 128 l 1,8,-1
128 768 m 1,12,-1
 128 896 l 1,13,-1
 512 896 l 1,14,-1
 512 768 l 1,15,-1
 128 768 l 1,12,-1
EndSplineSet
Validated: 5
EndChar

StartChar: uni020F
Encoding: 527 527 338
Width: 768
GlyphClass: 2
Flags: W
LayerCount: 2
Fore
SplineSet
128 0 m 1,0,-1
 128 128 l 1,1,-1
 512 128 l 1,2,-1
 512 0 l 1,3,-1
 128 0 l 1,0,-1
0 128 m 1,4,-1
 0 512 l 1,5,-1
 128 512 l 1,6,-1
 128 128 l 1,7,-1
 0 128 l 1,4,-1
512 128 m 1,8,-1
 512 512 l 1,9,-1
 640 512 l 1,10,-1
 640 128 l 1,11,-1
 512 128 l 1,8,-1
128 512 m 1,12,-1
 128 640 l 1,13,-1
 512 640 l 1,14,-1
 512 512 l 1,15,-1
 128 512 l 1,12,-1
EndSplineSet
Validated: 5
EndChar

StartChar: uni0210
Encoding: 528 528 339
Width: 768
GlyphClass: 2
Flags: W
LayerCount: 2
Fore
SplineSet
0 0 m 1,0,-1
 0 896 l 1,1,-1
 640 896 l 1,2,-1
 640 0 l 1,3,-1
 0 0 l 1,0,-1
EndSplineSet
Validated: 1
EndChar

StartChar: uni0211
Encoding: 529 529 340
Width: 768
GlyphClass: 2
Flags: W
LayerCount: 2
Fore
SplineSet
0 0 m 1,0,-1
 0 896 l 1,1,-1
 640 896 l 1,2,-1
 640 0 l 1,3,-1
 0 0 l 1,0,-1
EndSplineSet
Validated: 1
EndChar

StartChar: uni0212
Encoding: 530 530 341
Width: 768
GlyphClass: 2
Flags: W
LayerCount: 2
Fore
SplineSet
0 0 m 1,0,-1
 0 896 l 1,1,-1
 640 896 l 1,2,-1
 640 0 l 1,3,-1
 0 0 l 1,0,-1
EndSplineSet
Validated: 1
EndChar

StartChar: uni0213
Encoding: 531 531 342
Width: 768
GlyphClass: 2
Flags: W
LayerCount: 2
Fore
SplineSet
0 0 m 1,0,-1
 0 896 l 1,1,-1
 640 896 l 1,2,-1
 640 0 l 1,3,-1
 0 0 l 1,0,-1
EndSplineSet
Validated: 1
EndChar

StartChar: uni0214
Encoding: 532 532 343
Width: 768
GlyphClass: 2
Flags: W
LayerCount: 2
Fore
SplineSet
128 0 m 1,0,-1
 128 128 l 1,1,-1
 512 128 l 1,2,-1
 512 0 l 1,3,-1
 128 0 l 1,0,-1
0 128 m 1,4,-1
 0 896 l 1,5,-1
 128 896 l 1,6,-1
 128 128 l 1,7,-1
 0 128 l 1,4,-1
512 128 m 1,8,-1
 512 896 l 1,9,-1
 640 896 l 1,10,-1
 640 128 l 1,11,-1
 512 128 l 1,8,-1
EndSplineSet
Validated: 5
EndChar

StartChar: uni0215
Encoding: 533 533 344
Width: 768
GlyphClass: 2
Flags: W
LayerCount: 2
Fore
SplineSet
128 0 m 1,0,-1
 128 128 l 1,1,-1
 512 128 l 1,2,-1
 512 0 l 1,3,-1
 128 0 l 1,0,-1
0 128 m 1,4,-1
 0 640 l 1,5,-1
 128 640 l 1,6,-1
 128 128 l 1,7,-1
 0 128 l 1,4,-1
512 128 m 1,8,-1
 512 640 l 1,9,-1
 640 640 l 1,10,-1
 640 128 l 1,11,-1
 512 128 l 1,8,-1
EndSplineSet
Validated: 5
EndChar

StartChar: uni0216
Encoding: 534 534 345
Width: 768
GlyphClass: 2
Flags: W
LayerCount: 2
Fore
SplineSet
128 0 m 1,0,-1
 128 128 l 1,1,-1
 512 128 l 1,2,-1
 512 0 l 1,3,-1
 128 0 l 1,0,-1
0 128 m 1,4,-1
 0 896 l 1,5,-1
 128 896 l 1,6,-1
 128 128 l 1,7,-1
 0 128 l 1,4,-1
512 128 m 1,8,-1
 512 896 l 1,9,-1
 640 896 l 1,10,-1
 640 128 l 1,11,-1
 512 128 l 1,8,-1
EndSplineSet
Validated: 5
EndChar

StartChar: uni0217
Encoding: 535 535 346
Width: 768
GlyphClass: 2
Flags: W
LayerCount: 2
Fore
SplineSet
128 0 m 1,0,-1
 128 128 l 1,1,-1
 512 128 l 1,2,-1
 512 0 l 1,3,-1
 128 0 l 1,0,-1
0 128 m 1,4,-1
 0 640 l 1,5,-1
 128 640 l 1,6,-1
 128 128 l 1,7,-1
 0 128 l 1,4,-1
512 128 m 1,8,-1
 512 640 l 1,9,-1
 640 640 l 1,10,-1
 640 128 l 1,11,-1
 512 128 l 1,8,-1
EndSplineSet
Validated: 5
EndChar

StartChar: Scommaaccent
Encoding: 536 536 347
Width: 768
GlyphClass: 2
Flags: W
LayerCount: 2
Fore
SplineSet
0 0 m 1,0,-1
 0 128 l 1,1,-1
 512 128 l 1,2,-1
 512 0 l 1,3,-1
 0 0 l 1,0,-1
512 128 m 1,4,-1
 512 384 l 1,5,-1
 640 384 l 1,6,-1
 640 128 l 1,7,-1
 512 128 l 1,4,-1
128 384 m 1,8,-1
 128 512 l 1,9,-1
 512 512 l 1,10,-1
 512 384 l 1,11,-1
 128 384 l 1,8,-1
0 512 m 1,12,-1
 0 768 l 1,13,-1
 128 768 l 1,14,-1
 128 512 l 1,15,-1
 0 512 l 1,12,-1
128 768 m 1,16,-1
 128 896 l 1,17,-1
 640 896 l 1,18,-1
 640 768 l 1,19,-1
 128 768 l 1,16,-1
EndSplineSet
Validated: 5
EndChar

StartChar: scommaaccent
Encoding: 537 537 348
Width: 768
GlyphClass: 2
Flags: W
LayerCount: 2
Fore
SplineSet
0 0 m 1,0,-1
 0 128 l 1,1,-1
 512 128 l 1,2,-1
 512 0 l 1,3,-1
 0 0 l 1,0,-1
512 128 m 1,4,-1
 512 256 l 1,5,-1
 640 256 l 1,6,-1
 640 128 l 1,7,-1
 512 128 l 1,4,-1
128 256 m 1,8,-1
 128 384 l 1,9,-1
 512 384 l 1,10,-1
 512 256 l 1,11,-1
 128 256 l 1,8,-1
0 384 m 1,12,-1
 0 512 l 1,13,-1
 128 512 l 1,14,-1
 128 384 l 1,15,-1
 0 384 l 1,12,-1
128 512 m 1,16,-1
 128 640 l 1,17,-1
 512 640 l 1,18,-1
 512 512 l 1,19,-1
 128 512 l 1,16,-1
EndSplineSet
Validated: 5
EndChar

StartChar: uni021A
Encoding: 538 538 349
Width: 768
GlyphClass: 2
Flags: W
LayerCount: 2
Fore
SplineSet
256 0 m 1,0,-1
 256 768 l 1,1,-1
 0 768 l 1,2,-1
 0 896 l 1,3,-1
 640 896 l 1,4,-1
 640 768 l 1,5,-1
 384 768 l 1,6,-1
 384 0 l 1,7,-1
 256 0 l 1,0,-1
EndSplineSet
Validated: 1
EndChar

StartChar: uni021B
Encoding: 539 539 350
Width: 768
GlyphClass: 2
Flags: W
LayerCount: 2
Fore
SplineSet
256 0 m 1,0,-1
 256 128 l 1,1,-1
 512 128 l 1,2,-1
 512 0 l 1,3,-1
 256 0 l 1,0,-1
512 128 m 1,4,-1
 512 256 l 1,5,-1
 640 256 l 1,6,-1
 640 128 l 1,7,-1
 512 128 l 1,4,-1
128 128 m 1,8,-1
 128 512 l 1,9,-1
 0 512 l 1,10,-1
 0 640 l 1,11,-1
 128 640 l 1,12,-1
 128 896 l 1,13,-1
 256 896 l 1,14,-1
 256 640 l 1,15,-1
 384 640 l 1,16,-1
 384 512 l 1,17,-1
 256 512 l 1,18,-1
 256 128 l 1,19,-1
 128 128 l 1,8,-1
EndSplineSet
Validated: 5
EndChar

StartChar: uni021C
Encoding: 540 540 351
Width: 768
GlyphClass: 2
Flags: W
LayerCount: 2
Fore
SplineSet
0 0 m 1,0,-1
 0 896 l 1,1,-1
 640 896 l 1,2,-1
 640 0 l 1,3,-1
 0 0 l 1,0,-1
EndSplineSet
Validated: 1
EndChar

StartChar: uni021D
Encoding: 541 541 352
Width: 768
GlyphClass: 2
Flags: W
LayerCount: 2
Fore
SplineSet
0 0 m 1,0,-1
 0 896 l 1,1,-1
 640 896 l 1,2,-1
 640 0 l 1,3,-1
 0 0 l 1,0,-1
EndSplineSet
Validated: 1
EndChar

StartChar: uni021E
Encoding: 542 542 353
Width: 768
GlyphClass: 2
Flags: W
LayerCount: 2
Fore
SplineSet
0 0 m 1,0,-1
 0 896 l 1,1,-1
 640 896 l 1,2,-1
 640 0 l 1,3,-1
 0 0 l 1,0,-1
EndSplineSet
Validated: 1
EndChar

StartChar: uni021F
Encoding: 543 543 354
Width: 768
GlyphClass: 2
Flags: W
LayerCount: 2
Fore
SplineSet
0 0 m 1,0,-1
 0 896 l 1,1,-1
 640 896 l 1,2,-1
 640 0 l 1,3,-1
 0 0 l 1,0,-1
EndSplineSet
Validated: 1
EndChar

StartChar: uni0220
Encoding: 544 544 355
Width: 768
GlyphClass: 2
Flags: W
LayerCount: 2
Fore
SplineSet
0 0 m 1,0,-1
 0 896 l 1,1,-1
 640 896 l 1,2,-1
 640 0 l 1,3,-1
 0 0 l 1,0,-1
EndSplineSet
Validated: 1
EndChar

StartChar: uni0221
Encoding: 545 545 356
Width: 768
GlyphClass: 2
Flags: W
LayerCount: 2
Fore
SplineSet
0 0 m 1,0,-1
 0 896 l 1,1,-1
 640 896 l 1,2,-1
 640 0 l 1,3,-1
 0 0 l 1,0,-1
EndSplineSet
Validated: 1
EndChar

StartChar: uni0222
Encoding: 546 546 357
Width: 768
GlyphClass: 2
Flags: W
LayerCount: 2
Fore
SplineSet
0 0 m 1,0,-1
 0 896 l 1,1,-1
 640 896 l 1,2,-1
 640 0 l 1,3,-1
 0 0 l 1,0,-1
EndSplineSet
Validated: 1
EndChar

StartChar: uni0223
Encoding: 547 547 358
Width: 768
GlyphClass: 2
Flags: W
LayerCount: 2
Fore
SplineSet
0 0 m 1,0,-1
 0 896 l 1,1,-1
 640 896 l 1,2,-1
 640 0 l 1,3,-1
 0 0 l 1,0,-1
EndSplineSet
Validated: 1
EndChar

StartChar: uni0224
Encoding: 548 548 359
Width: 768
GlyphClass: 2
Flags: W
LayerCount: 2
Fore
SplineSet
0 0 m 1,0,-1
 0 896 l 1,1,-1
 640 896 l 1,2,-1
 640 0 l 1,3,-1
 0 0 l 1,0,-1
EndSplineSet
Validated: 1
EndChar

StartChar: uni0225
Encoding: 549 549 360
Width: 768
GlyphClass: 2
Flags: W
LayerCount: 2
Fore
SplineSet
0 0 m 1,0,-1
 0 896 l 1,1,-1
 640 896 l 1,2,-1
 640 0 l 1,3,-1
 0 0 l 1,0,-1
EndSplineSet
Validated: 1
EndChar

StartChar: uni0226
Encoding: 550 550 361
Width: 768
GlyphClass: 2
Flags: W
LayerCount: 2
Fore
SplineSet
0 0 m 1,0,-1
 0 768 l 1,1,-1
 128 768 l 1,2,-1
 128 512 l 1,3,-1
 512 512 l 1,4,-1
 512 768 l 1,5,-1
 640 768 l 1,6,-1
 640 0 l 1,7,-1
 512 0 l 1,8,-1
 512 384 l 1,9,-1
 128 384 l 1,10,-1
 128 0 l 1,11,-1
 0 0 l 1,0,-1
128 768 m 1,12,-1
 128 896 l 1,13,-1
 512 896 l 1,14,-1
 512 768 l 1,15,-1
 128 768 l 1,12,-1
EndSplineSet
Validated: 5
EndChar

StartChar: uni0227
Encoding: 551 551 362
Width: 768
GlyphClass: 2
Flags: W
LayerCount: 2
Fore
SplineSet
0 128 m 1,0,-1
 0 256 l 1,1,-1
 128 256 l 1,2,-1
 128 128 l 1,3,-1
 0 128 l 1,0,-1
128 0 m 1,4,-1
 128 128 l 1,5,-1
 512 128 l 1,6,-1
 512 256 l 1,7,-1
 128 256 l 1,8,-1
 128 384 l 1,9,-1
 512 384 l 1,10,-1
 512 512 l 1,11,-1
 640 512 l 1,12,-1
 640 0 l 1,13,-1
 128 0 l 1,4,-1
128 512 m 1,14,-1
 128 640 l 1,15,-1
 512 640 l 1,16,-1
 512 512 l 1,17,-1
 128 512 l 1,14,-1
EndSplineSet
Validated: 5
EndChar

StartChar: uni0228
Encoding: 552 552 363
Width: 768
GlyphClass: 2
Flags: W
LayerCount: 2
Fore
SplineSet
0 0 m 1,0,-1
 0 896 l 1,1,-1
 640 896 l 1,2,-1
 640 768 l 1,3,-1
 128 768 l 1,4,-1
 128 512 l 1,5,-1
 512 512 l 1,6,-1
 512 384 l 1,7,-1
 128 384 l 1,8,-1
 128 128 l 1,9,-1
 640 128 l 1,10,-1
 640 0 l 1,11,-1
 0 0 l 1,0,-1
EndSplineSet
Validated: 1
EndChar

StartChar: uni0229
Encoding: 553 553 364
Width: 768
GlyphClass: 2
Flags: W
LayerCount: 2
Fore
SplineSet
128 0 m 1,0,-1
 128 128 l 1,1,-1
 512 128 l 1,2,-1
 512 0 l 1,3,-1
 128 0 l 1,0,-1
0 128 m 1,4,-1
 0 512 l 1,5,-1
 128 512 l 1,6,-1
 128 384 l 1,7,-1
 512 384 l 1,8,-1
 512 512 l 1,9,-1
 640 512 l 1,10,-1
 640 256 l 1,11,-1
 128 256 l 1,12,-1
 128 128 l 1,13,-1
 0 128 l 1,4,-1
128 512 m 1,14,-1
 128 640 l 1,15,-1
 512 640 l 1,16,-1
 512 512 l 1,17,-1
 128 512 l 1,14,-1
EndSplineSet
Validated: 5
EndChar

StartChar: uni022A
Encoding: 554 554 365
Width: 768
GlyphClass: 2
Flags: W
LayerCount: 2
Fore
SplineSet
128 0 m 1,0,-1
 128 128 l 1,1,-1
 512 128 l 1,2,-1
 512 0 l 1,3,-1
 128 0 l 1,0,-1
0 128 m 1,4,-1
 0 768 l 1,5,-1
 128 768 l 1,6,-1
 128 128 l 1,7,-1
 0 128 l 1,4,-1
512 128 m 1,8,-1
 512 768 l 1,9,-1
 640 768 l 1,10,-1
 640 128 l 1,11,-1
 512 128 l 1,8,-1
128 768 m 1,12,-1
 128 896 l 1,13,-1
 512 896 l 1,14,-1
 512 768 l 1,15,-1
 128 768 l 1,12,-1
EndSplineSet
Validated: 5
EndChar

StartChar: uni022B
Encoding: 555 555 366
Width: 768
GlyphClass: 2
Flags: W
LayerCount: 2
Fore
SplineSet
128 0 m 1,0,-1
 128 128 l 1,1,-1
 512 128 l 1,2,-1
 512 0 l 1,3,-1
 128 0 l 1,0,-1
0 128 m 1,4,-1
 0 512 l 1,5,-1
 128 512 l 1,6,-1
 128 128 l 1,7,-1
 0 128 l 1,4,-1
512 128 m 1,8,-1
 512 512 l 1,9,-1
 640 512 l 1,10,-1
 640 128 l 1,11,-1
 512 128 l 1,8,-1
128 512 m 1,12,-1
 128 640 l 1,13,-1
 512 640 l 1,14,-1
 512 512 l 1,15,-1
 128 512 l 1,12,-1
EndSplineSet
Validated: 5
EndChar

StartChar: uni022C
Encoding: 556 556 367
Width: 768
GlyphClass: 2
Flags: W
LayerCount: 2
Fore
SplineSet
128 0 m 1,0,-1
 128 128 l 1,1,-1
 512 128 l 1,2,-1
 512 0 l 1,3,-1
 128 0 l 1,0,-1
0 128 m 1,4,-1
 0 768 l 1,5,-1
 128 768 l 1,6,-1
 128 128 l 1,7,-1
 0 128 l 1,4,-1
512 128 m 1,8,-1
 512 768 l 1,9,-1
 640 768 l 1,10,-1
 640 128 l 1,11,-1
 512 128 l 1,8,-1
128 768 m 1,12,-1
 128 896 l 1,13,-1
 512 896 l 1,14,-1
 512 768 l 1,15,-1
 128 768 l 1,12,-1
EndSplineSet
Validated: 5
EndChar

StartChar: uni022D
Encoding: 557 557 368
Width: 768
GlyphClass: 2
Flags: W
LayerCount: 2
Fore
SplineSet
128 0 m 1,0,-1
 128 128 l 1,1,-1
 512 128 l 1,2,-1
 512 0 l 1,3,-1
 128 0 l 1,0,-1
0 128 m 1,4,-1
 0 512 l 1,5,-1
 128 512 l 1,6,-1
 128 128 l 1,7,-1
 0 128 l 1,4,-1
512 128 m 1,8,-1
 512 512 l 1,9,-1
 640 512 l 1,10,-1
 640 128 l 1,11,-1
 512 128 l 1,8,-1
128 512 m 1,12,-1
 128 640 l 1,13,-1
 512 640 l 1,14,-1
 512 512 l 1,15,-1
 128 512 l 1,12,-1
EndSplineSet
Validated: 5
EndChar

StartChar: uni022E
Encoding: 558 558 369
Width: 768
GlyphClass: 2
Flags: W
LayerCount: 2
Fore
SplineSet
128 0 m 1,0,-1
 128 128 l 1,1,-1
 512 128 l 1,2,-1
 512 0 l 1,3,-1
 128 0 l 1,0,-1
0 128 m 1,4,-1
 0 768 l 1,5,-1
 128 768 l 1,6,-1
 128 128 l 1,7,-1
 0 128 l 1,4,-1
512 128 m 1,8,-1
 512 768 l 1,9,-1
 640 768 l 1,10,-1
 640 128 l 1,11,-1
 512 128 l 1,8,-1
128 768 m 1,12,-1
 128 896 l 1,13,-1
 512 896 l 1,14,-1
 512 768 l 1,15,-1
 128 768 l 1,12,-1
EndSplineSet
Validated: 5
EndChar

StartChar: uni022F
Encoding: 559 559 370
Width: 768
GlyphClass: 2
Flags: W
LayerCount: 2
Fore
SplineSet
128 0 m 1,0,-1
 128 128 l 1,1,-1
 512 128 l 1,2,-1
 512 0 l 1,3,-1
 128 0 l 1,0,-1
0 128 m 1,4,-1
 0 512 l 1,5,-1
 128 512 l 1,6,-1
 128 128 l 1,7,-1
 0 128 l 1,4,-1
512 128 m 1,8,-1
 512 512 l 1,9,-1
 640 512 l 1,10,-1
 640 128 l 1,11,-1
 512 128 l 1,8,-1
128 512 m 1,12,-1
 128 640 l 1,13,-1
 512 640 l 1,14,-1
 512 512 l 1,15,-1
 128 512 l 1,12,-1
EndSplineSet
Validated: 5
EndChar

StartChar: uni0230
Encoding: 560 560 371
Width: 768
GlyphClass: 2
Flags: W
LayerCount: 2
Fore
SplineSet
128 0 m 1,0,-1
 128 128 l 1,1,-1
 512 128 l 1,2,-1
 512 0 l 1,3,-1
 128 0 l 1,0,-1
0 128 m 1,4,-1
 0 768 l 1,5,-1
 128 768 l 1,6,-1
 128 128 l 1,7,-1
 0 128 l 1,4,-1
512 128 m 1,8,-1
 512 768 l 1,9,-1
 640 768 l 1,10,-1
 640 128 l 1,11,-1
 512 128 l 1,8,-1
128 768 m 1,12,-1
 128 896 l 1,13,-1
 512 896 l 1,14,-1
 512 768 l 1,15,-1
 128 768 l 1,12,-1
EndSplineSet
Validated: 5
EndChar

StartChar: uni0231
Encoding: 561 561 372
Width: 768
GlyphClass: 2
Flags: W
LayerCount: 2
Fore
SplineSet
128 0 m 1,0,-1
 128 128 l 1,1,-1
 512 128 l 1,2,-1
 512 0 l 1,3,-1
 128 0 l 1,0,-1
0 128 m 1,4,-1
 0 512 l 1,5,-1
 128 512 l 1,6,-1
 128 128 l 1,7,-1
 0 128 l 1,4,-1
512 128 m 1,8,-1
 512 512 l 1,9,-1
 640 512 l 1,10,-1
 640 128 l 1,11,-1
 512 128 l 1,8,-1
128 512 m 1,12,-1
 128 640 l 1,13,-1
 512 640 l 1,14,-1
 512 512 l 1,15,-1
 128 512 l 1,12,-1
EndSplineSet
Validated: 5
EndChar

StartChar: uni0232
Encoding: 562 562 373
Width: 768
GlyphClass: 2
Flags: W
LayerCount: 2
Fore
SplineSet
0 0 m 1,0,-1
 0 896 l 1,1,-1
 640 896 l 1,2,-1
 640 0 l 1,3,-1
 0 0 l 1,0,-1
EndSplineSet
Validated: 1
EndChar

StartChar: uni0233
Encoding: 563 563 374
Width: 768
GlyphClass: 2
Flags: W
LayerCount: 2
Fore
SplineSet
0 0 m 1,0,-1
 0 896 l 1,1,-1
 640 896 l 1,2,-1
 640 0 l 1,3,-1
 0 0 l 1,0,-1
EndSplineSet
Validated: 1
EndChar

StartChar: uni0234
Encoding: 564 564 375
Width: 768
GlyphClass: 2
Flags: W
LayerCount: 2
Fore
SplineSet
0 0 m 1,0,-1
 0 896 l 1,1,-1
 640 896 l 1,2,-1
 640 0 l 1,3,-1
 0 0 l 1,0,-1
EndSplineSet
Validated: 1
EndChar

StartChar: uni0235
Encoding: 565 565 376
Width: 768
GlyphClass: 2
Flags: W
LayerCount: 2
Fore
SplineSet
0 0 m 1,0,-1
 0 896 l 1,1,-1
 640 896 l 1,2,-1
 640 0 l 1,3,-1
 0 0 l 1,0,-1
EndSplineSet
Validated: 1
EndChar

StartChar: uni0236
Encoding: 566 566 377
Width: 768
GlyphClass: 2
Flags: W
LayerCount: 2
Fore
SplineSet
0 0 m 1,0,-1
 0 896 l 1,1,-1
 640 896 l 1,2,-1
 640 0 l 1,3,-1
 0 0 l 1,0,-1
EndSplineSet
Validated: 1
EndChar

StartChar: uni0237
Encoding: 567 567 378
Width: 768
GlyphClass: 2
Flags: W
LayerCount: 2
Fore
SplineSet
0 0 m 1,0,-1
 0 896 l 1,1,-1
 640 896 l 1,2,-1
 640 0 l 1,3,-1
 0 0 l 1,0,-1
EndSplineSet
Validated: 1
EndChar

StartChar: uni0238
Encoding: 568 568 379
Width: 768
GlyphClass: 2
Flags: W
LayerCount: 2
Fore
SplineSet
0 0 m 1,0,-1
 0 896 l 1,1,-1
 640 896 l 1,2,-1
 640 0 l 1,3,-1
 0 0 l 1,0,-1
EndSplineSet
Validated: 1
EndChar

StartChar: uni0239
Encoding: 569 569 380
Width: 768
GlyphClass: 2
Flags: W
LayerCount: 2
Fore
SplineSet
0 0 m 1,0,-1
 0 896 l 1,1,-1
 640 896 l 1,2,-1
 640 0 l 1,3,-1
 0 0 l 1,0,-1
EndSplineSet
Validated: 1
EndChar

StartChar: uni023A
Encoding: 570 570 381
Width: 768
GlyphClass: 2
Flags: W
LayerCount: 2
Fore
SplineSet
0 0 m 1,0,-1
 0 896 l 1,1,-1
 640 896 l 1,2,-1
 640 0 l 1,3,-1
 0 0 l 1,0,-1
EndSplineSet
Validated: 1
EndChar

StartChar: uni023B
Encoding: 571 571 382
Width: 768
GlyphClass: 2
Flags: W
LayerCount: 2
Fore
SplineSet
0 0 m 1,0,-1
 0 896 l 1,1,-1
 640 896 l 1,2,-1
 640 0 l 1,3,-1
 0 0 l 1,0,-1
EndSplineSet
Validated: 1
EndChar

StartChar: uni023C
Encoding: 572 572 383
Width: 768
GlyphClass: 2
Flags: W
LayerCount: 2
Fore
SplineSet
0 0 m 1,0,-1
 0 896 l 1,1,-1
 640 896 l 1,2,-1
 640 0 l 1,3,-1
 0 0 l 1,0,-1
EndSplineSet
Validated: 1
EndChar

StartChar: uni023D
Encoding: 573 573 384
Width: 768
GlyphClass: 2
Flags: W
LayerCount: 2
Fore
SplineSet
0 0 m 1,0,-1
 0 896 l 1,1,-1
 640 896 l 1,2,-1
 640 0 l 1,3,-1
 0 0 l 1,0,-1
EndSplineSet
Validated: 1
EndChar

StartChar: uni023E
Encoding: 574 574 385
Width: 768
GlyphClass: 2
Flags: W
LayerCount: 2
Fore
SplineSet
0 0 m 1,0,-1
 0 896 l 1,1,-1
 640 896 l 1,2,-1
 640 0 l 1,3,-1
 0 0 l 1,0,-1
EndSplineSet
Validated: 1
EndChar

StartChar: uni023F
Encoding: 575 575 386
Width: 768
GlyphClass: 2
Flags: W
LayerCount: 2
Fore
SplineSet
0 0 m 1,0,-1
 0 896 l 1,1,-1
 640 896 l 1,2,-1
 640 0 l 1,3,-1
 0 0 l 1,0,-1
EndSplineSet
Validated: 1
EndChar

StartChar: uni0240
Encoding: 576 576 387
Width: 768
GlyphClass: 2
Flags: W
LayerCount: 2
Fore
SplineSet
0 0 m 1,0,-1
 0 896 l 1,1,-1
 640 896 l 1,2,-1
 640 0 l 1,3,-1
 0 0 l 1,0,-1
EndSplineSet
Validated: 1
EndChar

StartChar: uni0241
Encoding: 577 577 388
Width: 768
GlyphClass: 2
Flags: W
LayerCount: 2
Fore
SplineSet
0 0 m 1,0,-1
 0 896 l 1,1,-1
 640 896 l 1,2,-1
 640 0 l 1,3,-1
 0 0 l 1,0,-1
EndSplineSet
Validated: 1
EndChar

StartChar: uni0242
Encoding: 578 578 389
Width: 768
GlyphClass: 2
Flags: W
LayerCount: 2
Fore
SplineSet
0 0 m 1,0,-1
 0 896 l 1,1,-1
 640 896 l 1,2,-1
 640 0 l 1,3,-1
 0 0 l 1,0,-1
EndSplineSet
Validated: 1
EndChar

StartChar: uni0243
Encoding: 579 579 390
Width: 768
GlyphClass: 2
Flags: W
LayerCount: 2
Fore
SplineSet
0 0 m 1,0,-1
 0 896 l 1,1,-1
 640 896 l 1,2,-1
 640 0 l 1,3,-1
 0 0 l 1,0,-1
EndSplineSet
Validated: 1
EndChar

StartChar: uni0244
Encoding: 580 580 391
Width: 768
GlyphClass: 2
Flags: W
LayerCount: 2
Fore
SplineSet
0 0 m 1,0,-1
 0 896 l 1,1,-1
 640 896 l 1,2,-1
 640 0 l 1,3,-1
 0 0 l 1,0,-1
EndSplineSet
Validated: 1
EndChar

StartChar: uni0245
Encoding: 581 581 392
Width: 768
GlyphClass: 2
Flags: W
LayerCount: 2
Fore
SplineSet
0 0 m 1,0,-1
 0 896 l 1,1,-1
 640 896 l 1,2,-1
 640 0 l 1,3,-1
 0 0 l 1,0,-1
EndSplineSet
Validated: 1
EndChar

StartChar: uni0246
Encoding: 582 582 393
Width: 768
GlyphClass: 2
Flags: W
LayerCount: 2
Fore
SplineSet
0 0 m 1,0,-1
 0 896 l 1,1,-1
 640 896 l 1,2,-1
 640 0 l 1,3,-1
 0 0 l 1,0,-1
EndSplineSet
Validated: 1
EndChar

StartChar: uni0247
Encoding: 583 583 394
Width: 768
GlyphClass: 2
Flags: W
LayerCount: 2
Fore
SplineSet
0 0 m 1,0,-1
 0 896 l 1,1,-1
 640 896 l 1,2,-1
 640 0 l 1,3,-1
 0 0 l 1,0,-1
EndSplineSet
Validated: 1
EndChar

StartChar: uni0248
Encoding: 584 584 395
Width: 768
GlyphClass: 2
Flags: W
LayerCount: 2
Fore
SplineSet
0 0 m 1,0,-1
 0 896 l 1,1,-1
 640 896 l 1,2,-1
 640 0 l 1,3,-1
 0 0 l 1,0,-1
EndSplineSet
Validated: 1
EndChar

StartChar: uni0249
Encoding: 585 585 396
Width: 768
GlyphClass: 2
Flags: W
LayerCount: 2
Fore
SplineSet
0 0 m 1,0,-1
 0 896 l 1,1,-1
 640 896 l 1,2,-1
 640 0 l 1,3,-1
 0 0 l 1,0,-1
EndSplineSet
Validated: 1
EndChar

StartChar: uni024A
Encoding: 586 586 397
Width: 768
GlyphClass: 2
Flags: W
LayerCount: 2
Fore
SplineSet
0 0 m 1,0,-1
 0 896 l 1,1,-1
 640 896 l 1,2,-1
 640 0 l 1,3,-1
 0 0 l 1,0,-1
EndSplineSet
Validated: 1
EndChar

StartChar: uni024B
Encoding: 587 587 398
Width: 768
GlyphClass: 2
Flags: W
LayerCount: 2
Fore
SplineSet
0 0 m 1,0,-1
 0 896 l 1,1,-1
 640 896 l 1,2,-1
 640 0 l 1,3,-1
 0 0 l 1,0,-1
EndSplineSet
Validated: 1
EndChar

StartChar: uni024C
Encoding: 588 588 399
Width: 768
GlyphClass: 2
Flags: W
LayerCount: 2
Fore
SplineSet
0 0 m 1,0,-1
 0 896 l 1,1,-1
 640 896 l 1,2,-1
 640 0 l 1,3,-1
 0 0 l 1,0,-1
EndSplineSet
Validated: 1
EndChar

StartChar: uni024D
Encoding: 589 589 400
Width: 768
GlyphClass: 2
Flags: W
LayerCount: 2
Fore
SplineSet
0 0 m 1,0,-1
 0 896 l 1,1,-1
 640 896 l 1,2,-1
 640 0 l 1,3,-1
 0 0 l 1,0,-1
EndSplineSet
Validated: 1
EndChar

StartChar: uni024E
Encoding: 590 590 401
Width: 768
GlyphClass: 2
Flags: W
LayerCount: 2
Fore
SplineSet
0 0 m 1,0,-1
 0 896 l 1,1,-1
 640 896 l 1,2,-1
 640 0 l 1,3,-1
 0 0 l 1,0,-1
EndSplineSet
Validated: 1
EndChar

StartChar: uni024F
Encoding: 591 591 402
Width: 768
GlyphClass: 2
Flags: W
LayerCount: 2
Fore
SplineSet
0 0 m 1,0,-1
 0 896 l 1,1,-1
 640 896 l 1,2,-1
 640 0 l 1,3,-1
 0 0 l 1,0,-1
EndSplineSet
Validated: 1
EndChar

StartChar: emdash
Encoding: 8212 8212 403
Width: 768
GlyphClass: 2
Flags: W
LayerCount: 2
Fore
SplineSet
0 384 m 1,0,-1
 0 512 l 1,1,-1
 640 512 l 1,2,-1
 640 384 l 1,3,-1
 0 384 l 1,0,-1
EndSplineSet
Validated: 1
EndChar

StartChar: quoteleft
Encoding: 8216 8216 404
Width: 256
GlyphClass: 2
Flags: W
LayerCount: 2
Fore
SplineSet
0 640 m 1,0,-1
 0 896 l 1,1,-1
 128 896 l 1,2,-1
 128 640 l 1,3,-1
 0 640 l 1,0,-1
EndSplineSet
Validated: 1
EndChar

StartChar: quoteright
Encoding: 8217 8217 405
Width: 256
GlyphClass: 2
Flags: W
LayerCount: 2
Fore
SplineSet
0 640 m 1,0,-1
 0 896 l 1,1,-1
 128 896 l 1,2,-1
 128 640 l 1,3,-1
 0 640 l 1,0,-1
EndSplineSet
Validated: 1
EndChar

StartChar: quotesinglbase
Encoding: 8218 8218 406
Width: 768
GlyphClass: 2
Flags: W
LayerCount: 2
Fore
SplineSet
0 0 m 1,0,-1
 0 896 l 1,1,-1
 640 896 l 1,2,-1
 640 0 l 1,3,-1
 0 0 l 1,0,-1
EndSplineSet
Validated: 1
EndChar

StartChar: quotereversed
Encoding: 8219 8219 407
Width: 768
GlyphClass: 2
Flags: W
LayerCount: 2
Fore
SplineSet
0 0 m 1,0,-1
 0 896 l 1,1,-1
 640 896 l 1,2,-1
 640 0 l 1,3,-1
 0 0 l 1,0,-1
EndSplineSet
Validated: 1
EndChar

StartChar: quotedblleft
Encoding: 8220 8220 408
Width: 512
GlyphClass: 2
Flags: W
LayerCount: 2
Fore
SplineSet
0 640 m 1,0,-1
 0 896 l 1,1,-1
 128 896 l 1,2,-1
 128 640 l 1,3,-1
 0 640 l 1,0,-1
256 640 m 1,4,-1
 256 896 l 1,5,-1
 384 896 l 1,6,-1
 384 640 l 1,7,-1
 256 640 l 1,4,-1
EndSplineSet
Validated: 1
EndChar

StartChar: quotedblright
Encoding: 8221 8221 409
Width: 512
GlyphClass: 2
Flags: W
LayerCount: 2
Fore
SplineSet
0 640 m 1,0,-1
 0 896 l 1,1,-1
 128 896 l 1,2,-1
 128 640 l 1,3,-1
 0 640 l 1,0,-1
256 640 m 1,4,-1
 256 896 l 1,5,-1
 384 896 l 1,6,-1
 384 640 l 1,7,-1
 256 640 l 1,4,-1
EndSplineSet
Validated: 1
EndChar

StartChar: quotedblbase
Encoding: 8222 8222 410
Width: 768
GlyphClass: 2
Flags: W
LayerCount: 2
Fore
SplineSet
0 0 m 1,0,-1
 0 896 l 1,1,-1
 640 896 l 1,2,-1
 640 0 l 1,3,-1
 0 0 l 1,0,-1
EndSplineSet
Validated: 1
EndChar

StartChar: dagger
Encoding: 8224 8224 411
Width: 640
GlyphClass: 2
Flags: W
LayerCount: 2
Fore
SplineSet
256 0 m 1,0,-1
 256 512 l 1,1,-1
 0 512 l 1,2,-1
 0 640 l 1,3,-1
 256 640 l 1,4,-1
 256 896 l 1,5,-1
 384 896 l 1,6,-1
 384 640 l 1,7,-1
 640 640 l 1,8,-1
 640 512 l 1,9,-1
 384 512 l 1,10,-1
 384 0 l 1,11,-1
 256 0 l 1,0,-1
EndSplineSet
Validated: 1
EndChar

StartChar: ellipsis
Encoding: 8230 8230 412
Width: 768
GlyphClass: 2
Flags: W
LayerCount: 2
Fore
SplineSet
0 0 m 1,0,-1
 0 128 l 1,1,-1
 128 128 l 1,2,-1
 128 0 l 1,3,-1
 0 0 l 1,0,-1
256 0 m 1,4,-1
 256 128 l 1,5,-1
 384 128 l 1,6,-1
 384 0 l 1,7,-1
 256 0 l 1,4,-1
512 0 m 1,8,-1
 512 128 l 1,9,-1
 640 128 l 1,10,-1
 640 0 l 1,11,-1
 512 0 l 1,8,-1
EndSplineSet
Validated: 1
EndChar

StartChar: guilsinglleft
Encoding: 8249 8249 413
Width: 512
GlyphClass: 2
Flags: W
LayerCount: 2
Fore
SplineSet
256 0 m 1,0,-1
 256 128 l 1,1,-1
 384 128 l 1,2,-1
 384 0 l 1,3,-1
 256 0 l 1,0,-1
128 128 m 1,4,-1
 128 256 l 1,5,-1
 256 256 l 1,6,-1
 256 128 l 1,7,-1
 128 128 l 1,4,-1
0 256 m 1,8,-1
 0 384 l 1,9,-1
 128 384 l 1,10,-1
 128 256 l 1,11,-1
 0 256 l 1,8,-1
128 384 m 1,12,-1
 128 512 l 1,13,-1
 256 512 l 1,14,-1
 256 384 l 1,15,-1
 128 384 l 1,12,-1
256 512 m 1,16,-1
 256 640 l 1,17,-1
 384 640 l 1,18,-1
 384 512 l 1,19,-1
 256 512 l 1,16,-1
EndSplineSet
Validated: 5
EndChar

StartChar: guilsinglright
Encoding: 8250 8250 414
Width: 512
GlyphClass: 2
Flags: W
LayerCount: 2
Fore
SplineSet
0 0 m 1,0,-1
 0 128 l 1,1,-1
 128 128 l 1,2,-1
 128 0 l 1,3,-1
 0 0 l 1,0,-1
128 128 m 1,4,-1
 128 256 l 1,5,-1
 256 256 l 1,6,-1
 256 128 l 1,7,-1
 128 128 l 1,4,-1
256 256 m 1,8,-1
 256 384 l 1,9,-1
 384 384 l 1,10,-1
 384 256 l 1,11,-1
 256 256 l 1,8,-1
128 384 m 1,12,-1
 128 512 l 1,13,-1
 256 512 l 1,14,-1
 256 384 l 1,15,-1
 128 384 l 1,12,-1
0 512 m 1,16,-1
 0 640 l 1,17,-1
 128 640 l 1,18,-1
 128 512 l 1,19,-1
 0 512 l 1,16,-1
EndSplineSet
Validated: 5
EndChar

StartChar: Euro
Encoding: 8364 8364 415
Width: 768
GlyphClass: 2
Flags: W
LayerCount: 2
Fore
SplineSet
0 0 m 1,0,-1
 0 896 l 1,1,-1
 640 896 l 1,2,-1
 640 0 l 1,3,-1
 0 0 l 1,0,-1
EndSplineSet
Validated: 1
EndChar

StartChar: trademark
Encoding: 8482 8482 416
Width: 768
GlyphClass: 2
Flags: W
LayerCount: 2
Fore
SplineSet
0 0 m 1,0,-1
 0 896 l 1,1,-1
 640 896 l 1,2,-1
 640 0 l 1,3,-1
 0 0 l 1,0,-1
EndSplineSet
Validated: 1
EndChar

StartChar: uniFB01
Encoding: 64257 64257 417
Width: 768
GlyphClass: 2
Flags: W
LayerCount: 2
Fore
SplineSet
0 0 m 1,0,-1
 0 896 l 1,1,-1
 640 896 l 1,2,-1
 640 0 l 1,3,-1
 0 0 l 1,0,-1
EndSplineSet
Validated: 1
EndChar

StartChar: uniFB02
Encoding: 64258 64258 418
Width: 768
GlyphClass: 2
Flags: W
LayerCount: 2
Fore
SplineSet
0 0 m 1,0,-1
 0 896 l 1,1,-1
 640 896 l 1,2,-1
 640 0 l 1,3,-1
 0 0 l 1,0,-1
EndSplineSet
Validated: 1
EndChar

StartChar: Amacron
Encoding: 256 256 452
Width: 768
Flags: W
LayerCount: 2
Fore
SplineSet
0 0 m 1,0,-1
 0 768 l 1,1,-1
 128 768 l 1,2,-1
 128 512 l 1,3,-1
 512 512 l 1,4,-1
 512 768 l 1,5,-1
 640 768 l 1,6,-1
 640 0 l 1,7,-1
 512 0 l 1,8,-1
 512 384 l 1,9,-1
 128 384 l 1,10,-1
 128 0 l 1,11,-1
 0 0 l 1,0,-1
128 768 m 1,12,-1
 128 896 l 1,13,-1
 512 896 l 1,14,-1
 512 768 l 1,15,-1
 128 768 l 1,12,-1
EndSplineSet
Validated: 5
EndChar

StartChar: Abreve
Encoding: 258 258 453
Width: 768
Flags: W
LayerCount: 2
Fore
SplineSet
0 0 m 1,0,-1
 0 768 l 1,1,-1
 128 768 l 1,2,-1
 128 512 l 1,3,-1
 512 512 l 1,4,-1
 512 768 l 1,5,-1
 640 768 l 1,6,-1
 640 0 l 1,7,-1
 512 0 l 1,8,-1
 512 384 l 1,9,-1
 128 384 l 1,10,-1
 128 0 l 1,11,-1
 0 0 l 1,0,-1
128 768 m 1,12,-1
 128 896 l 1,13,-1
 512 896 l 1,14,-1
 512 768 l 1,15,-1
 128 768 l 1,12,-1
EndSplineSet
Validated: 5
EndChar

StartChar: Aogonek
Encoding: 260 260 454
Width: 768
Flags: W
LayerCount: 2
Fore
SplineSet
0 0 m 1,0,-1
 0 768 l 1,1,-1
 128 768 l 1,2,-1
 128 512 l 1,3,-1
 512 512 l 1,4,-1
 512 768 l 1,5,-1
 640 768 l 1,6,-1
 640 0 l 1,7,-1
 512 0 l 1,8,-1
 512 384 l 1,9,-1
 128 384 l 1,10,-1
 128 0 l 1,11,-1
 0 0 l 1,0,-1
128 768 m 1,12,-1
 128 896 l 1,13,-1
 512 896 l 1,14,-1
 512 768 l 1,15,-1
 128 768 l 1,12,-1
EndSplineSet
Validated: 5
EndChar

StartChar: amacron
Encoding: 257 257 455
Width: 768
Flags: W
LayerCount: 2
Fore
SplineSet
0 128 m 1,0,-1
 0 256 l 1,1,-1
 128 256 l 1,2,-1
 128 128 l 1,3,-1
 0 128 l 1,0,-1
128 0 m 1,4,-1
 128 128 l 1,5,-1
 512 128 l 1,6,-1
 512 256 l 1,7,-1
 128 256 l 1,8,-1
 128 384 l 1,9,-1
 512 384 l 1,10,-1
 512 512 l 1,11,-1
 640 512 l 1,12,-1
 640 0 l 1,13,-1
 128 0 l 1,4,-1
128 512 m 1,14,-1
 128 640 l 1,15,-1
 512 640 l 1,16,-1
 512 512 l 1,17,-1
 128 512 l 1,14,-1
EndSplineSet
Validated: 5
EndChar

StartChar: abreve
Encoding: 259 259 456
Width: 768
Flags: W
LayerCount: 2
Fore
SplineSet
0 128 m 1,0,-1
 0 256 l 1,1,-1
 128 256 l 1,2,-1
 128 128 l 1,3,-1
 0 128 l 1,0,-1
128 0 m 1,4,-1
 128 128 l 1,5,-1
 512 128 l 1,6,-1
 512 256 l 1,7,-1
 128 256 l 1,8,-1
 128 384 l 1,9,-1
 512 384 l 1,10,-1
 512 512 l 1,11,-1
 640 512 l 1,12,-1
 640 0 l 1,13,-1
 128 0 l 1,4,-1
128 512 m 1,14,-1
 128 640 l 1,15,-1
 512 640 l 1,16,-1
 512 512 l 1,17,-1
 128 512 l 1,14,-1
EndSplineSet
Validated: 5
EndChar

StartChar: aogonek
Encoding: 261 261 457
Width: 768
Flags: W
LayerCount: 2
Fore
SplineSet
0 128 m 1,0,-1
 0 256 l 1,1,-1
 128 256 l 1,2,-1
 128 128 l 1,3,-1
 0 128 l 1,0,-1
128 0 m 1,4,-1
 128 128 l 1,5,-1
 512 128 l 1,6,-1
 512 256 l 1,7,-1
 128 256 l 1,8,-1
 128 384 l 1,9,-1
 512 384 l 1,10,-1
 512 512 l 1,11,-1
 640 512 l 1,12,-1
 640 0 l 1,13,-1
 128 0 l 1,4,-1
128 512 m 1,14,-1
 128 640 l 1,15,-1
 512 640 l 1,16,-1
 512 512 l 1,17,-1
 128 512 l 1,14,-1
EndSplineSet
Validated: 5
EndChar

StartChar: Cacute
Encoding: 262 262 458
Width: 768
Flags: W
LayerCount: 2
Fore
SplineSet
128 0 m 1,0,-1
 128 128 l 1,1,-1
 512 128 l 1,2,-1
 512 0 l 1,3,-1
 128 0 l 1,0,-1
512 128 m 1,4,-1
 512 256 l 1,5,-1
 640 256 l 1,6,-1
 640 128 l 1,7,-1
 512 128 l 1,4,-1
0 128 m 1,8,-1
 0 768 l 1,9,-1
 128 768 l 1,10,-1
 128 128 l 1,11,-1
 0 128 l 1,8,-1
512 640 m 1,12,-1
 512 768 l 1,13,-1
 640 768 l 1,14,-1
 640 640 l 1,15,-1
 512 640 l 1,12,-1
128 768 m 1,16,-1
 128 896 l 1,17,-1
 512 896 l 1,18,-1
 512 768 l 1,19,-1
 128 768 l 1,16,-1
EndSplineSet
Validated: 5
EndChar

StartChar: Ccircumflex
Encoding: 264 264 459
Width: 768
Flags: W
LayerCount: 2
Fore
SplineSet
128 0 m 1,0,-1
 128 128 l 1,1,-1
 512 128 l 1,2,-1
 512 0 l 1,3,-1
 128 0 l 1,0,-1
512 128 m 1,4,-1
 512 256 l 1,5,-1
 640 256 l 1,6,-1
 640 128 l 1,7,-1
 512 128 l 1,4,-1
0 128 m 1,8,-1
 0 768 l 1,9,-1
 128 768 l 1,10,-1
 128 128 l 1,11,-1
 0 128 l 1,8,-1
512 640 m 1,12,-1
 512 768 l 1,13,-1
 640 768 l 1,14,-1
 640 640 l 1,15,-1
 512 640 l 1,12,-1
128 768 m 1,16,-1
 128 896 l 1,17,-1
 512 896 l 1,18,-1
 512 768 l 1,19,-1
 128 768 l 1,16,-1
EndSplineSet
Validated: 5
EndChar

StartChar: Cdotaccent
Encoding: 266 266 460
Width: 768
Flags: W
LayerCount: 2
Fore
SplineSet
128 0 m 1,0,-1
 128 128 l 1,1,-1
 512 128 l 1,2,-1
 512 0 l 1,3,-1
 128 0 l 1,0,-1
512 128 m 1,4,-1
 512 256 l 1,5,-1
 640 256 l 1,6,-1
 640 128 l 1,7,-1
 512 128 l 1,4,-1
0 128 m 1,8,-1
 0 768 l 1,9,-1
 128 768 l 1,10,-1
 128 128 l 1,11,-1
 0 128 l 1,8,-1
512 640 m 1,12,-1
 512 768 l 1,13,-1
 640 768 l 1,14,-1
 640 640 l 1,15,-1
 512 640 l 1,12,-1
128 768 m 1,16,-1
 128 896 l 1,17,-1
 512 896 l 1,18,-1
 512 768 l 1,19,-1
 128 768 l 1,16,-1
EndSplineSet
Validated: 5
EndChar

StartChar: Ccaron
Encoding: 268 268 461
Width: 768
Flags: W
LayerCount: 2
Fore
SplineSet
128 0 m 1,0,-1
 128 128 l 1,1,-1
 512 128 l 1,2,-1
 512 0 l 1,3,-1
 128 0 l 1,0,-1
512 128 m 1,4,-1
 512 256 l 1,5,-1
 640 256 l 1,6,-1
 640 128 l 1,7,-1
 512 128 l 1,4,-1
0 128 m 1,8,-1
 0 768 l 1,9,-1
 128 768 l 1,10,-1
 128 128 l 1,11,-1
 0 128 l 1,8,-1
512 640 m 1,12,-1
 512 768 l 1,13,-1
 640 768 l 1,14,-1
 640 640 l 1,15,-1
 512 640 l 1,12,-1
128 768 m 1,16,-1
 128 896 l 1,17,-1
 512 896 l 1,18,-1
 512 768 l 1,19,-1
 128 768 l 1,16,-1
EndSplineSet
Validated: 5
EndChar

StartChar: cacute
Encoding: 263 263 462
Width: 768
Flags: W
LayerCount: 2
Fore
SplineSet
128 0 m 1,0,-1
 128 128 l 1,1,-1
 512 128 l 1,2,-1
 512 0 l 1,3,-1
 128 0 l 1,0,-1
512 128 m 1,4,-1
 512 256 l 1,5,-1
 640 256 l 1,6,-1
 640 128 l 1,7,-1
 512 128 l 1,4,-1
0 128 m 1,8,-1
 0 512 l 1,9,-1
 128 512 l 1,10,-1
 128 128 l 1,11,-1
 0 128 l 1,8,-1
128 512 m 1,12,-1
 128 640 l 1,13,-1
 512 640 l 1,14,-1
 512 512 l 1,15,-1
 128 512 l 1,12,-1
EndSplineSet
Validated: 5
EndChar

StartChar: ccircumflex
Encoding: 265 265 463
Width: 768
Flags: W
LayerCount: 2
Fore
SplineSet
128 0 m 1,0,-1
 128 128 l 1,1,-1
 512 128 l 1,2,-1
 512 0 l 1,3,-1
 128 0 l 1,0,-1
512 128 m 1,4,-1
 512 256 l 1,5,-1
 640 256 l 1,6,-1
 640 128 l 1,7,-1
 512 128 l 1,4,-1
0 128 m 1,8,-1
 0 512 l 1,9,-1
 128 512 l 1,10,-1
 128 128 l 1,11,-1
 0 128 l 1,8,-1
128 512 m 1,12,-1
 128 640 l 1,13,-1
 512 640 l 1,14,-1
 512 512 l 1,15,-1
 128 512 l 1,12,-1
EndSplineSet
Validated: 5
EndChar

StartChar: cdotaccent
Encoding: 267 267 464
Width: 768
Flags: W
LayerCount: 2
Fore
SplineSet
128 0 m 1,0,-1
 128 128 l 1,1,-1
 512 128 l 1,2,-1
 512 0 l 1,3,-1
 128 0 l 1,0,-1
512 128 m 1,4,-1
 512 256 l 1,5,-1
 640 256 l 1,6,-1
 640 128 l 1,7,-1
 512 128 l 1,4,-1
0 128 m 1,8,-1
 0 512 l 1,9,-1
 128 512 l 1,10,-1
 128 128 l 1,11,-1
 0 128 l 1,8,-1
128 512 m 1,12,-1
 128 640 l 1,13,-1
 512 640 l 1,14,-1
 512 512 l 1,15,-1
 128 512 l 1,12,-1
EndSplineSet
Validated: 5
EndChar

StartChar: ccaron
Encoding: 269 269 465
Width: 768
Flags: W
LayerCount: 2
Fore
SplineSet
128 0 m 1,0,-1
 128 128 l 1,1,-1
 512 128 l 1,2,-1
 512 0 l 1,3,-1
 128 0 l 1,0,-1
512 128 m 1,4,-1
 512 256 l 1,5,-1
 640 256 l 1,6,-1
 640 128 l 1,7,-1
 512 128 l 1,4,-1
0 128 m 1,8,-1
 0 512 l 1,9,-1
 128 512 l 1,10,-1
 128 128 l 1,11,-1
 0 128 l 1,8,-1
128 512 m 1,12,-1
 128 640 l 1,13,-1
 512 640 l 1,14,-1
 512 512 l 1,15,-1
 128 512 l 1,12,-1
EndSplineSet
Validated: 5
EndChar

StartChar: Dcaron
Encoding: 270 270 466
Width: 768
Flags: W
LayerCount: 2
Fore
SplineSet
512 128 m 1,0,-1
 512 768 l 1,1,-1
 640 768 l 1,2,-1
 640 128 l 1,3,-1
 512 128 l 1,0,-1
0 0 m 1,4,-1
 0 896 l 1,5,-1
 512 896 l 1,6,-1
 512 768 l 1,7,-1
 128 768 l 1,8,-1
 128 128 l 1,9,-1
 512 128 l 1,10,-1
 512 0 l 1,11,-1
 0 0 l 1,4,-1
EndSplineSet
Validated: 5
EndChar

StartChar: Dcroat
Encoding: 272 272 467
Width: 768
Flags: W
LayerCount: 2
Fore
SplineSet
512 128 m 1,0,-1
 512 768 l 1,1,-1
 640 768 l 1,2,-1
 640 128 l 1,3,-1
 512 128 l 1,0,-1
0 0 m 1,4,-1
 0 896 l 1,5,-1
 512 896 l 1,6,-1
 512 768 l 1,7,-1
 128 768 l 1,8,-1
 128 128 l 1,9,-1
 512 128 l 1,10,-1
 512 0 l 1,11,-1
 0 0 l 1,4,-1
EndSplineSet
Validated: 5
EndChar

StartChar: dcaron
Encoding: 271 271 468
Width: 768
Flags: W
LayerCount: 2
Fore
SplineSet
0 128 m 1,0,-1
 0 512 l 1,1,-1
 128 512 l 1,2,-1
 128 128 l 1,3,-1
 0 128 l 1,0,-1
128 512 m 1,4,-1
 128 640 l 1,5,-1
 384 640 l 1,6,-1
 384 512 l 1,7,-1
 128 512 l 1,4,-1
128 0 m 1,8,-1
 128 128 l 1,9,-1
 512 128 l 1,10,-1
 512 384 l 1,11,-1
 384 384 l 1,12,-1
 384 512 l 1,13,-1
 512 512 l 1,14,-1
 512 896 l 1,15,-1
 640 896 l 1,16,-1
 640 0 l 1,17,-1
 128 0 l 1,8,-1
EndSplineSet
Validated: 5
EndChar

StartChar: dcroat
Encoding: 273 273 469
Width: 768
Flags: W
LayerCount: 2
Fore
SplineSet
0 128 m 1,0,-1
 0 512 l 1,1,-1
 128 512 l 1,2,-1
 128 128 l 1,3,-1
 0 128 l 1,0,-1
128 512 m 1,4,-1
 128 640 l 1,5,-1
 384 640 l 1,6,-1
 384 512 l 1,7,-1
 128 512 l 1,4,-1
128 0 m 1,8,-1
 128 128 l 1,9,-1
 512 128 l 1,10,-1
 512 384 l 1,11,-1
 384 384 l 1,12,-1
 384 512 l 1,13,-1
 512 512 l 1,14,-1
 512 896 l 1,15,-1
 640 896 l 1,16,-1
 640 0 l 1,17,-1
 128 0 l 1,8,-1
EndSplineSet
Validated: 5
EndChar

StartChar: Emacron
Encoding: 274 274 470
Width: 768
Flags: W
LayerCount: 2
Fore
SplineSet
0 0 m 1,0,-1
 0 896 l 1,1,-1
 640 896 l 1,2,-1
 640 768 l 1,3,-1
 128 768 l 1,4,-1
 128 512 l 1,5,-1
 512 512 l 1,6,-1
 512 384 l 1,7,-1
 128 384 l 1,8,-1
 128 128 l 1,9,-1
 640 128 l 1,10,-1
 640 0 l 1,11,-1
 0 0 l 1,0,-1
EndSplineSet
Validated: 1
EndChar

StartChar: Ebreve
Encoding: 276 276 471
Width: 768
Flags: W
LayerCount: 2
Fore
SplineSet
0 0 m 1,0,-1
 0 896 l 1,1,-1
 640 896 l 1,2,-1
 640 768 l 1,3,-1
 128 768 l 1,4,-1
 128 512 l 1,5,-1
 512 512 l 1,6,-1
 512 384 l 1,7,-1
 128 384 l 1,8,-1
 128 128 l 1,9,-1
 640 128 l 1,10,-1
 640 0 l 1,11,-1
 0 0 l 1,0,-1
EndSplineSet
Validated: 1
EndChar

StartChar: Edotaccent
Encoding: 278 278 472
Width: 768
Flags: W
LayerCount: 2
Fore
SplineSet
0 0 m 1,0,-1
 0 896 l 1,1,-1
 640 896 l 1,2,-1
 640 768 l 1,3,-1
 128 768 l 1,4,-1
 128 512 l 1,5,-1
 512 512 l 1,6,-1
 512 384 l 1,7,-1
 128 384 l 1,8,-1
 128 128 l 1,9,-1
 640 128 l 1,10,-1
 640 0 l 1,11,-1
 0 0 l 1,0,-1
EndSplineSet
Validated: 1
EndChar

StartChar: Eogonek
Encoding: 280 280 473
Width: 768
Flags: W
LayerCount: 2
Fore
SplineSet
0 0 m 1,0,-1
 0 896 l 1,1,-1
 640 896 l 1,2,-1
 640 768 l 1,3,-1
 128 768 l 1,4,-1
 128 512 l 1,5,-1
 512 512 l 1,6,-1
 512 384 l 1,7,-1
 128 384 l 1,8,-1
 128 128 l 1,9,-1
 640 128 l 1,10,-1
 640 0 l 1,11,-1
 0 0 l 1,0,-1
EndSplineSet
Validated: 1
EndChar

StartChar: Ecaron
Encoding: 282 282 474
Width: 768
Flags: W
LayerCount: 2
Fore
SplineSet
0 0 m 1,0,-1
 0 896 l 1,1,-1
 640 896 l 1,2,-1
 640 768 l 1,3,-1
 128 768 l 1,4,-1
 128 512 l 1,5,-1
 512 512 l 1,6,-1
 512 384 l 1,7,-1
 128 384 l 1,8,-1
 128 128 l 1,9,-1
 640 128 l 1,10,-1
 640 0 l 1,11,-1
 0 0 l 1,0,-1
EndSplineSet
Validated: 1
EndChar

StartChar: Gcircumflex
Encoding: 284 284 475
Width: 768
Flags: W
LayerCount: 2
Fore
SplineSet
128 0 m 1,0,-1
 128 128 l 1,1,-1
 512 128 l 1,2,-1
 512 384 l 1,3,-1
 256 384 l 1,4,-1
 256 512 l 1,5,-1
 640 512 l 1,6,-1
 640 0 l 1,7,-1
 128 0 l 1,0,-1
0 128 m 1,8,-1
 0 768 l 1,9,-1
 128 768 l 1,10,-1
 128 128 l 1,11,-1
 0 128 l 1,8,-1
512 640 m 1,12,-1
 512 768 l 1,13,-1
 640 768 l 1,14,-1
 640 640 l 1,15,-1
 512 640 l 1,12,-1
128 768 m 1,16,-1
 128 896 l 1,17,-1
 512 896 l 1,18,-1
 512 768 l 1,19,-1
 128 768 l 1,16,-1
EndSplineSet
Validated: 5
EndChar

StartChar: Gbreve
Encoding: 286 286 476
Width: 768
Flags: W
LayerCount: 2
Fore
SplineSet
128 0 m 1,0,-1
 128 128 l 1,1,-1
 512 128 l 1,2,-1
 512 384 l 1,3,-1
 256 384 l 1,4,-1
 256 512 l 1,5,-1
 640 512 l 1,6,-1
 640 0 l 1,7,-1
 128 0 l 1,0,-1
0 128 m 1,8,-1
 0 768 l 1,9,-1
 128 768 l 1,10,-1
 128 128 l 1,11,-1
 0 128 l 1,8,-1
512 640 m 1,12,-1
 512 768 l 1,13,-1
 640 768 l 1,14,-1
 640 640 l 1,15,-1
 512 640 l 1,12,-1
128 768 m 1,16,-1
 128 896 l 1,17,-1
 512 896 l 1,18,-1
 512 768 l 1,19,-1
 128 768 l 1,16,-1
EndSplineSet
Validated: 5
EndChar

StartChar: Gdotaccent
Encoding: 288 288 477
Width: 768
Flags: W
LayerCount: 2
Fore
SplineSet
128 0 m 1,0,-1
 128 128 l 1,1,-1
 512 128 l 1,2,-1
 512 384 l 1,3,-1
 256 384 l 1,4,-1
 256 512 l 1,5,-1
 640 512 l 1,6,-1
 640 0 l 1,7,-1
 128 0 l 1,0,-1
0 128 m 1,8,-1
 0 768 l 1,9,-1
 128 768 l 1,10,-1
 128 128 l 1,11,-1
 0 128 l 1,8,-1
512 640 m 1,12,-1
 512 768 l 1,13,-1
 640 768 l 1,14,-1
 640 640 l 1,15,-1
 512 640 l 1,12,-1
128 768 m 1,16,-1
 128 896 l 1,17,-1
 512 896 l 1,18,-1
 512 768 l 1,19,-1
 128 768 l 1,16,-1
EndSplineSet
Validated: 5
EndChar

StartChar: uni0122
Encoding: 290 290 478
Width: 768
Flags: W
LayerCount: 2
Fore
SplineSet
128 0 m 1,0,-1
 128 128 l 1,1,-1
 512 128 l 1,2,-1
 512 384 l 1,3,-1
 256 384 l 1,4,-1
 256 512 l 1,5,-1
 640 512 l 1,6,-1
 640 0 l 1,7,-1
 128 0 l 1,0,-1
0 128 m 1,8,-1
 0 768 l 1,9,-1
 128 768 l 1,10,-1
 128 128 l 1,11,-1
 0 128 l 1,8,-1
512 640 m 1,12,-1
 512 768 l 1,13,-1
 640 768 l 1,14,-1
 640 640 l 1,15,-1
 512 640 l 1,12,-1
128 768 m 1,16,-1
 128 896 l 1,17,-1
 512 896 l 1,18,-1
 512 768 l 1,19,-1
 128 768 l 1,16,-1
EndSplineSet
Validated: 5
EndChar

StartChar: Hcircumflex
Encoding: 292 292 479
Width: 768
Flags: W
LayerCount: 2
Fore
SplineSet
0 0 m 1,0,-1
 0 896 l 1,1,-1
 128 896 l 1,2,-1
 128 512 l 1,3,-1
 512 512 l 1,4,-1
 512 896 l 1,5,-1
 640 896 l 1,6,-1
 640 0 l 1,7,-1
 512 0 l 1,8,-1
 512 384 l 1,9,-1
 128 384 l 1,10,-1
 128 0 l 1,11,-1
 0 0 l 1,0,-1
EndSplineSet
Validated: 1
EndChar

StartChar: Hbar
Encoding: 294 294 480
Width: 768
Flags: W
LayerCount: 2
Fore
SplineSet
0 0 m 1,0,-1
 0 896 l 1,1,-1
 128 896 l 1,2,-1
 128 512 l 1,3,-1
 512 512 l 1,4,-1
 512 896 l 1,5,-1
 640 896 l 1,6,-1
 640 0 l 1,7,-1
 512 0 l 1,8,-1
 512 384 l 1,9,-1
 128 384 l 1,10,-1
 128 0 l 1,11,-1
 0 0 l 1,0,-1
EndSplineSet
Validated: 1
EndChar

StartChar: Itilde
Encoding: 296 296 481
Width: 768
Flags: W
LayerCount: 2
Fore
SplineSet
128 0 m 5,0,-1
 128 128 l 5,1,-1
 256 128 l 5,2,-1
 256 768 l 5,3,-1
 128 768 l 5,4,-1
 128 896 l 5,5,-1
 512 896 l 5,6,-1
 512 768 l 5,7,-1
 384 768 l 5,8,-1
 384 128 l 5,9,-1
 512 128 l 5,10,-1
 512 0 l 5,11,-1
 128 0 l 5,0,-1
EndSplineSet
Validated: 1
EndChar

StartChar: Imacron
Encoding: 298 298 482
Width: 768
Flags: W
LayerCount: 2
Fore
SplineSet
128 0 m 5,0,-1
 128 128 l 5,1,-1
 256 128 l 5,2,-1
 256 768 l 5,3,-1
 128 768 l 5,4,-1
 128 896 l 5,5,-1
 512 896 l 5,6,-1
 512 768 l 5,7,-1
 384 768 l 5,8,-1
 384 128 l 5,9,-1
 512 128 l 5,10,-1
 512 0 l 5,11,-1
 128 0 l 5,0,-1
EndSplineSet
Validated: 1
EndChar

StartChar: Ibreve
Encoding: 300 300 483
Width: 768
Flags: W
LayerCount: 2
Fore
SplineSet
128 0 m 5,0,-1
 128 128 l 5,1,-1
 256 128 l 5,2,-1
 256 768 l 5,3,-1
 128 768 l 5,4,-1
 128 896 l 5,5,-1
 512 896 l 5,6,-1
 512 768 l 5,7,-1
 384 768 l 5,8,-1
 384 128 l 5,9,-1
 512 128 l 5,10,-1
 512 0 l 5,11,-1
 128 0 l 5,0,-1
EndSplineSet
Validated: 1
EndChar

StartChar: Iogonek
Encoding: 302 302 484
Width: 768
Flags: W
LayerCount: 2
Fore
SplineSet
128 0 m 5,0,-1
 128 128 l 5,1,-1
 256 128 l 5,2,-1
 256 768 l 5,3,-1
 128 768 l 5,4,-1
 128 896 l 5,5,-1
 512 896 l 5,6,-1
 512 768 l 5,7,-1
 384 768 l 5,8,-1
 384 128 l 5,9,-1
 512 128 l 5,10,-1
 512 0 l 5,11,-1
 128 0 l 5,0,-1
EndSplineSet
Validated: 1
EndChar

StartChar: Idotaccent
Encoding: 304 304 485
Width: 768
Flags: W
LayerCount: 2
Fore
SplineSet
128 0 m 5,0,-1
 128 128 l 5,1,-1
 256 128 l 5,2,-1
 256 768 l 5,3,-1
 128 768 l 5,4,-1
 128 896 l 5,5,-1
 512 896 l 5,6,-1
 512 768 l 5,7,-1
 384 768 l 5,8,-1
 384 128 l 5,9,-1
 512 128 l 5,10,-1
 512 0 l 5,11,-1
 128 0 l 5,0,-1
EndSplineSet
Validated: 1
EndChar

StartChar: Jcircumflex
Encoding: 308 308 486
Width: 768
Flags: W
LayerCount: 2
Fore
SplineSet
128 0 m 1,0,-1
 128 128 l 1,1,-1
 384 128 l 1,2,-1
 384 0 l 1,3,-1
 128 0 l 1,0,-1
0 128 m 1,4,-1
 0 256 l 1,5,-1
 128 256 l 1,6,-1
 128 128 l 1,7,-1
 0 128 l 1,4,-1
384 128 m 1,8,-1
 384 768 l 1,9,-1
 256 768 l 1,10,-1
 256 896 l 1,11,-1
 640 896 l 1,12,-1
 640 768 l 1,13,-1
 512 768 l 1,14,-1
 512 128 l 1,15,-1
 384 128 l 1,8,-1
EndSplineSet
Validated: 5
EndChar

StartChar: uni0136
Encoding: 310 310 487
Width: 768
Flags: W
LayerCount: 2
Fore
SplineSet
512 0 m 1,0,-1
 512 128 l 1,1,-1
 640 128 l 1,2,-1
 640 0 l 1,3,-1
 512 0 l 1,0,-1
384 128 m 1,4,-1
 384 256 l 1,5,-1
 512 256 l 1,6,-1
 512 128 l 1,7,-1
 384 128 l 1,4,-1
256 256 m 1,8,-1
 256 384 l 1,9,-1
 384 384 l 1,10,-1
 384 256 l 1,11,-1
 256 256 l 1,8,-1
256 512 m 1,12,-1
 256 640 l 1,13,-1
 384 640 l 1,14,-1
 384 512 l 1,15,-1
 256 512 l 1,12,-1
384 640 m 1,16,-1
 384 768 l 1,17,-1
 512 768 l 1,18,-1
 512 640 l 1,19,-1
 384 640 l 1,16,-1
0 0 m 1,20,-1
 0 896 l 1,21,-1
 128 896 l 1,22,-1
 128 512 l 1,23,-1
 256 512 l 1,24,-1
 256 384 l 1,25,-1
 128 384 l 1,26,-1
 128 0 l 1,27,-1
 0 0 l 1,20,-1
512 768 m 1,28,-1
 512 896 l 1,29,-1
 640 896 l 1,30,-1
 640 768 l 1,31,-1
 512 768 l 1,28,-1
EndSplineSet
Validated: 5
EndChar

StartChar: kgreenlandic
Encoding: 312 312 488
Width: 768
Flags: W
LayerCount: 2
Fore
SplineSet
512 0 m 1,0,-1
 512 128 l 1,1,-1
 640 128 l 1,2,-1
 640 0 l 1,3,-1
 512 0 l 1,0,-1
384 128 m 1,4,-1
 384 256 l 1,5,-1
 512 256 l 1,6,-1
 512 128 l 1,7,-1
 384 128 l 1,4,-1
256 256 m 1,8,-1
 256 384 l 1,9,-1
 384 384 l 1,10,-1
 384 256 l 1,11,-1
 256 256 l 1,8,-1
256 512 m 1,12,-1
 256 640 l 1,13,-1
 384 640 l 1,14,-1
 384 512 l 1,15,-1
 256 512 l 1,12,-1
384 640 m 1,16,-1
 384 768 l 1,17,-1
 512 768 l 1,18,-1
 512 640 l 1,19,-1
 384 640 l 1,16,-1
0 0 m 1,20,-1
 0 896 l 1,21,-1
 128 896 l 1,22,-1
 128 512 l 1,23,-1
 256 512 l 1,24,-1
 256 384 l 1,25,-1
 128 384 l 1,26,-1
 128 0 l 1,27,-1
 0 0 l 1,20,-1
512 768 m 1,28,-1
 512 896 l 1,29,-1
 640 896 l 1,30,-1
 640 768 l 1,31,-1
 512 768 l 1,28,-1
EndSplineSet
Validated: 5
EndChar

StartChar: Lacute
Encoding: 313 313 489
Width: 768
Flags: W
LayerCount: 2
Fore
SplineSet
0 0 m 1,0,-1
 0 896 l 1,1,-1
 128 896 l 1,2,-1
 128 128 l 1,3,-1
 640 128 l 1,4,-1
 640 0 l 1,5,-1
 0 0 l 1,0,-1
EndSplineSet
Validated: 1
EndChar

StartChar: uni013B
Encoding: 315 315 490
Width: 768
Flags: W
LayerCount: 2
Fore
SplineSet
0 0 m 1,0,-1
 0 896 l 1,1,-1
 128 896 l 1,2,-1
 128 128 l 1,3,-1
 640 128 l 1,4,-1
 640 0 l 1,5,-1
 0 0 l 1,0,-1
EndSplineSet
Validated: 1
EndChar

StartChar: Lcaron
Encoding: 317 317 491
Width: 768
Flags: W
LayerCount: 2
Fore
SplineSet
0 0 m 1,0,-1
 0 896 l 1,1,-1
 128 896 l 1,2,-1
 128 128 l 1,3,-1
 640 128 l 1,4,-1
 640 0 l 1,5,-1
 0 0 l 1,0,-1
EndSplineSet
Validated: 1
EndChar

StartChar: Ldot
Encoding: 319 319 492
Width: 768
Flags: W
LayerCount: 2
Fore
SplineSet
0 0 m 1,0,-1
 0 896 l 1,1,-1
 128 896 l 1,2,-1
 128 128 l 1,3,-1
 640 128 l 1,4,-1
 640 0 l 1,5,-1
 0 0 l 1,0,-1
EndSplineSet
Validated: 1
EndChar

StartChar: Lslash
Encoding: 321 321 493
Width: 768
Flags: W
LayerCount: 2
Fore
SplineSet
0 0 m 1,0,-1
 0 896 l 1,1,-1
 128 896 l 1,2,-1
 128 128 l 1,3,-1
 640 128 l 1,4,-1
 640 0 l 1,5,-1
 0 0 l 1,0,-1
EndSplineSet
Validated: 1
EndChar

StartChar: Nacute
Encoding: 323 323 494
Width: 768
Flags: W
LayerCount: 2
Fore
SplineSet
256 384 m 1,0,-1
 256 512 l 1,1,-1
 384 512 l 1,2,-1
 384 384 l 1,3,-1
 256 384 l 1,0,-1
0 0 m 1,4,-1
 0 896 l 1,5,-1
 128 896 l 1,6,-1
 128 640 l 1,7,-1
 256 640 l 1,8,-1
 256 512 l 1,9,-1
 128 512 l 1,10,-1
 128 0 l 1,11,-1
 0 0 l 1,4,-1
512 0 m 1,12,-1
 512 256 l 1,13,-1
 384 256 l 1,14,-1
 384 384 l 1,15,-1
 512 384 l 1,16,-1
 512 896 l 1,17,-1
 640 896 l 1,18,-1
 640 0 l 1,19,-1
 512 0 l 1,12,-1
EndSplineSet
Validated: 5
EndChar

StartChar: uni0145
Encoding: 325 325 495
Width: 768
Flags: W
LayerCount: 2
Fore
SplineSet
256 384 m 1,0,-1
 256 512 l 1,1,-1
 384 512 l 1,2,-1
 384 384 l 1,3,-1
 256 384 l 1,0,-1
0 0 m 1,4,-1
 0 896 l 1,5,-1
 128 896 l 1,6,-1
 128 640 l 1,7,-1
 256 640 l 1,8,-1
 256 512 l 1,9,-1
 128 512 l 1,10,-1
 128 0 l 1,11,-1
 0 0 l 1,4,-1
512 0 m 1,12,-1
 512 256 l 1,13,-1
 384 256 l 1,14,-1
 384 384 l 1,15,-1
 512 384 l 1,16,-1
 512 896 l 1,17,-1
 640 896 l 1,18,-1
 640 0 l 1,19,-1
 512 0 l 1,12,-1
EndSplineSet
Validated: 5
EndChar

StartChar: Ncaron
Encoding: 327 327 496
Width: 768
Flags: W
LayerCount: 2
Fore
SplineSet
256 384 m 1,0,-1
 256 512 l 1,1,-1
 384 512 l 1,2,-1
 384 384 l 1,3,-1
 256 384 l 1,0,-1
0 0 m 1,4,-1
 0 896 l 1,5,-1
 128 896 l 1,6,-1
 128 640 l 1,7,-1
 256 640 l 1,8,-1
 256 512 l 1,9,-1
 128 512 l 1,10,-1
 128 0 l 1,11,-1
 0 0 l 1,4,-1
512 0 m 1,12,-1
 512 256 l 1,13,-1
 384 256 l 1,14,-1
 384 384 l 1,15,-1
 512 384 l 1,16,-1
 512 896 l 1,17,-1
 640 896 l 1,18,-1
 640 0 l 1,19,-1
 512 0 l 1,12,-1
EndSplineSet
Validated: 5
EndChar

StartChar: Omacron
Encoding: 332 332 497
Width: 768
Flags: W
LayerCount: 2
Fore
SplineSet
128 0 m 1,0,-1
 128 128 l 1,1,-1
 512 128 l 1,2,-1
 512 0 l 1,3,-1
 128 0 l 1,0,-1
0 128 m 1,4,-1
 0 768 l 1,5,-1
 128 768 l 1,6,-1
 128 128 l 1,7,-1
 0 128 l 1,4,-1
512 128 m 1,8,-1
 512 768 l 1,9,-1
 640 768 l 1,10,-1
 640 128 l 1,11,-1
 512 128 l 1,8,-1
128 768 m 1,12,-1
 128 896 l 1,13,-1
 512 896 l 1,14,-1
 512 768 l 1,15,-1
 128 768 l 1,12,-1
EndSplineSet
Validated: 5
EndChar

StartChar: Obreve
Encoding: 334 334 498
Width: 768
Flags: W
LayerCount: 2
Fore
SplineSet
128 0 m 1,0,-1
 128 128 l 1,1,-1
 512 128 l 1,2,-1
 512 0 l 1,3,-1
 128 0 l 1,0,-1
0 128 m 1,4,-1
 0 768 l 1,5,-1
 128 768 l 1,6,-1
 128 128 l 1,7,-1
 0 128 l 1,4,-1
512 128 m 1,8,-1
 512 768 l 1,9,-1
 640 768 l 1,10,-1
 640 128 l 1,11,-1
 512 128 l 1,8,-1
128 768 m 1,12,-1
 128 896 l 1,13,-1
 512 896 l 1,14,-1
 512 768 l 1,15,-1
 128 768 l 1,12,-1
EndSplineSet
Validated: 5
EndChar

StartChar: Ohungarumlaut
Encoding: 336 336 499
Width: 768
Flags: W
LayerCount: 2
Fore
SplineSet
128 0 m 1,0,-1
 128 128 l 1,1,-1
 512 128 l 1,2,-1
 512 0 l 1,3,-1
 128 0 l 1,0,-1
0 128 m 1,4,-1
 0 768 l 1,5,-1
 128 768 l 1,6,-1
 128 128 l 1,7,-1
 0 128 l 1,4,-1
512 128 m 1,8,-1
 512 768 l 1,9,-1
 640 768 l 1,10,-1
 640 128 l 1,11,-1
 512 128 l 1,8,-1
128 768 m 1,12,-1
 128 896 l 1,13,-1
 512 896 l 1,14,-1
 512 768 l 1,15,-1
 128 768 l 1,12,-1
EndSplineSet
Validated: 5
EndChar

StartChar: Racute
Encoding: 340 340 500
Width: 768
Flags: W
LayerCount: 2
Fore
SplineSet
512 0 m 1,0,-1
 512 128 l 1,1,-1
 640 128 l 1,2,-1
 640 0 l 1,3,-1
 512 0 l 1,0,-1
384 128 m 1,4,-1
 384 256 l 1,5,-1
 512 256 l 1,6,-1
 512 128 l 1,7,-1
 384 128 l 1,4,-1
512 512 m 1,8,-1
 512 768 l 1,9,-1
 640 768 l 1,10,-1
 640 512 l 1,11,-1
 512 512 l 1,8,-1
0 0 m 1,12,-1
 0 896 l 1,13,-1
 512 896 l 1,14,-1
 512 768 l 1,15,-1
 128 768 l 1,16,-1
 128 512 l 1,17,-1
 512 512 l 1,18,-1
 512 384 l 1,19,-1
 384 384 l 1,20,-1
 384 256 l 1,21,-1
 256 256 l 1,22,-1
 256 384 l 1,23,-1
 128 384 l 1,24,-1
 128 0 l 1,25,-1
 0 0 l 1,12,-1
EndSplineSet
Validated: 5
EndChar

StartChar: uni0156
Encoding: 342 342 501
Width: 768
Flags: W
LayerCount: 2
Fore
SplineSet
512 0 m 1,0,-1
 512 128 l 1,1,-1
 640 128 l 1,2,-1
 640 0 l 1,3,-1
 512 0 l 1,0,-1
384 128 m 1,4,-1
 384 256 l 1,5,-1
 512 256 l 1,6,-1
 512 128 l 1,7,-1
 384 128 l 1,4,-1
512 512 m 1,8,-1
 512 768 l 1,9,-1
 640 768 l 1,10,-1
 640 512 l 1,11,-1
 512 512 l 1,8,-1
0 0 m 1,12,-1
 0 896 l 1,13,-1
 512 896 l 1,14,-1
 512 768 l 1,15,-1
 128 768 l 1,16,-1
 128 512 l 1,17,-1
 512 512 l 1,18,-1
 512 384 l 1,19,-1
 384 384 l 1,20,-1
 384 256 l 1,21,-1
 256 256 l 1,22,-1
 256 384 l 1,23,-1
 128 384 l 1,24,-1
 128 0 l 1,25,-1
 0 0 l 1,12,-1
EndSplineSet
Validated: 5
EndChar

StartChar: Rcaron
Encoding: 344 344 502
Width: 768
Flags: W
LayerCount: 2
Fore
SplineSet
512 0 m 1,0,-1
 512 128 l 1,1,-1
 640 128 l 1,2,-1
 640 0 l 1,3,-1
 512 0 l 1,0,-1
384 128 m 1,4,-1
 384 256 l 1,5,-1
 512 256 l 1,6,-1
 512 128 l 1,7,-1
 384 128 l 1,4,-1
512 512 m 1,8,-1
 512 768 l 1,9,-1
 640 768 l 1,10,-1
 640 512 l 1,11,-1
 512 512 l 1,8,-1
0 0 m 1,12,-1
 0 896 l 1,13,-1
 512 896 l 1,14,-1
 512 768 l 1,15,-1
 128 768 l 1,16,-1
 128 512 l 1,17,-1
 512 512 l 1,18,-1
 512 384 l 1,19,-1
 384 384 l 1,20,-1
 384 256 l 1,21,-1
 256 256 l 1,22,-1
 256 384 l 1,23,-1
 128 384 l 1,24,-1
 128 0 l 1,25,-1
 0 0 l 1,12,-1
EndSplineSet
Validated: 5
EndChar

StartChar: Sacute
Encoding: 346 346 503
Width: 768
Flags: W
LayerCount: 2
Fore
SplineSet
0 0 m 1,0,-1
 0 128 l 1,1,-1
 512 128 l 1,2,-1
 512 0 l 1,3,-1
 0 0 l 1,0,-1
512 128 m 1,4,-1
 512 384 l 1,5,-1
 640 384 l 1,6,-1
 640 128 l 1,7,-1
 512 128 l 1,4,-1
128 384 m 1,8,-1
 128 512 l 1,9,-1
 512 512 l 1,10,-1
 512 384 l 1,11,-1
 128 384 l 1,8,-1
0 512 m 1,12,-1
 0 768 l 1,13,-1
 128 768 l 1,14,-1
 128 512 l 1,15,-1
 0 512 l 1,12,-1
128 768 m 1,16,-1
 128 896 l 1,17,-1
 640 896 l 1,18,-1
 640 768 l 1,19,-1
 128 768 l 1,16,-1
EndSplineSet
Validated: 5
EndChar

StartChar: Scircumflex
Encoding: 348 348 504
Width: 768
Flags: W
LayerCount: 2
Fore
SplineSet
0 0 m 1,0,-1
 0 128 l 1,1,-1
 512 128 l 1,2,-1
 512 0 l 1,3,-1
 0 0 l 1,0,-1
512 128 m 1,4,-1
 512 384 l 1,5,-1
 640 384 l 1,6,-1
 640 128 l 1,7,-1
 512 128 l 1,4,-1
128 384 m 1,8,-1
 128 512 l 1,9,-1
 512 512 l 1,10,-1
 512 384 l 1,11,-1
 128 384 l 1,8,-1
0 512 m 1,12,-1
 0 768 l 1,13,-1
 128 768 l 1,14,-1
 128 512 l 1,15,-1
 0 512 l 1,12,-1
128 768 m 1,16,-1
 128 896 l 1,17,-1
 640 896 l 1,18,-1
 640 768 l 1,19,-1
 128 768 l 1,16,-1
EndSplineSet
Validated: 5
EndChar

StartChar: Scedilla
Encoding: 350 350 505
Width: 768
Flags: W
LayerCount: 2
Fore
SplineSet
0 0 m 1,0,-1
 0 128 l 1,1,-1
 512 128 l 1,2,-1
 512 0 l 1,3,-1
 0 0 l 1,0,-1
512 128 m 1,4,-1
 512 384 l 1,5,-1
 640 384 l 1,6,-1
 640 128 l 1,7,-1
 512 128 l 1,4,-1
128 384 m 1,8,-1
 128 512 l 1,9,-1
 512 512 l 1,10,-1
 512 384 l 1,11,-1
 128 384 l 1,8,-1
0 512 m 1,12,-1
 0 768 l 1,13,-1
 128 768 l 1,14,-1
 128 512 l 1,15,-1
 0 512 l 1,12,-1
128 768 m 1,16,-1
 128 896 l 1,17,-1
 640 896 l 1,18,-1
 640 768 l 1,19,-1
 128 768 l 1,16,-1
EndSplineSet
Validated: 5
EndChar

StartChar: Scaron
Encoding: 352 352 506
Width: 768
Flags: W
LayerCount: 2
Fore
SplineSet
0 0 m 1,0,-1
 0 128 l 1,1,-1
 512 128 l 1,2,-1
 512 0 l 1,3,-1
 0 0 l 1,0,-1
512 128 m 1,4,-1
 512 384 l 1,5,-1
 640 384 l 1,6,-1
 640 128 l 1,7,-1
 512 128 l 1,4,-1
128 384 m 1,8,-1
 128 512 l 1,9,-1
 512 512 l 1,10,-1
 512 384 l 1,11,-1
 128 384 l 1,8,-1
0 512 m 1,12,-1
 0 768 l 1,13,-1
 128 768 l 1,14,-1
 128 512 l 1,15,-1
 0 512 l 1,12,-1
128 768 m 1,16,-1
 128 896 l 1,17,-1
 640 896 l 1,18,-1
 640 768 l 1,19,-1
 128 768 l 1,16,-1
EndSplineSet
Validated: 5
EndChar

StartChar: uni0162
Encoding: 354 354 507
Width: 768
Flags: W
LayerCount: 2
Fore
SplineSet
256 0 m 1,0,-1
 256 768 l 1,1,-1
 0 768 l 1,2,-1
 0 896 l 1,3,-1
 640 896 l 1,4,-1
 640 768 l 1,5,-1
 384 768 l 1,6,-1
 384 0 l 1,7,-1
 256 0 l 1,0,-1
EndSplineSet
Validated: 1
EndChar

StartChar: Tcaron
Encoding: 356 356 508
Width: 768
Flags: W
LayerCount: 2
Fore
SplineSet
256 0 m 1,0,-1
 256 768 l 1,1,-1
 0 768 l 1,2,-1
 0 896 l 1,3,-1
 640 896 l 1,4,-1
 640 768 l 1,5,-1
 384 768 l 1,6,-1
 384 0 l 1,7,-1
 256 0 l 1,0,-1
EndSplineSet
Validated: 1
EndChar

StartChar: Tbar
Encoding: 358 358 509
Width: 768
Flags: W
LayerCount: 2
Fore
SplineSet
256 0 m 1,0,-1
 256 768 l 1,1,-1
 0 768 l 1,2,-1
 0 896 l 1,3,-1
 640 896 l 1,4,-1
 640 768 l 1,5,-1
 384 768 l 1,6,-1
 384 0 l 1,7,-1
 256 0 l 1,0,-1
EndSplineSet
Validated: 1
EndChar

StartChar: Utilde
Encoding: 360 360 510
Width: 768
Flags: W
LayerCount: 2
Fore
SplineSet
128 0 m 1,0,-1
 128 128 l 1,1,-1
 512 128 l 1,2,-1
 512 0 l 1,3,-1
 128 0 l 1,0,-1
0 128 m 1,4,-1
 0 896 l 1,5,-1
 128 896 l 1,6,-1
 128 128 l 1,7,-1
 0 128 l 1,4,-1
512 128 m 1,8,-1
 512 896 l 1,9,-1
 640 896 l 1,10,-1
 640 128 l 1,11,-1
 512 128 l 1,8,-1
EndSplineSet
Validated: 5
EndChar

StartChar: Umacron
Encoding: 362 362 511
Width: 768
Flags: W
LayerCount: 2
Fore
SplineSet
128 0 m 1,0,-1
 128 128 l 1,1,-1
 512 128 l 1,2,-1
 512 0 l 1,3,-1
 128 0 l 1,0,-1
0 128 m 1,4,-1
 0 896 l 1,5,-1
 128 896 l 1,6,-1
 128 128 l 1,7,-1
 0 128 l 1,4,-1
512 128 m 1,8,-1
 512 896 l 1,9,-1
 640 896 l 1,10,-1
 640 128 l 1,11,-1
 512 128 l 1,8,-1
EndSplineSet
Validated: 5
EndChar

StartChar: Ubreve
Encoding: 364 364 512
Width: 768
Flags: W
LayerCount: 2
Fore
SplineSet
128 0 m 1,0,-1
 128 128 l 1,1,-1
 512 128 l 1,2,-1
 512 0 l 1,3,-1
 128 0 l 1,0,-1
0 128 m 1,4,-1
 0 896 l 1,5,-1
 128 896 l 1,6,-1
 128 128 l 1,7,-1
 0 128 l 1,4,-1
512 128 m 1,8,-1
 512 896 l 1,9,-1
 640 896 l 1,10,-1
 640 128 l 1,11,-1
 512 128 l 1,8,-1
EndSplineSet
Validated: 5
EndChar

StartChar: Uring
Encoding: 366 366 513
Width: 768
Flags: W
LayerCount: 2
Fore
SplineSet
128 0 m 1,0,-1
 128 128 l 1,1,-1
 512 128 l 1,2,-1
 512 0 l 1,3,-1
 128 0 l 1,0,-1
0 128 m 1,4,-1
 0 896 l 1,5,-1
 128 896 l 1,6,-1
 128 128 l 1,7,-1
 0 128 l 1,4,-1
512 128 m 1,8,-1
 512 896 l 1,9,-1
 640 896 l 1,10,-1
 640 128 l 1,11,-1
 512 128 l 1,8,-1
EndSplineSet
Validated: 5
EndChar

StartChar: Uhungarumlaut
Encoding: 368 368 514
Width: 768
Flags: W
LayerCount: 2
Fore
SplineSet
128 0 m 1,0,-1
 128 128 l 1,1,-1
 512 128 l 1,2,-1
 512 0 l 1,3,-1
 128 0 l 1,0,-1
0 128 m 1,4,-1
 0 896 l 1,5,-1
 128 896 l 1,6,-1
 128 128 l 1,7,-1
 0 128 l 1,4,-1
512 128 m 1,8,-1
 512 896 l 1,9,-1
 640 896 l 1,10,-1
 640 128 l 1,11,-1
 512 128 l 1,8,-1
EndSplineSet
Validated: 5
EndChar

StartChar: Uogonek
Encoding: 370 370 515
Width: 768
Flags: W
LayerCount: 2
Fore
SplineSet
128 0 m 1,0,-1
 128 128 l 1,1,-1
 512 128 l 1,2,-1
 512 0 l 1,3,-1
 128 0 l 1,0,-1
0 128 m 1,4,-1
 0 896 l 1,5,-1
 128 896 l 1,6,-1
 128 128 l 1,7,-1
 0 128 l 1,4,-1
512 128 m 1,8,-1
 512 896 l 1,9,-1
 640 896 l 1,10,-1
 640 128 l 1,11,-1
 512 128 l 1,8,-1
EndSplineSet
Validated: 5
EndChar

StartChar: Wcircumflex
Encoding: 372 372 516
Width: 768
Flags: W
LayerCount: 2
Fore
SplineSet
128 0 m 1,0,-1
 128 128 l 1,1,-1
 256 128 l 1,2,-1
 256 0 l 1,3,-1
 128 0 l 1,0,-1
384 0 m 1,4,-1
 384 128 l 1,5,-1
 512 128 l 1,6,-1
 512 0 l 1,7,-1
 384 0 l 1,4,-1
256 128 m 1,8,-1
 256 512 l 1,9,-1
 384 512 l 1,10,-1
 384 128 l 1,11,-1
 256 128 l 1,8,-1
0 128 m 1,12,-1
 0 896 l 1,13,-1
 128 896 l 1,14,-1
 128 128 l 1,15,-1
 0 128 l 1,12,-1
512 128 m 1,16,-1
 512 896 l 1,17,-1
 640 896 l 1,18,-1
 640 128 l 1,19,-1
 512 128 l 1,16,-1
EndSplineSet
Validated: 5
EndChar

StartChar: Ycircumflex
Encoding: 374 374 517
Width: 768
Flags: W
LayerCount: 2
Fore
SplineSet
256 0 m 1,0,-1
 256 384 l 1,1,-1
 384 384 l 1,2,-1
 384 0 l 1,3,-1
 256 0 l 1,0,-1
128 384 m 1,4,-1
 128 512 l 1,5,-1
 256 512 l 1,6,-1
 256 384 l 1,7,-1
 128 384 l 1,4,-1
384 384 m 1,8,-1
 384 512 l 1,9,-1
 512 512 l 1,10,-1
 512 384 l 1,11,-1
 384 384 l 1,8,-1
0 512 m 1,12,-1
 0 896 l 1,13,-1
 128 896 l 1,14,-1
 128 512 l 1,15,-1
 0 512 l 1,12,-1
512 512 m 1,16,-1
 512 896 l 1,17,-1
 640 896 l 1,18,-1
 640 512 l 1,19,-1
 512 512 l 1,16,-1
EndSplineSet
Validated: 5
EndChar

StartChar: Zacute
Encoding: 377 377 518
Width: 768
Flags: W
LayerCount: 2
Fore
SplineSet
0 0 m 1,0,-1
 0 256 l 1,1,-1
 128 256 l 1,2,-1
 128 128 l 1,3,-1
 640 128 l 1,4,-1
 640 0 l 1,5,-1
 0 0 l 1,0,-1
128 256 m 1,6,-1
 128 384 l 1,7,-1
 256 384 l 1,8,-1
 256 256 l 1,9,-1
 128 256 l 1,6,-1
256 384 m 1,10,-1
 256 512 l 1,11,-1
 384 512 l 1,12,-1
 384 384 l 1,13,-1
 256 384 l 1,10,-1
384 512 m 1,14,-1
 384 640 l 1,15,-1
 512 640 l 1,16,-1
 512 512 l 1,17,-1
 384 512 l 1,14,-1
512 640 m 1,18,-1
 512 768 l 1,19,-1
 0 768 l 1,20,-1
 0 896 l 1,21,-1
 640 896 l 1,22,-1
 640 640 l 1,23,-1
 512 640 l 1,18,-1
EndSplineSet
Validated: 5
EndChar

StartChar: Zdotaccent
Encoding: 379 379 519
Width: 768
Flags: W
LayerCount: 2
Fore
SplineSet
0 0 m 1,0,-1
 0 256 l 1,1,-1
 128 256 l 1,2,-1
 128 128 l 1,3,-1
 640 128 l 1,4,-1
 640 0 l 1,5,-1
 0 0 l 1,0,-1
128 256 m 1,6,-1
 128 384 l 1,7,-1
 256 384 l 1,8,-1
 256 256 l 1,9,-1
 128 256 l 1,6,-1
256 384 m 1,10,-1
 256 512 l 1,11,-1
 384 512 l 1,12,-1
 384 384 l 1,13,-1
 256 384 l 1,10,-1
384 512 m 1,14,-1
 384 640 l 1,15,-1
 512 640 l 1,16,-1
 512 512 l 1,17,-1
 384 512 l 1,14,-1
512 640 m 1,18,-1
 512 768 l 1,19,-1
 0 768 l 1,20,-1
 0 896 l 1,21,-1
 640 896 l 1,22,-1
 640 640 l 1,23,-1
 512 640 l 1,18,-1
EndSplineSet
Validated: 5
EndChar

StartChar: Zcaron
Encoding: 381 381 520
Width: 768
Flags: W
LayerCount: 2
Fore
SplineSet
0 0 m 1,0,-1
 0 256 l 1,1,-1
 128 256 l 1,2,-1
 128 128 l 1,3,-1
 640 128 l 1,4,-1
 640 0 l 1,5,-1
 0 0 l 1,0,-1
128 256 m 1,6,-1
 128 384 l 1,7,-1
 256 384 l 1,8,-1
 256 256 l 1,9,-1
 128 256 l 1,6,-1
256 384 m 1,10,-1
 256 512 l 1,11,-1
 384 512 l 1,12,-1
 384 384 l 1,13,-1
 256 384 l 1,10,-1
384 512 m 1,14,-1
 384 640 l 1,15,-1
 512 640 l 1,16,-1
 512 512 l 1,17,-1
 384 512 l 1,14,-1
512 640 m 1,18,-1
 512 768 l 1,19,-1
 0 768 l 1,20,-1
 0 896 l 1,21,-1
 640 896 l 1,22,-1
 640 640 l 1,23,-1
 512 640 l 1,18,-1
EndSplineSet
Validated: 5
EndChar

StartChar: emacron
Encoding: 275 275 521
Width: 768
Flags: W
LayerCount: 2
Fore
SplineSet
128 0 m 1,0,-1
 128 128 l 1,1,-1
 512 128 l 1,2,-1
 512 0 l 1,3,-1
 128 0 l 1,0,-1
0 128 m 1,4,-1
 0 512 l 1,5,-1
 128 512 l 1,6,-1
 128 384 l 1,7,-1
 512 384 l 1,8,-1
 512 512 l 1,9,-1
 640 512 l 1,10,-1
 640 256 l 1,11,-1
 128 256 l 1,12,-1
 128 128 l 1,13,-1
 0 128 l 1,4,-1
128 512 m 1,14,-1
 128 640 l 1,15,-1
 512 640 l 1,16,-1
 512 512 l 1,17,-1
 128 512 l 1,14,-1
EndSplineSet
Validated: 5
EndChar

StartChar: ebreve
Encoding: 277 277 522
Width: 768
Flags: W
LayerCount: 2
Fore
SplineSet
128 0 m 1,0,-1
 128 128 l 1,1,-1
 512 128 l 1,2,-1
 512 0 l 1,3,-1
 128 0 l 1,0,-1
0 128 m 1,4,-1
 0 512 l 1,5,-1
 128 512 l 1,6,-1
 128 384 l 1,7,-1
 512 384 l 1,8,-1
 512 512 l 1,9,-1
 640 512 l 1,10,-1
 640 256 l 1,11,-1
 128 256 l 1,12,-1
 128 128 l 1,13,-1
 0 128 l 1,4,-1
128 512 m 1,14,-1
 128 640 l 1,15,-1
 512 640 l 1,16,-1
 512 512 l 1,17,-1
 128 512 l 1,14,-1
EndSplineSet
Validated: 5
EndChar

StartChar: edotaccent
Encoding: 279 279 523
Width: 768
Flags: W
LayerCount: 2
Fore
SplineSet
128 0 m 1,0,-1
 128 128 l 1,1,-1
 512 128 l 1,2,-1
 512 0 l 1,3,-1
 128 0 l 1,0,-1
0 128 m 1,4,-1
 0 512 l 1,5,-1
 128 512 l 1,6,-1
 128 384 l 1,7,-1
 512 384 l 1,8,-1
 512 512 l 1,9,-1
 640 512 l 1,10,-1
 640 256 l 1,11,-1
 128 256 l 1,12,-1
 128 128 l 1,13,-1
 0 128 l 1,4,-1
128 512 m 1,14,-1
 128 640 l 1,15,-1
 512 640 l 1,16,-1
 512 512 l 1,17,-1
 128 512 l 1,14,-1
EndSplineSet
Validated: 5
EndChar

StartChar: eogonek
Encoding: 281 281 524
Width: 768
Flags: W
LayerCount: 2
Fore
SplineSet
128 0 m 1,0,-1
 128 128 l 1,1,-1
 512 128 l 1,2,-1
 512 0 l 1,3,-1
 128 0 l 1,0,-1
0 128 m 1,4,-1
 0 512 l 1,5,-1
 128 512 l 1,6,-1
 128 384 l 1,7,-1
 512 384 l 1,8,-1
 512 512 l 1,9,-1
 640 512 l 1,10,-1
 640 256 l 1,11,-1
 128 256 l 1,12,-1
 128 128 l 1,13,-1
 0 128 l 1,4,-1
128 512 m 1,14,-1
 128 640 l 1,15,-1
 512 640 l 1,16,-1
 512 512 l 1,17,-1
 128 512 l 1,14,-1
EndSplineSet
Validated: 5
EndChar

StartChar: ecaron
Encoding: 283 283 525
Width: 768
Flags: W
LayerCount: 2
Fore
SplineSet
128 0 m 1,0,-1
 128 128 l 1,1,-1
 512 128 l 1,2,-1
 512 0 l 1,3,-1
 128 0 l 1,0,-1
0 128 m 1,4,-1
 0 512 l 1,5,-1
 128 512 l 1,6,-1
 128 384 l 1,7,-1
 512 384 l 1,8,-1
 512 512 l 1,9,-1
 640 512 l 1,10,-1
 640 256 l 1,11,-1
 128 256 l 1,12,-1
 128 128 l 1,13,-1
 0 128 l 1,4,-1
128 512 m 1,14,-1
 128 640 l 1,15,-1
 512 640 l 1,16,-1
 512 512 l 1,17,-1
 128 512 l 1,14,-1
EndSplineSet
Validated: 5
EndChar

StartChar: gcircumflex
Encoding: 285 285 526
Width: 768
Flags: W
LayerCount: 2
Fore
SplineSet
128 0 m 1,0,-1
 128 128 l 1,1,-1
 512 128 l 1,2,-1
 512 0 l 1,3,-1
 128 0 l 1,0,-1
0 384 m 1,4,-1
 0 640 l 1,5,-1
 128 640 l 1,6,-1
 128 384 l 1,7,-1
 0 384 l 1,4,-1
512 128 m 1,8,-1
 512 256 l 1,9,-1
 128 256 l 1,10,-1
 128 384 l 1,11,-1
 512 384 l 1,12,-1
 512 640 l 1,13,-1
 128 640 l 1,14,-1
 128 768 l 1,15,-1
 640 768 l 1,16,-1
 640 128 l 1,17,-1
 512 128 l 1,8,-1
EndSplineSet
Validated: 5
EndChar

StartChar: gbreve
Encoding: 287 287 527
Width: 768
Flags: W
LayerCount: 2
Fore
SplineSet
128 0 m 1,0,-1
 128 128 l 1,1,-1
 512 128 l 1,2,-1
 512 0 l 1,3,-1
 128 0 l 1,0,-1
0 384 m 1,4,-1
 0 640 l 1,5,-1
 128 640 l 1,6,-1
 128 384 l 1,7,-1
 0 384 l 1,4,-1
512 128 m 1,8,-1
 512 256 l 1,9,-1
 128 256 l 1,10,-1
 128 384 l 1,11,-1
 512 384 l 1,12,-1
 512 640 l 1,13,-1
 128 640 l 1,14,-1
 128 768 l 1,15,-1
 640 768 l 1,16,-1
 640 128 l 1,17,-1
 512 128 l 1,8,-1
EndSplineSet
Validated: 5
EndChar

StartChar: gdotaccent
Encoding: 289 289 528
Width: 768
Flags: W
LayerCount: 2
Fore
SplineSet
128 0 m 1,0,-1
 128 128 l 1,1,-1
 512 128 l 1,2,-1
 512 0 l 1,3,-1
 128 0 l 1,0,-1
0 384 m 1,4,-1
 0 640 l 1,5,-1
 128 640 l 1,6,-1
 128 384 l 1,7,-1
 0 384 l 1,4,-1
512 128 m 1,8,-1
 512 256 l 1,9,-1
 128 256 l 1,10,-1
 128 384 l 1,11,-1
 512 384 l 1,12,-1
 512 640 l 1,13,-1
 128 640 l 1,14,-1
 128 768 l 1,15,-1
 640 768 l 1,16,-1
 640 128 l 1,17,-1
 512 128 l 1,8,-1
EndSplineSet
Validated: 5
EndChar

StartChar: uni0123
Encoding: 291 291 529
Width: 768
Flags: W
LayerCount: 2
Fore
SplineSet
128 0 m 1,0,-1
 128 128 l 1,1,-1
 512 128 l 1,2,-1
 512 0 l 1,3,-1
 128 0 l 1,0,-1
0 384 m 1,4,-1
 0 640 l 1,5,-1
 128 640 l 1,6,-1
 128 384 l 1,7,-1
 0 384 l 1,4,-1
512 128 m 1,8,-1
 512 256 l 1,9,-1
 128 256 l 1,10,-1
 128 384 l 1,11,-1
 512 384 l 1,12,-1
 512 640 l 1,13,-1
 128 640 l 1,14,-1
 128 768 l 1,15,-1
 640 768 l 1,16,-1
 640 128 l 1,17,-1
 512 128 l 1,8,-1
EndSplineSet
Validated: 5
EndChar

StartChar: hcircumflex
Encoding: 293 293 530
Width: 768
Flags: W
LayerCount: 2
Fore
SplineSet
512 0 m 1,0,-1
 512 512 l 1,1,-1
 640 512 l 1,2,-1
 640 0 l 1,3,-1
 512 0 l 1,0,-1
256 512 m 1,4,-1
 256 640 l 1,5,-1
 512 640 l 1,6,-1
 512 512 l 1,7,-1
 256 512 l 1,4,-1
0 0 m 1,8,-1
 0 896 l 1,9,-1
 128 896 l 1,10,-1
 128 512 l 1,11,-1
 256 512 l 1,12,-1
 256 384 l 1,13,-1
 128 384 l 1,14,-1
 128 0 l 1,15,-1
 0 0 l 1,8,-1
EndSplineSet
Validated: 5
EndChar

StartChar: hbar
Encoding: 295 295 531
Width: 768
Flags: W
LayerCount: 2
Fore
SplineSet
512 0 m 1,0,-1
 512 512 l 1,1,-1
 640 512 l 1,2,-1
 640 0 l 1,3,-1
 512 0 l 1,0,-1
256 512 m 1,4,-1
 256 640 l 1,5,-1
 512 640 l 1,6,-1
 512 512 l 1,7,-1
 256 512 l 1,4,-1
0 0 m 1,8,-1
 0 896 l 1,9,-1
 128 896 l 1,10,-1
 128 512 l 1,11,-1
 256 512 l 1,12,-1
 256 384 l 1,13,-1
 128 384 l 1,14,-1
 128 0 l 1,15,-1
 0 0 l 1,8,-1
EndSplineSet
Validated: 5
EndChar

StartChar: itilde
Encoding: 297 297 532
Width: 768
Flags: W
LayerCount: 2
Fore
SplineSet
128 0 m 5,0,-1
 128 128 l 5,1,-1
 256 128 l 5,2,-1
 256 512 l 5,3,-1
 128 512 l 5,4,-1
 128 640 l 5,5,-1
 384 640 l 5,6,-1
 384 128 l 5,7,-1
 512 128 l 5,8,-1
 512 0 l 5,9,-1
 128 0 l 5,0,-1
256 768 m 5,10,-1
 256 896 l 5,11,-1
 384 896 l 5,12,-1
 384 768 l 5,13,-1
 256 768 l 5,10,-1
EndSplineSet
Validated: 1
EndChar

StartChar: imacron
Encoding: 299 299 533
Width: 768
Flags: W
LayerCount: 2
Fore
SplineSet
128 0 m 5,0,-1
 128 128 l 5,1,-1
 256 128 l 5,2,-1
 256 512 l 5,3,-1
 128 512 l 5,4,-1
 128 640 l 5,5,-1
 384 640 l 5,6,-1
 384 128 l 5,7,-1
 512 128 l 5,8,-1
 512 0 l 5,9,-1
 128 0 l 5,0,-1
256 768 m 5,10,-1
 256 896 l 5,11,-1
 384 896 l 5,12,-1
 384 768 l 5,13,-1
 256 768 l 5,10,-1
EndSplineSet
Validated: 1
EndChar

StartChar: ibreve
Encoding: 301 301 534
Width: 768
Flags: W
LayerCount: 2
Fore
SplineSet
128 0 m 5,0,-1
 128 128 l 5,1,-1
 256 128 l 5,2,-1
 256 512 l 5,3,-1
 128 512 l 5,4,-1
 128 640 l 5,5,-1
 384 640 l 5,6,-1
 384 128 l 5,7,-1
 512 128 l 5,8,-1
 512 0 l 5,9,-1
 128 0 l 5,0,-1
256 768 m 5,10,-1
 256 896 l 5,11,-1
 384 896 l 5,12,-1
 384 768 l 5,13,-1
 256 768 l 5,10,-1
EndSplineSet
Validated: 1
EndChar

StartChar: iogonek
Encoding: 303 303 535
Width: 768
Flags: W
LayerCount: 2
Fore
SplineSet
128 0 m 5,0,-1
 128 128 l 5,1,-1
 256 128 l 5,2,-1
 256 512 l 5,3,-1
 128 512 l 5,4,-1
 128 640 l 5,5,-1
 384 640 l 5,6,-1
 384 128 l 5,7,-1
 512 128 l 5,8,-1
 512 0 l 5,9,-1
 128 0 l 5,0,-1
256 768 m 5,10,-1
 256 896 l 5,11,-1
 384 896 l 5,12,-1
 384 768 l 5,13,-1
 256 768 l 5,10,-1
EndSplineSet
Validated: 1
EndChar

StartChar: dotlessi
Encoding: 305 305 536
Width: 768
Flags: W
LayerCount: 2
Fore
SplineSet
128 0 m 5,0,-1
 128 128 l 5,1,-1
 256 128 l 5,2,-1
 256 512 l 5,3,-1
 128 512 l 5,4,-1
 128 640 l 5,5,-1
 384 640 l 5,6,-1
 384 128 l 5,7,-1
 512 128 l 5,8,-1
 512 0 l 5,9,-1
 128 0 l 5,0,-1
256 768 m 5,10,-1
 256 896 l 5,11,-1
 384 896 l 5,12,-1
 384 768 l 5,13,-1
 256 768 l 5,10,-1
EndSplineSet
Validated: 1
EndChar

StartChar: jcircumflex
Encoding: 309 309 537
Width: 768
Flags: W
LayerCount: 2
Fore
SplineSet
128 0 m 1,0,-1
 128 128 l 1,1,-1
 384 128 l 1,2,-1
 384 0 l 1,3,-1
 128 0 l 1,0,-1
0 128 m 1,4,-1
 0 256 l 1,5,-1
 128 256 l 1,6,-1
 128 128 l 1,7,-1
 0 128 l 1,4,-1
384 128 m 1,8,-1
 384 640 l 1,9,-1
 512 640 l 1,10,-1
 512 128 l 1,11,-1
 384 128 l 1,8,-1
384 768 m 1,12,-1
 384 896 l 1,13,-1
 512 896 l 1,14,-1
 512 768 l 1,15,-1
 384 768 l 1,12,-1
EndSplineSet
Validated: 5
EndChar

StartChar: uni0137
Encoding: 311 311 538
Width: 768
Flags: W
LayerCount: 2
Fore
SplineSet
384 0 m 1,0,-1
 384 128 l 1,1,-1
 512 128 l 1,2,-1
 512 0 l 1,3,-1
 384 0 l 1,0,-1
256 128 m 1,4,-1
 256 256 l 1,5,-1
 384 256 l 1,6,-1
 384 128 l 1,7,-1
 256 128 l 1,4,-1
256 384 m 1,8,-1
 256 512 l 1,9,-1
 384 512 l 1,10,-1
 384 384 l 1,11,-1
 256 384 l 1,8,-1
384 512 m 1,12,-1
 384 640 l 1,13,-1
 512 640 l 1,14,-1
 512 512 l 1,15,-1
 384 512 l 1,12,-1
0 0 m 1,16,-1
 0 896 l 1,17,-1
 128 896 l 1,18,-1
 128 384 l 1,19,-1
 256 384 l 1,20,-1
 256 256 l 1,21,-1
 128 256 l 1,22,-1
 128 0 l 1,23,-1
 0 0 l 1,16,-1
EndSplineSet
Validated: 5
EndChar

StartChar: lacute
Encoding: 314 314 539
Width: 768
Flags: W
LayerCount: 2
Fore
SplineSet
128 0 m 5,0,-1
 128 128 l 5,1,-1
 256 128 l 5,2,-1
 256 768 l 5,3,-1
 128 768 l 5,4,-1
 128 896 l 5,5,-1
 384 896 l 5,6,-1
 384 128 l 5,7,-1
 512 128 l 5,8,-1
 512 0 l 5,9,-1
 128 0 l 5,0,-1
EndSplineSet
Validated: 1
EndChar

StartChar: uni013C
Encoding: 316 316 540
Width: 768
Flags: W
LayerCount: 2
Fore
SplineSet
128 0 m 5,0,-1
 128 128 l 5,1,-1
 256 128 l 5,2,-1
 256 768 l 5,3,-1
 128 768 l 5,4,-1
 128 896 l 5,5,-1
 384 896 l 5,6,-1
 384 128 l 5,7,-1
 512 128 l 5,8,-1
 512 0 l 5,9,-1
 128 0 l 5,0,-1
EndSplineSet
Validated: 1
EndChar

StartChar: lcaron
Encoding: 318 318 541
Width: 768
Flags: W
LayerCount: 2
Fore
SplineSet
128 0 m 5,0,-1
 128 128 l 5,1,-1
 256 128 l 5,2,-1
 256 768 l 5,3,-1
 128 768 l 5,4,-1
 128 896 l 5,5,-1
 384 896 l 5,6,-1
 384 128 l 5,7,-1
 512 128 l 5,8,-1
 512 0 l 5,9,-1
 128 0 l 5,0,-1
EndSplineSet
Validated: 1
EndChar

StartChar: ldot
Encoding: 320 320 542
Width: 768
Flags: W
LayerCount: 2
Fore
SplineSet
128 0 m 5,0,-1
 128 128 l 5,1,-1
 256 128 l 5,2,-1
 256 768 l 5,3,-1
 128 768 l 5,4,-1
 128 896 l 5,5,-1
 384 896 l 5,6,-1
 384 128 l 5,7,-1
 512 128 l 5,8,-1
 512 0 l 5,9,-1
 128 0 l 5,0,-1
EndSplineSet
Validated: 1
EndChar

StartChar: lslash
Encoding: 322 322 543
Width: 768
Flags: W
LayerCount: 2
Fore
SplineSet
128 0 m 5,0,-1
 128 128 l 5,1,-1
 256 128 l 5,2,-1
 256 768 l 5,3,-1
 128 768 l 5,4,-1
 128 896 l 5,5,-1
 384 896 l 5,6,-1
 384 128 l 5,7,-1
 512 128 l 5,8,-1
 512 0 l 5,9,-1
 128 0 l 5,0,-1
EndSplineSet
Validated: 1
EndChar

StartChar: nacute
Encoding: 324 324 544
Width: 768
Flags: W
LayerCount: 2
Fore
SplineSet
512 0 m 1,0,-1
 512 512 l 1,1,-1
 640 512 l 1,2,-1
 640 0 l 1,3,-1
 512 0 l 1,0,-1
0 0 m 1,4,-1
 0 640 l 1,5,-1
 128 640 l 1,6,-1
 128 512 l 1,7,-1
 256 512 l 1,8,-1
 256 384 l 1,9,-1
 128 384 l 1,10,-1
 128 0 l 1,11,-1
 0 0 l 1,4,-1
256 512 m 1,12,-1
 256 640 l 1,13,-1
 512 640 l 1,14,-1
 512 512 l 1,15,-1
 256 512 l 1,12,-1
EndSplineSet
Validated: 5
EndChar

StartChar: uni0146
Encoding: 326 326 545
Width: 768
Flags: W
LayerCount: 2
Fore
SplineSet
512 0 m 1,0,-1
 512 512 l 1,1,-1
 640 512 l 1,2,-1
 640 0 l 1,3,-1
 512 0 l 1,0,-1
0 0 m 1,4,-1
 0 640 l 1,5,-1
 128 640 l 1,6,-1
 128 512 l 1,7,-1
 256 512 l 1,8,-1
 256 384 l 1,9,-1
 128 384 l 1,10,-1
 128 0 l 1,11,-1
 0 0 l 1,4,-1
256 512 m 1,12,-1
 256 640 l 1,13,-1
 512 640 l 1,14,-1
 512 512 l 1,15,-1
 256 512 l 1,12,-1
EndSplineSet
Validated: 5
EndChar

StartChar: ncaron
Encoding: 328 328 546
Width: 768
Flags: W
LayerCount: 2
Fore
SplineSet
512 0 m 1,0,-1
 512 512 l 1,1,-1
 640 512 l 1,2,-1
 640 0 l 1,3,-1
 512 0 l 1,0,-1
0 0 m 1,4,-1
 0 640 l 1,5,-1
 128 640 l 1,6,-1
 128 512 l 1,7,-1
 256 512 l 1,8,-1
 256 384 l 1,9,-1
 128 384 l 1,10,-1
 128 0 l 1,11,-1
 0 0 l 1,4,-1
256 512 m 1,12,-1
 256 640 l 1,13,-1
 512 640 l 1,14,-1
 512 512 l 1,15,-1
 256 512 l 1,12,-1
EndSplineSet
Validated: 5
EndChar

StartChar: napostrophe
Encoding: 329 329 547
Width: 768
Flags: W
LayerCount: 2
Fore
SplineSet
512 0 m 1,0,-1
 512 512 l 1,1,-1
 640 512 l 1,2,-1
 640 0 l 1,3,-1
 512 0 l 1,0,-1
0 0 m 1,4,-1
 0 640 l 1,5,-1
 128 640 l 1,6,-1
 128 512 l 1,7,-1
 256 512 l 1,8,-1
 256 384 l 1,9,-1
 128 384 l 1,10,-1
 128 0 l 1,11,-1
 0 0 l 1,4,-1
256 512 m 1,12,-1
 256 640 l 1,13,-1
 512 640 l 1,14,-1
 512 512 l 1,15,-1
 256 512 l 1,12,-1
EndSplineSet
Validated: 5
EndChar

StartChar: omacron
Encoding: 333 333 548
Width: 768
Flags: W
LayerCount: 2
Fore
SplineSet
128 0 m 1,0,-1
 128 128 l 1,1,-1
 512 128 l 1,2,-1
 512 0 l 1,3,-1
 128 0 l 1,0,-1
0 128 m 1,4,-1
 0 512 l 1,5,-1
 128 512 l 1,6,-1
 128 128 l 1,7,-1
 0 128 l 1,4,-1
512 128 m 1,8,-1
 512 512 l 1,9,-1
 640 512 l 1,10,-1
 640 128 l 1,11,-1
 512 128 l 1,8,-1
128 512 m 1,12,-1
 128 640 l 1,13,-1
 512 640 l 1,14,-1
 512 512 l 1,15,-1
 128 512 l 1,12,-1
EndSplineSet
Validated: 5
EndChar

StartChar: obreve
Encoding: 335 335 549
Width: 768
Flags: W
LayerCount: 2
Fore
SplineSet
128 0 m 1,0,-1
 128 128 l 1,1,-1
 512 128 l 1,2,-1
 512 0 l 1,3,-1
 128 0 l 1,0,-1
0 128 m 1,4,-1
 0 512 l 1,5,-1
 128 512 l 1,6,-1
 128 128 l 1,7,-1
 0 128 l 1,4,-1
512 128 m 1,8,-1
 512 512 l 1,9,-1
 640 512 l 1,10,-1
 640 128 l 1,11,-1
 512 128 l 1,8,-1
128 512 m 1,12,-1
 128 640 l 1,13,-1
 512 640 l 1,14,-1
 512 512 l 1,15,-1
 128 512 l 1,12,-1
EndSplineSet
Validated: 5
EndChar

StartChar: ohungarumlaut
Encoding: 337 337 550
Width: 768
Flags: W
LayerCount: 2
Fore
SplineSet
128 0 m 1,0,-1
 128 128 l 1,1,-1
 512 128 l 1,2,-1
 512 0 l 1,3,-1
 128 0 l 1,0,-1
0 128 m 1,4,-1
 0 512 l 1,5,-1
 128 512 l 1,6,-1
 128 128 l 1,7,-1
 0 128 l 1,4,-1
512 128 m 1,8,-1
 512 512 l 1,9,-1
 640 512 l 1,10,-1
 640 128 l 1,11,-1
 512 128 l 1,8,-1
128 512 m 1,12,-1
 128 640 l 1,13,-1
 512 640 l 1,14,-1
 512 512 l 1,15,-1
 128 512 l 1,12,-1
EndSplineSet
Validated: 5
EndChar

StartChar: racute
Encoding: 341 341 551
Width: 768
Flags: W
LayerCount: 2
Fore
SplineSet
512 384 m 1,0,-1
 512 512 l 1,1,-1
 640 512 l 1,2,-1
 640 384 l 1,3,-1
 512 384 l 1,0,-1
0 0 m 1,4,-1
 0 640 l 1,5,-1
 128 640 l 1,6,-1
 128 512 l 1,7,-1
 256 512 l 1,8,-1
 256 384 l 1,9,-1
 128 384 l 1,10,-1
 128 0 l 1,11,-1
 0 0 l 1,4,-1
256 512 m 1,12,-1
 256 640 l 1,13,-1
 512 640 l 1,14,-1
 512 512 l 1,15,-1
 256 512 l 1,12,-1
EndSplineSet
Validated: 5
EndChar

StartChar: uni0157
Encoding: 343 343 552
Width: 768
Flags: W
LayerCount: 2
Fore
SplineSet
512 384 m 1,0,-1
 512 512 l 1,1,-1
 640 512 l 1,2,-1
 640 384 l 1,3,-1
 512 384 l 1,0,-1
0 0 m 1,4,-1
 0 640 l 1,5,-1
 128 640 l 1,6,-1
 128 512 l 1,7,-1
 256 512 l 1,8,-1
 256 384 l 1,9,-1
 128 384 l 1,10,-1
 128 0 l 1,11,-1
 0 0 l 1,4,-1
256 512 m 1,12,-1
 256 640 l 1,13,-1
 512 640 l 1,14,-1
 512 512 l 1,15,-1
 256 512 l 1,12,-1
EndSplineSet
Validated: 5
EndChar

StartChar: rcaron
Encoding: 345 345 553
Width: 768
Flags: W
LayerCount: 2
Fore
SplineSet
512 384 m 1,0,-1
 512 512 l 1,1,-1
 640 512 l 1,2,-1
 640 384 l 1,3,-1
 512 384 l 1,0,-1
0 0 m 1,4,-1
 0 640 l 1,5,-1
 128 640 l 1,6,-1
 128 512 l 1,7,-1
 256 512 l 1,8,-1
 256 384 l 1,9,-1
 128 384 l 1,10,-1
 128 0 l 1,11,-1
 0 0 l 1,4,-1
256 512 m 1,12,-1
 256 640 l 1,13,-1
 512 640 l 1,14,-1
 512 512 l 1,15,-1
 256 512 l 1,12,-1
EndSplineSet
Validated: 5
EndChar

StartChar: sacute
Encoding: 347 347 554
Width: 768
Flags: W
LayerCount: 2
Fore
SplineSet
0 0 m 1,0,-1
 0 128 l 1,1,-1
 512 128 l 1,2,-1
 512 0 l 1,3,-1
 0 0 l 1,0,-1
512 128 m 1,4,-1
 512 256 l 1,5,-1
 640 256 l 1,6,-1
 640 128 l 1,7,-1
 512 128 l 1,4,-1
128 256 m 1,8,-1
 128 384 l 1,9,-1
 512 384 l 1,10,-1
 512 256 l 1,11,-1
 128 256 l 1,8,-1
0 384 m 1,12,-1
 0 512 l 1,13,-1
 128 512 l 1,14,-1
 128 384 l 1,15,-1
 0 384 l 1,12,-1
128 512 m 1,16,-1
 128 640 l 1,17,-1
 512 640 l 1,18,-1
 512 512 l 1,19,-1
 128 512 l 1,16,-1
EndSplineSet
Validated: 5
EndChar

